<svg id="圖層_1" data-name="圖層 1" xmlns="http://www.w3.org/2000/svg" xmlns:xlink="http://www.w3.org/1999/xlink" width="42px" height="42px" viewBox="0 0 42 42"><defs><style>.cls-1{fill:url(#未命名漸層_13);}.cls-2{fill:url(#未命名漸層_14);}.cls-3{fill:url(#未命名漸層_13-2);}.cls-4{fill:url(#未命名漸層_14-2);}.cls-5{fill:#fff;}</style><radialGradient id="未命名漸層_13" cx="321.98" cy="384.84" r="4.12" gradientTransform="matrix(5.1, 0, 0, -5.1, -1622.1, 1984.88)" gradientUnits="userSpaceOnUse"><stop offset="0" stop-color="#2027dd"/><stop offset="0.28" stop-color="#2027dd"/><stop offset="0.32" stop-color="#2027dd"/><stop offset="0.76" stop-color="#2027dd"/><stop offset="0.84" stop-color="#2b38dc"/><stop offset="0.91" stop-color="#394cdb"/><stop offset="0.94" stop-color="#384bd8"/><stop offset="0.96" stop-color="#3446d0"/><stop offset="0.97" stop-color="#2d3dc2"/><stop offset="0.98" stop-color="#2431ad"/><stop offset="0.99" stop-color="#182293"/><stop offset="1" stop-color="#0f1781"/></radialGradient><linearGradient id="未命名漸層_14" x1="21" y1="381.89" x2="21" y2="423.89" gradientTransform="matrix(1, 0, 0, -1, 0, 423.89)" gradientUnits="userSpaceOnUse"><stop offset="0" stop-color="#000028"/><stop offset="0.22" stop-color="#001679"/><stop offset="1" stop-color="#0020f8" stop-opacity="0"/></linearGradient><radialGradient id="未命名漸層_13-2" cx="324.89" cy="381.9" r="1.1" xlink:href="#未命名漸層_13"/><linearGradient id="未命名漸層_14-2" x1="35.84" y1="382.31" x2="35.84" y2="393.51" xlink:href="#未命名漸層_14"/></defs><title>bkpl_5_tw</title><circle class="cls-1" cx="21" cy="21" r="21"/><circle class="cls-2" cx="21" cy="21" r="21"/><circle class="cls-3" cx="35.84" cy="35.98" r="5.6"/><circle class="cls-4" cx="35.84" cy="35.98" r="5.6"/><path class="cls-5" d="M19.32,11.48c.42,0,.56.14.56.56v6.3c0,.42-.14.56-.56.56H12.88V32.76h-2V12c0-.42.14-.56.56-.56Zm-6.44,2.94h5.18v-.84a.37.37,0,0,0-.42-.42h-4.2a.37.37,0,0,0-.42.42v.84Zm5,1.68H12.74v1.26h4.62c.28,0,.56-.14.56-.42ZM17.5,28.28a13.44,13.44,0,0,1-1.82,3.78l-2-.84a13.27,13.27,0,0,0,2.1-5.6v-4.9c0-.42.14-.56.56-.56h9c.42,0,.56.14.56.56v9c0,2-1.26,2.38-3.08,2.38A8.61,8.61,0,0,1,21,31.92l-.14-2.24a6.34,6.34,0,0,0,2.24.42c.56,0,.7-.42.7-1v-.7H17.5Zm.28-4.9h6.16V22.12c0-.14,0-.14-.28-.14H17.92a.3.3,0,0,0-.28.28v1.12Zm0,3.08h6.16v-1.4H17.78ZM29.12,19H22.68a.51.51,0,0,1-.56-.56v-6.3c0-.42.14-.56.56-.56h7.84c.42,0,.56.14.56.56V30.8c0,1-.7,2.1-2.52,2.1a14,14,0,0,1-2.24-.28l.14-2.1a7,7,0,0,0,2,.42c.56,0,.7-.7.7-.84Zm-5-4.62h5.18c0-1,0-1.26-.56-1.26H24.5a.37.37,0,0,0-.42.42Zm5,1.68H23.94v.7c0,.42.14.56.56.56h4.62Z"/></svg>