<svg id="圖層_1" data-name="圖層 1" xmlns="http://www.w3.org/2000/svg" xmlns:xlink="http://www.w3.org/1999/xlink" width="42px" height="42px" viewBox="0 0 42 42"><defs><style>.cls-1{fill:url(#未命名漸層_7);}.cls-2{fill:url(#未命名漸層_8);}.cls-3{fill:url(#未命名漸層_9);}.cls-4{fill:url(#未命名漸層_10);}.cls-5{fill:#fff;}</style><radialGradient id="未命名漸層_7" cx="321.9" cy="393.98" r="4.12" gradientTransform="matrix(5.1, 0, 0, -5.1, -1621.7, 2031.52)" gradientUnits="userSpaceOnUse"><stop offset="0" stop-color="#c70025"/><stop offset="0.28" stop-color="#c70025"/><stop offset="0.32" stop-color="#c70025"/><stop offset="0.45" stop-color="#cc0428"/><stop offset="0.59" stop-color="#da102f"/><stop offset="0.74" stop-color="#f1233c"/><stop offset="0.76" stop-color="#f4263e"/><stop offset="0.8" stop-color="#f7374e"/><stop offset="0.89" stop-color="#fd6277"/><stop offset="0.91" stop-color="#ff6d82"/><stop offset="0.94" stop-color="#fc6b80"/><stop offset="0.95" stop-color="#f46378"/><stop offset="0.97" stop-color="#e6576a"/><stop offset="0.98" stop-color="#d14558"/><stop offset="0.99" stop-color="#b72e3f"/><stop offset="0.99" stop-color="#971222"/><stop offset="1" stop-color="#82000e"/></radialGradient><linearGradient id="未命名漸層_8" x1="21" y1="381.89" x2="21" y2="423.89" gradientTransform="matrix(1, 0, 0, -1, 0, 423.89)" gradientUnits="userSpaceOnUse"><stop offset="0" stop-color="#6e0000"/><stop offset="0.3" stop-color="#a6001e"/><stop offset="1" stop-color="#ff3966" stop-opacity="0"/></linearGradient><radialGradient id="未命名漸層_9" cx="324.81" cy="391.04" r="1.1" gradientTransform="matrix(5.1, 0, 0, -5.1, -1621.7, 2031.52)" gradientUnits="userSpaceOnUse"><stop offset="0" stop-color="#2027dd"/><stop offset="0.28" stop-color="#2027dd"/><stop offset="0.32" stop-color="#2027dd"/><stop offset="0.76" stop-color="#2027dd"/><stop offset="0.84" stop-color="#2b38dc"/><stop offset="0.91" stop-color="#394cdb"/><stop offset="0.94" stop-color="#384bd8"/><stop offset="0.96" stop-color="#3446d0"/><stop offset="0.97" stop-color="#2d3dc2"/><stop offset="0.98" stop-color="#2431ad"/><stop offset="0.99" stop-color="#182293"/><stop offset="1" stop-color="#0f1781"/></radialGradient><linearGradient id="未命名漸層_10" x1="35.84" y1="382.31" x2="35.84" y2="393.51" gradientTransform="matrix(1, 0, 0, -1, 0, 423.89)" gradientUnits="userSpaceOnUse"><stop offset="0" stop-color="#000028"/><stop offset="0.22" stop-color="#001679"/><stop offset="1" stop-color="#0020f8" stop-opacity="0"/></linearGradient></defs><title>bkpl_1_tw</title><circle class="cls-1" cx="21" cy="21" r="21"/><circle class="cls-2" cx="21" cy="21" r="21"/><circle class="cls-3" cx="35.84" cy="35.98" r="5.6"/><circle class="cls-4" cx="35.84" cy="35.98" r="5.6"/><path class="cls-5" d="M10.08,30.38a13.6,13.6,0,0,0,2.24-5h-2.1v-2h6.72v-2.1H12c-.7,0-1-.28-1-1V15.82h2V18.9c0,.42.14.56.56.56h3.36V15.4h2V31.5h-2V25.2H14.28A16.13,16.13,0,0,1,12,31.08ZM24.5,13.3h-7v1.4h-2V13.3H10.36v-2h5.18V9.52h2v1.82h7V9.52h2v1.82h5.18v2H26.46v1.4h-2Zm.42,15.26V21H20.16V19h4.76v-3.5h2V19h4.9v2h-4.9v7.56h4.76v2H20.58v-2Z"/></svg>