<?xml version="1.0" encoding="utf-8"?>
<!-- Generator: Adobe Illustrator 25.2.3, SVG Export Plug-In . SVG Version: 6.00 Build 0)  -->
<svg version="1.1" id="圖層_1" xmlns="http://www.w3.org/2000/svg" xmlns:xlink="http://www.w3.org/1999/xlink" x="0px" y="0px"
	 viewBox="0 0 104.32 65.11" style="enable-background:new 0 0 104.32 65.11;" xml:space="preserve">
<style type="text/css">
	.st0{fill:url(#SVGID_1_);}
	.st1{fill:url(#SVGID_2_);}
	.st2{fill:none;stroke:#F2BD79;stroke-width:1.035;stroke-linecap:round;stroke-miterlimit:10;}
	.st3{fill:#F2BD79;}
</style>
<g>
	
		<radialGradient id="SVGID_1_" cx="-414.6327" cy="-3181.3782" r="47.0675" gradientTransform="matrix(0.8157 0 0 0.115 390.3753 423.9453)" gradientUnits="userSpaceOnUse">
		<stop  offset="0" style="stop-color:#F2BD79;stop-opacity:0.7"/>
		<stop  offset="1" style="stop-color:#000000;stop-opacity:0"/>
	</radialGradient>
	<path class="st0" d="M104.32,58.02c0,3.91-23.35,7.09-52.16,7.09C23.35,65.11,0,61.94,0,58.02c0-3.91,23.35-7.09,52.16-7.09
		C80.97,50.93,104.32,54.11,104.32,58.02z"/>
	<g>
		<g>
			<linearGradient id="SVGID_2_" gradientUnits="userSpaceOnUse" x1="51.4015" y1="0.7416" x2="51.4015" y2="54.418">
				<stop  offset="0" style="stop-color:#F2BD79"/>
				<stop  offset="1" style="stop-color:#000000;stop-opacity:0"/>
			</linearGradient>
			<path class="st1" d="M51.42,0.74c0,0-7.56,7.76-20.36,7.76c0,0-0.03,22.57-0.03,25.89c0,5.41,3.66,11.04,20.39,20.03
				c15.92-8.55,20.3-14.61,20.3-20.03c0-4.07,0.06-25.89,0.06-25.89C58.98,8.5,51.42,0.74,51.42,0.74z"/>
		</g>
		<path class="st2" d="M51.42,0.74c0,0-7.56,7.76-20.36,7.76c0,0-0.03,22.57-0.03,25.89c0,5.41,3.66,11.04,20.39,20.03
			c15.92-8.55,20.3-14.61,20.3-20.03c0-4.07,0.06-25.89,0.06-25.89C58.98,8.5,51.42,0.74,51.42,0.74z"/>
		<path class="st3" d="M53.34,26.36l0.19,9.77h-4.26l0.19-9.77c-1.31-0.74-2.15-2.22-1.96-3.87c0.2-1.79,1.66-3.24,3.45-3.43
			c2.37-0.26,4.37,1.58,4.37,3.9C55.32,24.41,54.52,25.68,53.34,26.36z"/>
	</g>
</g>
</svg>
