<svg id="圖層_1" data-name="圖層 1" xmlns="http://www.w3.org/2000/svg" xmlns:xlink="http://www.w3.org/1999/xlink" viewBox="0 0 21.97 21.98"><defs><style>.cls-1{fill:url(#未命名漸層);}.cls-2{fill:url(#未命名漸層_2);}.cls-3{fill:url(#未命名漸層_3);}.cls-4{fill:url(#未命名漸層_4);}</style><linearGradient id="未命名漸層" x1="13.68" y1="6.19" x2="21.97" y2="6.19" gradientTransform="matrix(1, 0, 0, -1, 0, 24)" gradientUnits="userSpaceOnUse"><stop offset="0" stop-color="#563d29"/><stop offset="1" stop-color="#f2bd79"/></linearGradient><linearGradient id="未命名漸層_2" x1="0" y1="6.19" x2="8.29" y2="6.19" xlink:href="#未命名漸層"/><linearGradient id="未命名漸層_3" x1="0" y1="19.83" x2="8.29" y2="19.83" xlink:href="#未命名漸層"/><linearGradient id="未命名漸層_4" x1="13.68" y1="19.83" x2="21.97" y2="19.83" xlink:href="#未命名漸層"/></defs><g id="kit"><path class="cls-1" d="M16.55,18.16,20,21.65a1.13,1.13,0,1,0,1.6-1.6l-3.5-3.5,2.16-2.17A.4.4,0,0,0,20,13.7l-5.93-.06a.4.4,0,0,0-.4.4v6a.4.4,0,0,0,.68.28C14.91,19.82,15.7,19,16.55,18.16Z" transform="translate(0 0)"/><path class="cls-2" d="M5.42,18.16,1.93,21.65a1.13,1.13,0,1,1-1.6-1.6l3.5-3.5L1.67,14.38A.4.4,0,0,1,2,13.7l5.93-.06a.4.4,0,0,1,.4.4v6a.4.4,0,0,1-.68.28Z" transform="translate(0 0)"/><path class="cls-3" d="M5.42,3.82,1.93.33a1.13,1.13,0,0,0-1.6,1.6l3.5,3.5L1.67,7.6A.4.4,0,0,0,2,8.28l5.93.06a.4.4,0,0,0,.4-.4v-6a.4.4,0,0,0-.68-.28Z" transform="translate(0 0)"/><path class="cls-4" d="M16.55,3.82,20,.33a1.13,1.13,0,1,1,1.6,1.6l-3.5,3.5L20.3,7.6a.4.4,0,0,1-.29.68l-5.93.06a.4.4,0,0,1-.4-.4v-6a.4.4,0,0,1,.68-.28C14.91,2.16,15.7,3,16.55,3.82Z" transform="translate(0 0)"/></g></svg>