<svg id="圖層_1" data-name="圖層 1" xmlns="http://www.w3.org/2000/svg" xmlns:xlink="http://www.w3.org/1999/xlink" viewBox="0 0 18 18"><defs><style>.cls-1{fill:url(#未命名漸層_118);}</style><linearGradient id="未命名漸層_118" y1="9" x2="18" y2="9" gradientUnits="userSpaceOnUse"><stop offset="0" stop-color="#240913"/><stop offset="1" stop-color="#1b090f"/></linearGradient></defs><title>setting_btn</title><path class="cls-1" d="M10.58,1.18a1.65,1.65,0,0,0-3.16,0l-.11.38A1.56,1.56,0,0,1,7,2.2a1.62,1.62,0,0,1-1.31.54,1.53,1.53,0,0,1-.7-.2l-.35-.19A1.65,1.65,0,0,0,2.35,4.59l.19.35a1.64,1.64,0,0,1-1,2.37l-.38.11a1.65,1.65,0,0,0,0,3.16l.38.11a1.56,1.56,0,0,1,.64.36,1.62,1.62,0,0,1,.54,1.31,1.53,1.53,0,0,1-.2.7l-.19.35a1.65,1.65,0,0,0,2.24,2.24l.35-.19a1.53,1.53,0,0,1,.7-.2A1.62,1.62,0,0,1,7,15.8a1.56,1.56,0,0,1,.36.64l.11.38a1.65,1.65,0,0,0,3.16,0l.11-.38a1.56,1.56,0,0,1,.36-.64,1.62,1.62,0,0,1,1.31-.54,1.53,1.53,0,0,1,.7.2l.35.19a1.65,1.65,0,0,0,2.24-2.24l-.19-.35a1.53,1.53,0,0,1-.2-.7,1.62,1.62,0,0,1,.54-1.31,1.56,1.56,0,0,1,.64-.36l.38-.11a1.65,1.65,0,0,0,0-3.16l-.38-.11A1.56,1.56,0,0,1,15.8,7a1.62,1.62,0,0,1-.54-1.31,1.53,1.53,0,0,1,.2-.7l.19-.35a1.65,1.65,0,0,0-2.24-2.24l-.35.19a1.53,1.53,0,0,1-.7.2,1.62,1.62,0,0,1-1.31-.54,1.56,1.56,0,0,1-.36-.64l-.11-.38ZM9,12.3a3.31,3.31,0,1,1,2.33-1A3.3,3.3,0,0,1,9,12.3Z" transform="translate(0 0)"/></svg>