<svg id="圖層_1" data-name="圖層 1" xmlns="http://www.w3.org/2000/svg" xmlns:xlink="http://www.w3.org/1999/xlink" viewBox="0 0 21.36 21.41"><defs><style>.cls-1{fill:url(#未命名漸層);}</style><linearGradient id="未命名漸層" y1="13.29" x2="21.35" y2="13.29" gradientTransform="matrix(1, 0, 0, -1, 0, 24)" gradientUnits="userSpaceOnUse"><stop offset="0" stop-color="#563d29"/><stop offset="0.08" stop-color="#725437"/><stop offset="0.22" stop-color="#99744b"/><stop offset="0.36" stop-color="#b98e5c"/><stop offset="0.5" stop-color="#d2a369"/><stop offset="0.66" stop-color="#e4b272"/><stop offset="0.81" stop-color="#efba77"/><stop offset="1" stop-color="#f2bd79"/></linearGradient></defs><g id="kit"><path class="cls-1" d="M10.65,0A10.71,10.71,0,0,0,0,9.63H11.28L8.82,7.18a1.07,1.07,0,0,1,0-1.5,1.06,1.06,0,0,1,.75-.31,1.09,1.09,0,0,1,.75.3L14.61,10a1.07,1.07,0,0,1,.31.76,1.08,1.08,0,0,1-.31.76l-4.28,4.28a1.07,1.07,0,0,1-1.5,0A1.06,1.06,0,0,1,8.52,15a1.09,1.09,0,0,1,.3-.75l2.45-2.45H0a10.69,10.69,0,0,0,2.31,5.63,10.82,10.82,0,0,0,5,3.47A10.71,10.71,0,0,0,16.48,1.74,10.6,10.6,0,0,0,10.65,0Z"/></g></svg>