<?xml version="1.0" encoding="utf-8"?>
<!-- Generator: Adobe Illustrator 25.2.3, SVG Export Plug-In . SVG Version: 6.00 Build 0)  -->
<svg version="1.1" id="圖層_1" xmlns="http://www.w3.org/2000/svg" xmlns:xlink="http://www.w3.org/1999/xlink" x="0px" y="0px"
	 viewBox="0 0 25 25" style="enable-background:new 0 0 25 25;" xml:space="preserve">
<style type="text/css">
	.st0{fill:url(#SVGID_1_);}
	.st1{fill:#FFFFFF;}
</style>
<g>
	<linearGradient id="SVGID_1_" gradientUnits="userSpaceOnUse" x1="12.5" y1="25" x2="12.5" y2="-9.094947e-13">
		<stop  offset="0" style="stop-color:#563D29"/>
		<stop  offset="1" style="stop-color:#F2BD79"/>
	</linearGradient>
	<circle class="st0" cx="12.5" cy="12.5" r="12.5"/>
	<g>
		<g>
			<path class="st1" d="M14.97,19.56H9.96V19c0.7,0,1.05-0.27,1.05-0.81v-6.67c0-0.34-0.08-0.55-0.23-0.64
				c-0.14-0.09-0.4-0.13-0.79-0.13V10.2c1.61,0,2.91-0.22,3.9-0.66v8.55c0,0.6,0.36,0.9,1.07,0.9V19.56z M14.08,7.01
				c0,0.45-0.16,0.84-0.49,1.15c-0.33,0.33-0.73,0.49-1.21,0.49c-0.48,0-0.88-0.16-1.21-0.49c-0.34-0.31-0.51-0.7-0.51-1.15
				s0.17-0.83,0.51-1.13c0.33-0.31,0.73-0.47,1.21-0.47c0.48,0,0.89,0.16,1.22,0.47C13.93,6.18,14.08,6.56,14.08,7.01z"/>
		</g>
		<g>
			<path d="M14.97,19.56H9.96V19c0.7,0,1.05-0.27,1.05-0.81v-6.67c0-0.34-0.08-0.55-0.23-0.64c-0.14-0.09-0.4-0.13-0.79-0.13V10.2
				c1.61,0,2.91-0.22,3.9-0.66v8.55c0,0.6,0.36,0.9,1.07,0.9V19.56z M14.08,7.01c0,0.45-0.16,0.84-0.49,1.15
				c-0.33,0.33-0.73,0.49-1.21,0.49c-0.48,0-0.88-0.16-1.21-0.49c-0.34-0.31-0.51-0.7-0.51-1.15s0.17-0.83,0.51-1.13
				c0.33-0.31,0.73-0.47,1.21-0.47c0.48,0,0.89,0.16,1.22,0.47C13.93,6.18,14.08,6.56,14.08,7.01z"/>
		</g>
	</g>
</g>
</svg>
