<svg id="圖層_1" data-name="圖層 1" xmlns="http://www.w3.org/2000/svg" xmlns:xlink="http://www.w3.org/1999/xlink" viewBox="0 0 20 20"><defs><style>.cls-1{fill:url(#未命名漸層);}</style><linearGradient id="未命名漸層" y1="12" x2="19.99" y2="12" gradientTransform="matrix(1, 0, 0, -1, 0, 22)" gradientUnits="userSpaceOnUse"><stop offset="0" stop-color="#563d29"/><stop offset="1" stop-color="#f2bd79"/></linearGradient></defs><g id="kit"><path class="cls-1" d="M11.76,1.31a1.83,1.83,0,0,0-3.51,0l-.13.43a1.75,1.75,0,0,1-.4.7,1.94,1.94,0,0,1-.66.47,2,2,0,0,1-.8.14,1.9,1.9,0,0,1-.77-.22L5.1,2.62A1.83,1.83,0,0,0,2.62,5.1l.21.39A1.83,1.83,0,0,1,1.74,8.12l-.43.12a1.83,1.83,0,0,0,0,3.51l.42.12a2,2,0,0,1,.71.39,1.94,1.94,0,0,1,.47.66,2,2,0,0,1,.14.8,1.79,1.79,0,0,1-.22.78l-.21.4A1.83,1.83,0,0,0,5.1,17.38l.39-.21A1.79,1.79,0,0,1,6.27,17a1.83,1.83,0,0,1,.8.14,1.82,1.82,0,0,1,1,1.18l.12.42a1.83,1.83,0,0,0,3.51,0l.12-.42a2,2,0,0,1,.39-.71A1.84,1.84,0,0,1,13.72,17a1.79,1.79,0,0,1,.78.22l.39.21a1.83,1.83,0,0,0,2.48-2.48l-.21-.39a1.79,1.79,0,0,1-.22-.78,1.83,1.83,0,0,1,.14-.8,1.82,1.82,0,0,1,1.18-1l.42-.12a1.83,1.83,0,0,0,0-3.51l-.42-.12a2,2,0,0,1-.71-.39,1.84,1.84,0,0,1-.61-1.46,1.79,1.79,0,0,1,.22-.78l.21-.39a1.83,1.83,0,0,0-2.48-2.48l-.39.21a1.79,1.79,0,0,1-.78.22,1.83,1.83,0,0,1-.8-.14,1.71,1.71,0,0,1-.66-.47,1.71,1.71,0,0,1-.39-.71l-.11-.43ZM10,13.66a3.7,3.7,0,0,1-2.59-1.07A3.65,3.65,0,0,1,6.34,10,3.7,3.7,0,0,1,7.41,7.41,3.65,3.65,0,0,1,10,6.34a3.7,3.7,0,0,1,2.59,1.07A3.65,3.65,0,0,1,13.66,10,3.65,3.65,0,0,1,10,13.66Z" transform="translate(0 0)"/></g></svg>