<?xml version="1.0" encoding="utf-8"?>
<!-- Generator: Adobe Illustrator 25.3.1, SVG Export Plug-In . SVG Version: 6.00 Build 0)  -->
<svg version="1.1" id="圖層_1" xmlns="http://www.w3.org/2000/svg" xmlns:xlink="http://www.w3.org/1999/xlink" x="0px" y="0px"
	 viewBox="0 0 22.09 23.03" style="enable-background:new 0 0 22.09 23.03;" xml:space="preserve">
<style type="text/css">
	.st0{fill:url(#SVGID_1_);}
	.st1{fill:url(#SVGID_2_);}
	.st2{fill:url(#SVGID_3_);}
</style>
<g>
	<linearGradient id="SVGID_1_" gradientUnits="userSpaceOnUse" x1="3.34" y1="11.8799" x2="18.7927" y2="11.8799">
		<stop  offset="0" style="stop-color:#563D29"/>
		<stop  offset="0.0833" style="stop-color:#725437"/>
		<stop  offset="0.219" style="stop-color:#99744B"/>
		<stop  offset="0.3598" style="stop-color:#B98E5C"/>
		<stop  offset="0.5045" style="stop-color:#D2A369"/>
		<stop  offset="0.655" style="stop-color:#E4B272"/>
		<stop  offset="0.8148" style="stop-color:#EFBA77"/>
		<stop  offset="1" style="stop-color:#F2BD79"/>
	</linearGradient>
	<path class="st0" d="M11.07,19.61c-4.26,0-7.73-3.47-7.73-7.73c0-4.26,3.47-7.73,7.73-7.73s7.73,3.47,7.73,7.73
		C18.79,16.14,15.33,19.61,11.07,19.61z M9.09,15c0.3,2.35,0.99,3.64,1.98,3.64s1.68-1.29,1.98-3.64H9.09z M5.07,15
		c0.83,1.58,2.26,2.8,3.99,3.34C8.61,17.57,8.29,16.45,8.11,15H5.07z M14.02,15c-0.18,1.46-0.49,2.57-0.95,3.34
		c1.73-0.54,3.17-1.76,3.99-3.34H14.02z M14.11,14.03h3.36c0.23-0.68,0.35-1.4,0.35-2.15s-0.12-1.48-0.35-2.15h-3.36
		c0.05,0.66,0.07,1.38,0.07,2.15C14.18,12.65,14.16,13.37,14.11,14.03z M8.99,14.03h4.15c0.05-0.65,0.08-1.37,0.08-2.15
		c0-0.78-0.03-1.5-0.08-2.15H8.99c-0.05,0.65-0.08,1.37-0.08,2.15C8.92,12.66,8.94,13.38,8.99,14.03z M4.66,14.03h3.37
		c-0.05-0.66-0.07-1.38-0.07-2.15c0-0.77,0.02-1.49,0.07-2.15H4.66c-0.23,0.68-0.35,1.4-0.35,2.15S4.43,13.35,4.66,14.03z
		 M14.02,8.76h3.04c-0.83-1.58-2.26-2.8-3.99-3.34C13.53,6.19,13.84,7.31,14.02,8.76z M9.09,8.76h3.95
		c-0.3-2.35-0.99-3.64-1.98-3.64S9.39,6.41,9.09,8.76z M5.07,8.76h3.05c0.18-1.46,0.49-2.57,0.95-3.34
		C7.33,5.96,5.89,7.18,5.07,8.76z"/>
	<g>
		<linearGradient id="SVGID_2_" gradientUnits="userSpaceOnUse" x1="0" y1="11.9859" x2="22.0916" y2="11.9859">
			<stop  offset="0" style="stop-color:#563D29"/>
			<stop  offset="0.0833" style="stop-color:#725437"/>
			<stop  offset="0.219" style="stop-color:#99744B"/>
			<stop  offset="0.3598" style="stop-color:#B98E5C"/>
			<stop  offset="0.5045" style="stop-color:#D2A369"/>
			<stop  offset="0.655" style="stop-color:#E4B272"/>
			<stop  offset="0.8148" style="stop-color:#EFBA77"/>
			<stop  offset="1" style="stop-color:#F2BD79"/>
		</linearGradient>
		<path class="st1" d="M11.05,23.03c-2.95,0-5.72-1.15-7.81-3.24C1.15,17.71,0,14.94,0,11.99s1.15-5.72,3.24-7.81
			c2.09-2.09,4.86-3.24,7.81-3.24c0.2,0,0.36,0.16,0.36,0.36c0,0.2-0.16,0.36-0.36,0.36c-2.76,0-5.35,1.07-7.3,3.02
			c-1.95,1.95-3.02,4.54-3.02,7.3s1.07,5.35,3.02,7.3c1.95,1.95,4.54,3.02,7.3,3.02c2.76,0,5.35-1.07,7.3-3.02
			c1.95-1.95,3.02-4.54,3.02-7.3c0-4.93-3.51-9.19-8.34-10.13c-0.2-0.04-0.32-0.23-0.29-0.42c0.04-0.2,0.23-0.32,0.42-0.29
			c5.17,1,8.93,5.56,8.93,10.84c0,2.95-1.15,5.72-3.24,7.81C16.77,21.88,14,23.03,11.05,23.03z"/>
		<linearGradient id="SVGID_3_" gradientUnits="userSpaceOnUse" x1="9.7442" y1="1.3016" x2="11.4072" y2="1.3016">
			<stop  offset="0" style="stop-color:#563D29"/>
			<stop  offset="0.0833" style="stop-color:#725437"/>
			<stop  offset="0.219" style="stop-color:#99744B"/>
			<stop  offset="0.3598" style="stop-color:#B98E5C"/>
			<stop  offset="0.5045" style="stop-color:#D2A369"/>
			<stop  offset="0.655" style="stop-color:#E4B272"/>
			<stop  offset="0.8148" style="stop-color:#EFBA77"/>
			<stop  offset="1" style="stop-color:#F2BD79"/>
		</linearGradient>
		<path class="st2" d="M10.11,2.6c-0.09,0-0.19-0.04-0.26-0.11c-0.14-0.14-0.14-0.37,0-0.51l0.68-0.68L9.85,0.62
			c-0.14-0.14-0.14-0.37,0-0.51c0.14-0.14,0.37-0.14,0.51,0l0.94,0.94c0.14,0.14,0.14,0.37,0,0.51L10.36,2.5
			C10.29,2.57,10.2,2.6,10.11,2.6z"/>
	</g>
</g>
</svg>
