<svg id="圖層_1" data-name="圖層 1" xmlns="http://www.w3.org/2000/svg" xmlns:xlink="http://www.w3.org/1999/xlink" viewBox="0 0 46.9 44.9"><defs><style>.cls-1{fill:url(#未命名漸層);}.cls-2{fill:none;stroke:#221b17;stroke-linecap:round;stroke-linejoin:round;stroke-width:2.5px;}.cls-3{fill:url(#未命名漸層_2);}.cls-4{fill:url(#未命名漸層_3);}.cls-5{fill:url(#未命名漸層_4);}.cls-6{fill:url(#未命名漸層_5);}.cls-7{fill:url(#未命名漸層_6);}.cls-8{fill:url(#未命名漸層_7);}.cls-9{fill:url(#未命名漸層_8);}.cls-10{fill:url(#未命名漸層_9);}.cls-11{fill:url(#未命名漸層_10);}.cls-12{fill:url(#未命名漸層_11);}.cls-13{fill:url(#未命名漸層_12);}.cls-14{fill:url(#未命名漸層_13);}.cls-15{fill:url(#未命名漸層_14);}.cls-16{fill:url(#未命名漸層_15);}.cls-17{fill:url(#未命名漸層_16);}.cls-18{fill:url(#未命名漸層_17);}.cls-19{fill:url(#未命名漸層_18);}.cls-20{fill:url(#未命名漸層_19);}.cls-21{fill:url(#未命名漸層_20);}.cls-22{fill:url(#未命名漸層_21);}.cls-23{fill:url(#未命名漸層_22);}.cls-24{fill:url(#未命名漸層_23);}.cls-25{fill:url(#未命名漸層_24);}</style><linearGradient id="未命名漸層" x1="24.45" y1="1071.84" x2="24.45" y2="1046.15" gradientTransform="translate(0 -1028.11)" gradientUnits="userSpaceOnUse"><stop offset="0" stop-color="#e9c156"/><stop offset="0.04" stop-color="#b28639"/><stop offset="0.08" stop-color="#79491c"/><stop offset="0.1" stop-color="#633110"/><stop offset="0.13" stop-color="#6f3c14"/><stop offset="0.18" stop-color="#8d5a1e"/><stop offset="0.25" stop-color="#bf8a2e"/><stop offset="0.29" stop-color="#e1ab39"/><stop offset="0.31" stop-color="#e3b141"/><stop offset="0.41" stop-color="#edcd66"/><stop offset="0.52" stop-color="#f5e384"/><stop offset="0.62" stop-color="#fbf299"/><stop offset="0.72" stop-color="#fefca6"/><stop offset="0.82" stop-color="#ffa"/><stop offset="0.85" stop-color="#fdfaa3"/><stop offset="0.9" stop-color="#f8ec90"/><stop offset="0.96" stop-color="#f0d571"/><stop offset="1" stop-color="#e9c156"/></linearGradient><linearGradient id="未命名漸層_2" x1="20.6" y1="1042.03" x2="20.6" y2="1033.08" xlink:href="#未命名漸層"/><linearGradient id="未命名漸層_3" x1="24.44" y1="1035.3" x2="24.44" y2="1028.06" xlink:href="#未命名漸層"/><linearGradient id="未命名漸層_4" x1="15.18" y1="1039.29" x2="15.18" y2="1035.08" xlink:href="#未命名漸層"/><linearGradient id="未命名漸層_5" x1="28.41" y1="1042.03" x2="28.41" y2="1032.94" xlink:href="#未命名漸層"/><linearGradient id="未命名漸層_6" x1="24.35" y1="1045.11" x2="24.35" y2="1031.78" gradientTransform="translate(0 -1028.11)" gradientUnits="userSpaceOnUse"><stop offset="0" stop-color="#e9c156"/><stop offset="0.04" stop-color="#b28639"/><stop offset="0.08" stop-color="#79491c"/><stop offset="0.1" stop-color="#633110"/><stop offset="0.13" stop-color="#6f3c14"/><stop offset="0.18" stop-color="#8d5a1e"/><stop offset="0.25" stop-color="#bf8a2e"/><stop offset="0.29" stop-color="#e1ab39"/><stop offset="0.31" stop-color="#e4b344"/><stop offset="0.42" stop-color="#eece69"/><stop offset="0.52" stop-color="#f5e387"/><stop offset="0.62" stop-color="#fbf39c"/><stop offset="0.72" stop-color="#fefca9"/><stop offset="0.82" stop-color="#ffffad"/><stop offset="0.85" stop-color="#fdfaa6"/><stop offset="0.9" stop-color="#f8ec93"/><stop offset="0.96" stop-color="#f1d674"/><stop offset="1" stop-color="#e9c156"/></linearGradient><linearGradient id="未命名漸層_7" x1="33.73" y1="1039.29" x2="33.73" y2="1035.08" xlink:href="#未命名漸層"/><linearGradient id="未命名漸層_8" x1="19.85" y1="1036.33" x2="19.85" y2="1035.46" xlink:href="#未命名漸層"/><linearGradient id="未命名漸層_9" x1="29.2" y1="1036.28" x2="29.2" y2="1035.41" xlink:href="#未命名漸層"/><linearGradient id="未命名漸層_10" x1="10.65" y1="1045.79" x2="10.65" y2="1067.81" gradientTransform="translate(0 -1028.11)" gradientUnits="userSpaceOnUse"><stop offset="0" stop-color="#c39434"/><stop offset="0.19" stop-color="#7f4b0c"/><stop offset="0.32" stop-color="#c39434"/><stop offset="0.36" stop-color="#c99e41"/><stop offset="0.41" stop-color="#dab863"/><stop offset="0.49" stop-color="#f4e399"/><stop offset="0.52" stop-color="#fff4af"/><stop offset="0.55" stop-color="#fdf0aa"/><stop offset="0.59" stop-color="#f6e69d"/><stop offset="0.63" stop-color="#ebd487"/><stop offset="0.67" stop-color="#dcbc67"/><stop offset="0.71" stop-color="#c99d3f"/><stop offset="0.73" stop-color="#c39434"/><stop offset="0.83" stop-color="#8f4f18"/><stop offset="0.93" stop-color="#ffd452"/><stop offset="1" stop-color="#c39434"/></linearGradient><linearGradient id="未命名漸層_11" x1="23.75" y1="1045.79" x2="23.75" y2="1067.81" xlink:href="#未命名漸層_10"/><linearGradient id="未命名漸層_12" x1="37.1" y1="1045.79" x2="37.1" y2="1067.81" xlink:href="#未命名漸層_10"/><linearGradient id="未命名漸層_13" x1="10.65" y1="1037.1" x2="10.65" y2="1066.26" gradientTransform="translate(0 -1028.11)" gradientUnits="userSpaceOnUse"><stop offset="0.41" stop-color="#ffffad"/><stop offset="0.49" stop-color="#f8ec92"/><stop offset="0.65" stop-color="#ecc962"/><stop offset="0.77" stop-color="#e4b344"/><stop offset="0.84" stop-color="#e1ab39"/><stop offset="0.89" stop-color="#dea83c"/><stop offset="0.94" stop-color="#d39d44"/><stop offset="0.98" stop-color="#c28c52"/><stop offset="1" stop-color="#b6805c"/></linearGradient><linearGradient id="未命名漸層_14" x1="23.75" y1="1037.1" x2="23.75" y2="1066.26" xlink:href="#未命名漸層_13"/><linearGradient id="未命名漸層_15" x1="37.06" y1="1037.1" x2="37.06" y2="1066.26" xlink:href="#未命名漸層_13"/><linearGradient id="未命名漸層_16" x1="16.05" y1="1059.58" x2="16.05" y2="1051.53" gradientTransform="translate(0 -1028.11)" gradientUnits="userSpaceOnUse"><stop offset="0.01" stop-color="#fff6b1"/><stop offset="1" stop-color="#fff6b1" stop-opacity="0"/></linearGradient><linearGradient id="未命名漸層_17" x1="6.45" y1="1059.58" x2="6.45" y2="1051.53" xlink:href="#未命名漸層_16"/><linearGradient id="未命名漸層_18" x1="23.7" y1="1059.58" x2="23.7" y2="1051.53" xlink:href="#未命名漸層_16"/><linearGradient id="未命名漸層_19" x1="37.1" y1="1059.58" x2="37.1" y2="1051.53" xlink:href="#未命名漸層_16"/><radialGradient id="未命名漸層_20" cx="2294.85" cy="1452.99" r="4.81" gradientTransform="matrix(0.42, -0.12, 0.43, 1.48, -1580.97, -1841.62)" gradientUnits="userSpaceOnUse"><stop offset="0" stop-color="#fff6b1"/><stop offset="0.12" stop-color="#fff6b1" stop-opacity="0.88"/><stop offset="1" stop-color="#fff6b1" stop-opacity="0"/></radialGradient><radialGradient id="未命名漸層_21" cx="2167.44" cy="1454.98" r="4.81" gradientTransform="matrix(0.44, -0.13, 0.43, 1.48, -1569.76, -1848.67)" gradientUnits="userSpaceOnUse"><stop offset="0" stop-color="#fff"/><stop offset="0.12" stop-color="#fff" stop-opacity="0.88"/><stop offset="1" stop-color="#fff" stop-opacity="0"/></radialGradient><radialGradient id="未命名漸層_22" cx="4090.27" cy="1082.7" r="4.81" gradientTransform="translate(-1845.4 -1833.71) scale(0.46 1.72)" xlink:href="#未命名漸層_20"/><radialGradient id="未命名漸層_23" cx="6561.84" cy="1385.48" r="4.81" gradientTransform="matrix(0.35, 0.08, -0.21, 0.89, -1981.12, -1746.12)" xlink:href="#未命名漸層_21"/><radialGradient id="未命名漸層_24" cx="5786.02" cy="1603.67" r="4.81" gradientTransform="matrix(0.28, 0, 0.01, 1.32, -1608.91, -2087.24)" xlink:href="#未命名漸層_20"/></defs><g id="圖層_1-2" data-name="圖層 1-2"><path class="cls-1" d="M24.5,44.9A16.45,16.45,0,1,1,40.9,28.4,16.44,16.44,0,0,1,24.5,44.9Zm0-32.1A15.7,15.7,0,1,0,40.2,28.5h0A15.66,15.66,0,0,0,24.58,12.8H24.5Z"/><polygon class="cls-2" points="13.2 20.9 15.7 20.9 11.9 31.4 8.1 20.9 10.5 20.9 10.5 19.7 2.1 19.7 2.1 20.9 4.2 20.9 10.1 37.3 11.3 37.3 17 20.9 19.2 20.9 19.2 19.7 13.2 19.7 13.2 20.9"/><polygon class="cls-2" points="19.4 20.9 21.8 20.9 21.8 35.8 19.4 35.8 19.4 36.9 28.1 36.9 28.1 35.8 25.6 35.8 25.6 20.9 28.1 20.9 28.1 19.7 19.4 19.7 19.4 20.9"/><path class="cls-2" d="M43,20.9a9.24,9.24,0,0,0-5.1-1.1H29.3V21h2.5V35.9H29.3v1.2h8.9V35.9H35.5V29.5H38a9,9,0,0,0,4.9-1.2,4,4,0,0,0,1.9-3.6A4.17,4.17,0,0,0,43,20.9Zm-7.5,0h2.8a2.27,2.27,0,0,1,1.9.8,5,5,0,0,1,.6,2.7,5.5,5.5,0,0,1-.6,2.9,2.07,2.07,0,0,1-1.9.9H35.6Z"/><path class="cls-3" d="M17.4,7.9c0,.1.1.2.1.4s.4.4.5.5c.3,0,.5.2.6.2h.9a.09.09,0,0,0,.1-.08v0h0a.52.52,0,0,0,.2-.4,1.23,1.23,0,0,0,.1-.6h0V7.8h0v.1h0V8a1.24,1.24,0,0,1-.1.5h0l-.2.2h-.7c-.1,0-.2-.1-.4-.2a.52.52,0,0,1-.2-.4c0-.2,0-.1-.1-.2V7.7a.74.74,0,0,1,.1-.5c.1-.1.2-.4.4-.5s.1-.1.2-.1a.09.09,0,0,0,.1-.08v0h.7a1.75,1.75,0,0,1,1.2.4c.1.1.4.2.5.5l.2.2a.09.09,0,0,0,.08.1h0a.09.09,0,0,0,.08.1h0a.09.09,0,0,0,.08.1h0v.3c0,.2.1.4.1.6a4.83,4.83,0,0,1-.1,1.2,1.35,1.35,0,0,1-.5.9,1.72,1.72,0,0,1-.6.6l-.1.1c-.1.1-.2.1-.4.2h-.2a.35.35,0,0,0-.2.1h-.1a1.08,1.08,0,0,0-.61,1.39h0a.83.83,0,0,0,.5.5,12.31,12.31,0,0,0,1.8-.4,4.84,4.84,0,0,0,.8-.7,2.37,2.37,0,0,0,.6-.8,2.44,2.44,0,0,1,.4-.7,4.83,4.83,0,0,1,.4-1.1,9.65,9.65,0,0,0,.1-1.7c0-.2-.1-.5-.1-.6s0-.2-.1-.2,0-.1-.1-.2-.1-.1-.1-.2-.1-.1-.1-.2-.1-.1-.1-.2-.2-.1-.2-.2-.1-.1-.1-.2L22.5,6a2.37,2.37,0,0,0-.8-.6,6,6,0,0,1-.9-.4,2.05,2.05,0,0,0-1.1,0,2,2,0,0,0-.9.2c-.1,0-.1.1-.2.1s-.1.1-.2.1l-.4.4a2.3,2.3,0,0,0-.5.8,2.18,2.18,0,0,0-.1.8Z"/><path class="cls-4" d="M24.5,7.2C25,6,26.2,5.8,26.4,4.5S26,2.1,24.5,0h0c-1.5,2.1-2.3,3.2-2,4.5C22.8,5.6,24,6,24.5,7.2Z"/><path class="cls-5" d="M14.5,7a2.51,2.51,0,0,1,.9.4s-.7,2.4.6,3.8A3.86,3.86,0,0,1,14.5,7Z"/><path class="cls-6" d="M25.6,11.1a2.73,2.73,0,0,1,.6.9c.2.2.4.5.6.7a3.64,3.64,0,0,0,.7.6,12.31,12.31,0,0,1,1.8.4,1.46,1.46,0,0,0,.5-.6,1.17,1.17,0,0,0-.7-1.4h-.5c-.1-.1-.4-.1-.5-.4l-.1-.1h0a1.44,1.44,0,0,0-.4-.6,2.84,2.84,0,0,1-.5-.9,4.43,4.43,0,0,1-.2-1.2,1.23,1.23,0,0,1,.1-.6V7.6h0a.09.09,0,0,1,.08-.1h0a7.18,7.18,0,0,1,.8-1.1c.5-.2.8-.5,1.3-.5h.7A.09.09,0,0,1,30,6V6h0a.22.22,0,0,1,.2.2,1.17,1.17,0,0,1,.5,1.1v.2c0,.1,0,.2-.1.2s-.2.4-.4.4a1.37,1.37,0,0,1-.9.2h-.2c-.1-.1-.2-.1-.2-.2a.09.09,0,0,0-.08-.1h0c0-.1-.1-.2,0-.4V7.5h0V7.4h-.1v.1a1.55,1.55,0,0,0,.1.6c0,.1.1.2.2.4a.09.09,0,0,1,.1.08v0h.3c.2,0,.4.1.6.1a1.94,1.94,0,0,0,.7-.2.45.45,0,0,0,.63-.09h0a.21.21,0,0,0,.06-.1V8.1h0c0-.1,0-.1.1-.2s.1-.2.1-.4A1.91,1.91,0,0,0,31,5.8l-.4-.4c-.1,0-.1-.1-.2-.1s-.1-.1-.2-.1h-.1c-.1,0-.1,0-.2-.1s-.4-.1-.5-.1H28.3a1.88,1.88,0,0,0-.9.4,1.46,1.46,0,0,0-1.1.5l-.3.3c0,.1-.1.1-.1.2s-.1.1-.1.2-.2.2-.2.4-.1.1-.1.2-.1.1-.1.2,0,.1-.1.2v.1a2.08,2.08,0,0,1-.1.7,10.87,10.87,0,0,0,.1,1.8A6.78,6.78,0,0,1,25.6,11.1Z"/><path class="cls-7" d="M16,15.1A19.36,19.36,0,0,1,24.4,13a18.25,18.25,0,0,1,8.5,2.1c.9-1.9,1.9-3.7,2.8-5.5a49.91,49.91,0,0,1,3.1-4.9c-2,.8-4,1.8-4,1.8h0c.8,1.4,0,3.3-1.3,4.3a4.53,4.53,0,0,1-3.6.9,7.79,7.79,0,0,1-2-.7h0a8,8,0,0,1-2.7-3.6c-.1-.4-.4-.8-.5-1.3a22.5,22.5,0,0,1-.5-2.7h0a8,8,0,0,1-.5,2.7c-.1.5-.4.9-.5,1.4a8.13,8.13,0,0,1-2.8,3.6,3.82,3.82,0,0,1-1.7.6,5.58,5.58,0,0,1-3.6-.9,3.37,3.37,0,0,1-1.2-4.2h0l-4-1.8C11,6.3,12,8,13,9.7Q14.65,12.55,16,15.1Z"/><path class="cls-8" d="M34.4,7a2.51,2.51,0,0,0-.9.4s.7,2.4-.6,3.8A3.71,3.71,0,0,0,34.4,7Z"/><path class="cls-9" d="M20.2,7.8c0,.2-.1.5-.4.5s-.3-.3-.3-.5.1-.5.4-.5S20.2,7.5,20.2,7.8Z"/><path class="cls-10" d="M29.6,7.8c0,.2-.1.5-.4.5a.46.46,0,0,1-.4-.5c0-.2.1-.5.4-.5A.53.53,0,0,1,29.6,7.8Z"/></g><g id="圖層_2" data-name="圖層 2"><polygon class="cls-11" points="10.1 37.3 4.2 20.9 2.1 20.9 2.1 19.7 10.5 19.7 10.5 20.9 8.1 20.9 11.9 31.4 15.7 20.9 13.2 20.9 13.2 19.7 19.2 19.7 19.2 20.9 17 20.9 11.3 37.3 10.1 37.3"/><polygon class="cls-12" points="19.4 36.9 19.4 35.8 21.8 35.8 21.8 20.9 19.4 20.9 19.4 19.7 28.1 19.7 28.1 20.9 25.6 20.9 25.6 35.8 28.1 35.8 28.1 36.9 19.4 36.9"/><path class="cls-13" d="M29.3,36.9V35.7h2.5V20.9H29.3V19.7h8.6A10.25,10.25,0,0,1,43,20.8a4.12,4.12,0,0,1,1.9,3.6A3.91,3.91,0,0,1,43,28a9,9,0,0,1-4.9,1.2H35.6v6.4h2.7v1.2Zm8.9-8.7a2.07,2.07,0,0,0,1.9-.9,5.5,5.5,0,0,0,.6-2.9,5,5,0,0,0-.6-2.7,2,2,0,0,0-1.9-.8H35.4v7.3Z"/><path class="cls-14" d="M16.8,20.6,11.1,37h-.7l-6-16.4h-2V20h7.9v.6H7.7l4.2,11.6,4.2-11.6H13.5V20h5.4v.6Z"/><path class="cls-15" d="M19.7,36.6V36h2.5V20.6H19.7V20h8.1v.6H25.3V36h2.5v.6Z"/><path class="cls-16" d="M42.8,27.9A8.53,8.53,0,0,1,38,29.1H35.2v7h2.7v.6H29.6V36h2.5V20.6H29.6V20h8.3a9.29,9.29,0,0,1,4.9,1.1,3.63,3.63,0,0,1,1.7,3.4A3.54,3.54,0,0,1,42.8,27.9Zm-2.4-6.3a2.4,2.4,0,0,0-2.1-1h-3v7.9h2.9a2.46,2.46,0,0,0,2.2-1,5.26,5.26,0,0,0,.7-3.1A5.28,5.28,0,0,0,40.4,21.6Z"/><polygon class="cls-17" points="13.4 28.6 13.9 28.6 16.7 20.5 18.7 20.5 18.7 20.2 13.6 20.2 13.6 20.5 16.3 20.5 13.4 28.6"/><polygon class="cls-18" points="7.4 28.6 10.4 28.6 7.5 20.5 10.1 20.5 10.1 20.2 2.5 20.2 2.5 20.5 4.5 20.5 7.4 28.6"/><polygon class="cls-19" points="22.3 28.6 25.2 28.6 25.2 20.5 27.6 20.5 27.6 20.2 19.8 20.2 19.8 20.5 22.3 20.5 22.3 28.6"/><path class="cls-20" d="M32.2,28.6h2.9V20.5h3.2a2.35,2.35,0,0,1,2.2,1,6,6,0,0,1,.7,3,5.1,5.1,0,0,1-.7,3.1,2.45,2.45,0,0,1-1.4,1H41a9.76,9.76,0,0,0,1.7-.8,3.88,3.88,0,0,0,1.7-3.3,3.67,3.67,0,0,0-1.7-3.3,9.13,9.13,0,0,0-4.8-1.1H29.8v.3h2.5v8.2Z"/><path class="cls-21" d="M9.5,29c1.2,3.9,1.2,7.4.1,7.7s-2.9-2.6-4.1-6.5-1.2-7.4-.1-7.7S8.3,25.1,9.5,29Z"/><path class="cls-22" d="M11.8,24.7c1.2,3.9,1.2,7.4,0,7.7s-3-2.6-4.2-6.5-1.2-7.4,0-7.7S10.6,20.8,11.8,24.7Z"/><path class="cls-23" d="M24.3,28c0,4.6-1,8.3-2.2,8.3s-2.2-3.7-2.2-8.3,1-8.3,2.2-8.3S24.3,23.5,24.3,28Z"/><path class="cls-24" d="M46.2,25.7c-.6,2.4-1.8,4.1-2.7,3.9s-1.3-2.3-.7-4.7,1.8-4.1,2.7-3.9S46.8,23.3,46.2,25.7Z"/><path class="cls-25" d="M36.7,26.3c0,3.5-.6,6.4-1.3,6.4S34,29.9,34,26.3s.6-6.4,1.3-6.4S36.7,22.8,36.7,26.3Z"/></g></svg>