<svg id="圖層_1" data-name="圖層 1" xmlns="http://www.w3.org/2000/svg" xmlns:xlink="http://www.w3.org/1999/xlink" viewBox="0 0 18 18"><defs><style>.cls-1{fill:url(#未命名漸層);}</style><linearGradient id="未命名漸層" x1="25.99" y1="65.01" x2="43.99" y2="65.01" gradientTransform="matrix(1, 0.01, 0.01, -1, -26.67, 73.64)" gradientUnits="userSpaceOnUse"><stop offset="0" stop-color="#563d29"/><stop offset="0.08" stop-color="#725437"/><stop offset="0.22" stop-color="#99744b"/><stop offset="0.36" stop-color="#b98e5c"/><stop offset="0.5" stop-color="#d2a369"/><stop offset="0.66" stop-color="#e4b272"/><stop offset="0.81" stop-color="#efba77"/><stop offset="1" stop-color="#f2bd79"/></linearGradient></defs><g id="kit"><path class="cls-1" d="M12.32,5a.17.17,0,0,0-.17-.17H11a.16.16,0,0,0-.15.09L9.05,8.44H9L7.25,4.89l-.06-.07a.16.16,0,0,0-.09,0H5.93l-.08,0A.18.18,0,0,0,5.78,5l2.13,4H6.72a.17.17,0,0,0-.17.17v.56a.17.17,0,0,0,.17.17l1.59,0v.81l-1.59,0a.17.17,0,0,0-.17.17v.57a.17.17,0,0,0,.17.17l1.59,0V13a.17.17,0,0,0,.17.17h1A.17.17,0,0,0,9.66,13V11.7l1.6,0a.17.17,0,0,0,.17-.17V11a.17.17,0,0,0-.17-.17l-1.6,0V10l1.6,0a.17.17,0,0,0,.17-.17V9.25a.17.17,0,0,0-.17-.17H10.09l2.21-4a.11.11,0,0,0,0-.06ZM1.59,8.76A7.41,7.41,0,0,1,11.94,2.21a7.53,7.53,0,0,1,2.34,1.61,7.21,7.21,0,0,1,.58.66l-1.06.81a.2.2,0,0,0-.06.07.28.28,0,0,0,0,.09.2.2,0,0,0,0,.08l.08,0,3.27.84a.17.17,0,0,0,.21-.16l.05-3.38a.17.17,0,0,0-.27-.13l-1,.77A9,9,0,0,0,0,8.73.15.15,0,0,0,0,8.8l0,.06a.09.09,0,0,0,.05,0l.07,0H1.43A.16.16,0,0,0,1.59,8.76Zm16.24.33H16.57a.17.17,0,0,0-.17.16A7.4,7.4,0,0,1,3.71,14.18a7.21,7.21,0,0,1-.58-.66l1-.81a.2.2,0,0,0,.06-.07.28.28,0,0,0,0-.09.2.2,0,0,0,0-.08l-.08-.05L.86,11.58a.17.17,0,0,0-.21.16L.6,15.12a.17.17,0,0,0,.27.13l1-.77A9,9,0,0,0,18,9.27a.2.2,0,0,0,0-.07l0-.06-.05,0Z"/></g></svg>