<?xml version="1.0" encoding="utf-8"?>
<!-- Generator: Adobe Illustrator 25.2.3, SVG Export Plug-In . SVG Version: 6.00 Build 0)  -->
<svg version="1.1" id="圖層_1" xmlns="http://www.w3.org/2000/svg" xmlns:xlink="http://www.w3.org/1999/xlink" x="0px" y="0px"
	 viewBox="0 0 22.8 22.8" style="enable-background:new 0 0 22.8 22.8;" xml:space="preserve">
<style type="text/css">
	.st0{fill:#F2BD79;}
	.st1{fill:#FBE2B0;}
</style>
<g>
	<g>
		<path class="st1" d="M19.46,3.34C17.31,1.19,14.45,0,11.4,0C8.36,0,5.49,1.19,3.34,3.34C1.19,5.49,0,8.36,0,11.4
			c0,3.05,1.19,5.91,3.34,8.06c2.15,2.15,5.02,3.34,8.06,3.34c3.05,0,5.91-1.19,8.06-3.34c2.15-2.15,3.34-5.02,3.34-8.06
			C22.8,8.36,21.62,5.49,19.46,3.34z M15.7,1.35c2.58,1.11,4.65,3.18,5.76,5.76l-2.94,2.2C17.8,6.9,15.9,5,13.5,4.29L15.7,1.35z
			 M7.11,1.35l2.2,2.94C6.9,5,5,6.9,4.29,9.3l-2.94-2.2C2.45,4.53,4.53,2.45,7.11,1.35z M7.11,21.46c-2.58-1.11-4.65-3.18-5.76-5.76
			l2.94-2.2C5,15.9,6.9,17.8,9.3,18.51L7.11,21.46z M4.46,11.4c0-3.83,3.12-6.94,6.94-6.94c3.83,0,6.95,3.12,6.95,6.94
			c0,3.83-3.12,6.95-6.95,6.95C7.57,18.35,4.46,15.23,4.46,11.4z M15.7,21.46l-2.2-2.94c2.4-0.71,4.3-2.61,5.01-5.01l2.94,2.2
			C20.35,18.28,18.28,20.35,15.7,21.46z"/>
		<g>
			<g>
				<path class="st1" d="M11.93,16.45h-0.92c-0.35,0-0.38-0.22-0.38-0.91C9.3,15.22,8.6,14.24,8.6,12.7c0-0.19,0.13-0.35,0.33-0.39
					l0.04-0.01l1.51-0.08c-0.11-0.08-0.23-0.17-0.35-0.26c-0.85-0.61-1.31-1.47-1.31-2.42c0-0.95,0.57-2.08,1.82-2.45V6.62
					c0-0.22,0.16-0.4,0.37-0.4h0.93c0.35,0,0.38,0.21,0.38,0.89c1.14,0.33,1.88,1.33,1.88,2.55c0,0.22-0.15,0.39-0.38,0.42l-0.03,0
					l-1.53,0.08c0.18,0.14,0.39,0.3,0.61,0.47l0.01,0.01c0.86,0.65,1.32,1.46,1.32,2.32c0,1.31-0.7,2.27-1.89,2.59v0.51
					C12.31,16.28,12.14,16.45,11.93,16.45z M11.2,15.89h0.55V15.1l0.23-0.04c1.06-0.21,1.67-0.97,1.67-2.09
					c0-0.69-0.37-1.32-1.1-1.87l-0.01-0.01c-0.94-0.72-1.37-1.04-1.37-1.48c0-0.27,0.19-0.47,0.45-0.47c0.2,0,0.32,0.18,0.46,0.38
					c0.02,0.03,0.05,0.07,0.07,0.1l1.49-0.08c-0.06-0.96-0.71-1.72-1.65-1.92l-0.23-0.05V7.33c0-0.23,0-0.42,0-0.54h-0.55v0.76
					L10.97,7.6C9.87,7.82,9.38,8.77,9.38,9.55c0,0.98,0.59,1.6,1.08,1.96c1.01,0.73,1.43,1.08,1.43,1.56c0,0.32-0.24,0.56-0.56,0.56
					c-0.19,0-0.65-0.08-0.84-0.85l-1.32,0.07c0.04,1.26,0.63,1.97,1.8,2.18l0.23,0.04v0.24C11.19,15.56,11.19,15.76,11.2,15.89z
					 M11.03,12.66c0.04,0.15,0.13,0.4,0.29,0.4C11.31,12.96,11.21,12.83,11.03,12.66z"/>
			</g>
		</g>
	</g>
</g>
</svg>
