<svg id="圖層_1" data-name="圖層 1" xmlns="http://www.w3.org/2000/svg" xmlns:xlink="http://www.w3.org/1999/xlink" viewBox="0 0 21.98 22"><defs><style>.cls-1{fill:url(#未命名漸層);}.cls-2{fill:url(#未命名漸層_2);}.cls-3{fill:url(#未命名漸層_3);}.cls-4{fill:url(#未命名漸層_4);}</style><linearGradient id="未命名漸層" x1="13.69" y1="6.18" x2="21.98" y2="6.18" gradientTransform="matrix(1, 0, 0, -1, 0, 24)" gradientUnits="userSpaceOnUse"><stop offset="0" stop-color="#563d29"/><stop offset="1" stop-color="#f2bd79"/></linearGradient><linearGradient id="未命名漸層_2" x1="0" y1="6.18" x2="8.29" y2="6.18" xlink:href="#未命名漸層"/><linearGradient id="未命名漸層_3" x1="0" y1="19.84" x2="8.29" y2="19.84" xlink:href="#未命名漸層"/><linearGradient id="未命名漸層_4" x1="13.69" y1="19.84" x2="21.98" y2="19.84" xlink:href="#未命名漸層"/></defs><g id="kit"><path class="cls-1" d="M19.11,17.47,15.62,14a1.13,1.13,0,0,0-1.6,1.6l3.5,3.5-2.16,2.17a.4.4,0,0,0,.29.68l5.93.06a.4.4,0,0,0,.4-.4v-6a.4.4,0,0,0-.68-.28Z" transform="translate(0 0.01)"/><path class="cls-2" d="M2.87,17.47,6.36,14A1.13,1.13,0,0,1,8,15.58l-3.5,3.5,2.16,2.17a.4.4,0,0,1-.29.68L.4,22a.4.4,0,0,1-.4-.4v-6a.4.4,0,0,1,.68-.28Z" transform="translate(0 0.01)"/><path class="cls-3" d="M2.87,4.51,6.36,8A1.13,1.13,0,0,0,8,6.4L4.46,2.9,6.62.73A.4.4,0,0,0,6.33.05L.4,0A.4.4,0,0,0,0,.4v6a.4.4,0,0,0,.68.28Z" transform="translate(0 0.01)"/><path class="cls-4" d="M19.11,4.51,15.62,8A1.13,1.13,0,0,1,14,6.4l3.5-3.5L15.36.73a.4.4,0,0,1,.29-.68L21.58,0a.4.4,0,0,1,.4.4v6a.4.4,0,0,1-.68.28Z" transform="translate(0 0.01)"/></g></svg>