<?xml version="1.0" encoding="utf-8"?>
<!-- Generator: Adobe Illustrator 16.0.0, SVG Export Plug-In . SVG Version: 6.00 Build 0)  -->
<!DOCTYPE svg PUBLIC "-//W3C//DTD SVG 1.1//EN" "http://www.w3.org/Graphics/SVG/1.1/DTD/svg11.dtd">
<svg version="1.1" id="Layer_1" xmlns="http://www.w3.org/2000/svg" xmlns:xlink="http://www.w3.org/1999/xlink" x="0px" y="0px"
	 width="29.735px" height="27.5px" viewBox="0 0 29.735 27.5" enable-background="new 0 0 29.735 27.5" xml:space="preserve">
<g>
	<g>
		<defs>
			<rect id="SVGID_1_" y="-0.093" width="29.735" height="27.593"/>
		</defs>
		<clipPath id="SVGID_2_">
			<use xlink:href="#SVGID_1_"  overflow="visible"/>
		</clipPath>
		<g clip-path="url(#SVGID_2_)">
			<g>
				<defs>
					<rect id="SVGID_3_" y="-0.093" width="29.735" height="27.593"/>
				</defs>
				<defs>
					<rect id="SVGID_4_" y="-0.093" width="29.735" height="27.593"/>
				</defs>
				<clipPath id="SVGID_5_">
					<use xlink:href="#SVGID_3_"  overflow="visible"/>
				</clipPath>
				<clipPath id="SVGID_6_" clip-path="url(#SVGID_5_)">
					<use xlink:href="#SVGID_4_"  overflow="visible"/>
				</clipPath>
				<path clip-path="url(#SVGID_6_)" fill="#45424C" d="M24.818,10.99V3.264c-4.274-1.509-10.218-1.259-10.218-1.259
					S8.655,1.754,4.384,3.264v7.727c0,0-0.745,9.236,10.217,13.768C25.562,20.225,24.818,10.99,24.818,10.99"/>
				<g clip-path="url(#SVGID_6_)">
					<g opacity="0.6">
						<g>
							<defs>
								<rect id="SVGID_7_" x="4.373" y="1.989" width="20.456" height="22.77"/>
							</defs>
							<clipPath id="SVGID_8_">
								<use xlink:href="#SVGID_7_"  overflow="visible"/>
							</clipPath>
							<path clip-path="url(#SVGID_8_)" fill="#2F2D34" d="M24.818,3.264c-4.274-1.512-10.218-1.26-10.218-1.26
								S8.655,1.752,4.384,3.264v7.727c0,0-0.745,9.236,10.217,13.768c10.961-4.532,10.218-13.768,10.218-13.768V3.264z"/>
						</g>
					</g>
					<g>
						<defs>
							<rect id="SVGID_9_" y="-0.093" width="29.735" height="27.593"/>
						</defs>
						<clipPath id="SVGID_10_">
							<use xlink:href="#SVGID_9_"  overflow="visible"/>
						</clipPath>
						<path clip-path="url(#SVGID_10_)" fill="#E4C87A" d="M24.818,3.264c-4.274-1.512-10.218-1.26-10.218-1.26
							S8.655,1.752,4.384,3.264v7.727c0,0-0.745,9.236,10.217,13.768c10.961-4.532,10.218-13.768,10.218-13.768V3.264z"/>
					</g>
					<g>
						<defs>
							<rect id="SVGID_11_" y="-0.093" width="29.735" height="27.593"/>
						</defs>
						<clipPath id="SVGID_12_">
							<use xlink:href="#SVGID_11_"  overflow="visible"/>
						</clipPath>
						<g clip-path="url(#SVGID_12_)">
							<g>
								<defs>
									<path id="SVGID_13_" d="M14.602,0.824c0,0-6.712-0.283-11.534,1.422v8.719c0,0-0.838,10.424,11.534,15.541
										c12.371-5.116,11.53-15.541,11.53-15.541V2.247c-3.62-1.279-8.3-1.44-10.41-1.44C15.019,0.807,14.602,0.824,14.602,0.824"
										/>
								</defs>
								<clipPath id="SVGID_14_">
									<use xlink:href="#SVGID_13_"  overflow="visible"/>
								</clipPath>
								
									<linearGradient id="SVGID_15_" gradientUnits="userSpaceOnUse" x1="24.3037" y1="-8.5352" x2="25.9189" y2="-8.5352" gradientTransform="matrix(0 15.912 -15.912 0 -121.2027 -385.9155)">
									<stop  offset="0" style="stop-color:#F83841"/>
									<stop  offset="0.1787" style="stop-color:#F43740"/>
									<stop  offset="0.342" style="stop-color:#E9343C"/>
									<stop  offset="0.4994" style="stop-color:#D73037"/>
									<stop  offset="0.6532" style="stop-color:#BD292F"/>
									<stop  offset="0.8043" style="stop-color:#9B2124"/>
									<stop  offset="0.9515" style="stop-color:#721718"/>
									<stop  offset="1" style="stop-color:#631313"/>
								</linearGradient>
								<rect x="2.229" y="0.542" clip-path="url(#SVGID_14_)" fill="url(#SVGID_15_)" width="24.743" height="25.966"/>
							</g>
							<g>
								<defs>
									<rect id="SVGID_16_" y="-0.093" width="29.735" height="27.593"/>
								</defs>
								<clipPath id="SVGID_17_">
									<use xlink:href="#SVGID_16_"  overflow="visible"/>
								</clipPath>
								<g clip-path="url(#SVGID_17_)">
									<g>
										<defs>
											<path id="SVGID_18_" d="M15.725,0.807c2.114,0,6.791,0.16,10.407,1.44v8.719c0,0,0.841,10.423-11.53,15.542
												C2.229,21.39,3.066,10.966,3.066,10.966V2.247c3.619-1.279,8.295-1.44,10.41-1.44c0.702,0,1.124,0.017,1.124,0.017
												S15.02,0.807,15.725,0.807 M15.386-0.093c-0.406,0.003-0.683,0.013-0.785,0.016c-0.107-0.003-0.38-0.013-0.787-0.016
												h-0.72C7.64-0.053,4.255,0.859,2.703,1.407L2.072,1.631v0.616v8.69c-0.025,0.355-0.139,2.975,1.19,6.195
												c0.817,1.987,2.021,3.802,3.571,5.386c1.928,1.972,4.403,3.59,7.353,4.811l0.416,0.17l0.414-0.17
												c2.95-1.221,5.424-2.839,7.354-4.811c1.55-1.584,2.753-3.399,3.571-5.386c1.325-3.221,1.213-5.84,1.192-6.195v-8.69
												V1.631l-0.637-0.224c-1.547-0.548-4.935-1.46-10.389-1.5H15.386z"/>
										</defs>
										<clipPath id="SVGID_19_">
											<use xlink:href="#SVGID_18_"  overflow="visible"/>
										</clipPath>
										
											<linearGradient id="SVGID_20_" gradientUnits="userSpaceOnUse" x1="19.1016" y1="35.127" x2="20.7166" y2="35.127" gradientTransform="matrix(15.5311 0 0 15.5311 -294.6093 -531.8475)">
											<stop  offset="0" style="stop-color:#A0662A"/>
											<stop  offset="0.0112" style="stop-color:#A56E32"/>
											<stop  offset="0.0782" style="stop-color:#C09A5F"/>
											<stop  offset="0.1457" style="stop-color:#D7BE85"/>
											<stop  offset="0.2126" style="stop-color:#E8DBA2"/>
											<stop  offset="0.2788" style="stop-color:#F5EFB6"/>
											<stop  offset="0.344" style="stop-color:#FCFBC3"/>
											<stop  offset="0.4071" style="stop-color:#FFFFC7"/>
											<stop  offset="0.5782" style="stop-color:#FAEDA2"/>
											<stop  offset="0.7431" style="stop-color:#F6DE85"/>
											<stop  offset="0.837" style="stop-color:#F4D97A"/>
											<stop  offset="0.8759" style="stop-color:#F2D677"/>
											<stop  offset="0.9085" style="stop-color:#EBCB6D"/>
											<stop  offset="0.9387" style="stop-color:#DFBA5D"/>
											<stop  offset="0.9675" style="stop-color:#CFA247"/>
											<stop  offset="0.9951" style="stop-color:#BA822A"/>
											<stop  offset="1" style="stop-color:#B67C24"/>
										</linearGradient>
										<rect x="1.933" y="-0.093" clip-path="url(#SVGID_19_)" fill="url(#SVGID_20_)" width="25.333" height="27.593"/>
									</g>
									<g>
										<defs>
											<rect id="SVGID_21_" y="-0.093" width="29.735" height="27.593"/>
										</defs>
										<clipPath id="SVGID_22_">
											<use xlink:href="#SVGID_21_"  overflow="visible"/>
										</clipPath>
										<g clip-path="url(#SVGID_22_)">
											<g>
												<defs>
													<rect id="SVGID_23_" y="-0.093" width="29.735" height="27.593"/>
												</defs>
												<clipPath id="SVGID_24_">
													<use xlink:href="#SVGID_23_"  overflow="visible"/>
												</clipPath>
												<g clip-path="url(#SVGID_24_)">
													<g opacity="0.5">
														<g>
															<defs>
																<rect id="SVGID_25_" x="3.056" y="0.807" width="23.088" height="25.701"/>
															</defs>
															<clipPath id="SVGID_26_">
																<use xlink:href="#SVGID_25_"  overflow="visible"/>
															</clipPath>
															<path clip-path="url(#SVGID_26_)" fill="#CEA64E" d="M26.134,10.964V2.246c-4.823-1.706-11.533-1.42-11.533-1.42
																S7.891,0.541,3.067,2.246v8.718c0,0-0.84,10.425,11.533,15.543C26.973,21.39,26.134,10.964,26.134,10.964
																 M14.601,24.759C3.64,20.225,4.382,10.99,4.382,10.99V3.264c4.272-1.512,10.218-1.26,10.218-1.26
																s5.944-0.252,10.218,1.26v7.727C24.818,10.99,25.562,20.225,14.601,24.759"/>
														</g>
													</g>
												</g>
											</g>
											<g>
												<defs>
													<rect id="SVGID_27_" y="-0.093" width="29.735" height="27.593"/>
												</defs>
												<clipPath id="SVGID_28_">
													<use xlink:href="#SVGID_27_"  overflow="visible"/>
												</clipPath>
												<g clip-path="url(#SVGID_28_)">
													<g>
														<defs>
															<path id="SVGID_29_" d="M3.324,10.272h1.759c0.695,0,1.05,0.324,1.05,0.952c0,0.635-0.402,1.039-1.062,1.039H3.324
																V10.272z M1.099,10.003v6.018c0,0.831-0.022,1.166-0.09,1.68h2.405c-0.066-0.514-0.09-0.929-0.09-1.691v-1.833h1.144
																c0.357,0,0.638,0.088,0.873,0.301c0.279,0.247,0.414,0.503,0.772,1.475c0.347,0.929,0.479,1.39,0.547,1.748h2.618
																c-0.28-0.592-0.416-0.872-0.537-1.186c-0.504-1.207-0.66-1.591-0.83-1.947c-0.359-0.796-0.615-1.054-1.187-1.233
																c0.551-0.177,0.784-0.302,1.062-0.556c0.438-0.419,0.663-1.043,0.663-1.837c0-1.61-1.053-2.552-2.865-2.552H2.675
																c-0.761,0-1.174-0.01-1.667-0.032C1.076,8.896,1.099,9.31,1.099,10.003"/>
														</defs>
														<clipPath id="SVGID_30_">
															<use xlink:href="#SVGID_29_"  overflow="visible"/>
														</clipPath>
														
															<linearGradient id="SVGID_31_" gradientUnits="userSpaceOnUse" x1="17.291" y1="32.7461" x2="18.9071" y2="32.7461" gradientTransform="matrix(17.1567 0 0 17.1567 -295.6642 -548.7857)">
															<stop  offset="0" style="stop-color:#311113"/>
															<stop  offset="0.663" style="stop-color:#751113"/>
															<stop  offset="1" style="stop-color:#311113"/>
														</linearGradient>
														<rect x="1.01" y="8.359" clip-path="url(#SVGID_30_)" fill="url(#SVGID_31_)" width="8.269" height="9.343"/>
													</g>
													<g>
														<defs>
															<rect id="SVGID_32_" y="-0.093" width="29.735" height="27.593"/>
														</defs>
														<clipPath id="SVGID_33_">
															<use xlink:href="#SVGID_32_"  overflow="visible"/>
														</clipPath>
														<g clip-path="url(#SVGID_33_)">
															<g>
																<defs>
																	<path id="SVGID_34_" d="M10.764,10.978c0,0.904,0.379,1.655,1.085,2.147c0.413,0.292,0.773,0.425,1.802,0.649
																		c1.163,0.271,1.442,0.346,1.676,0.461c0.293,0.133,0.474,0.437,0.474,0.781c0,0.629-0.517,1.009-1.377,1.009
																		c-0.571,0-1.041-0.19-1.309-0.526c-0.167-0.221-0.247-0.425-0.292-0.825l-2.328,0.22
																		c0.079,0.517,0.134,0.771,0.246,1.039c0.236,0.64,0.65,1.119,1.208,1.431c0.606,0.349,1.546,0.55,2.497,0.55
																		c1.309,0,2.295-0.323,2.942-0.95c0.515-0.503,0.787-1.221,0.787-2.06c0-1.027-0.403-1.778-1.211-2.279
																		c-0.424-0.269-0.963-0.463-1.812-0.64c-1.32-0.268-1.32-0.268-1.545-0.368c-0.357-0.169-0.525-0.404-0.525-0.716
																		c0-0.518,0.504-0.887,1.188-0.887c0.85,0,1.252,0.304,1.385,1.031l2.372-0.256
																		c-0.145-0.637-0.278-0.973-0.558-1.342c-0.605-0.84-1.691-1.276-3.111-1.276
																		C12.151,8.167,10.764,9.251,10.764,10.978"/>
																</defs>
																<clipPath id="SVGID_35_">
																	<use xlink:href="#SVGID_34_"  overflow="visible"/>
																</clipPath>
																
																	<linearGradient id="SVGID_36_" gradientUnits="userSpaceOnUse" x1="17.292" y1="32.7461" x2="18.9065" y2="32.7461" gradientTransform="matrix(17.1567 0 0 17.1567 -295.6642 -548.7857)">
																	<stop  offset="0" style="stop-color:#311113"/>
																	<stop  offset="0.663" style="stop-color:#751113"/>
																	<stop  offset="1" style="stop-color:#311113"/>
																</linearGradient>
																<rect x="10.496" y="8.167" clip-path="url(#SVGID_35_)" fill="url(#SVGID_36_)" width="7.677" height="9.745"/>
															</g>
															<g>
																<defs>
																	<rect id="SVGID_37_" y="-0.093" width="29.735" height="27.593"/>
																</defs>
																<clipPath id="SVGID_38_">
																	<use xlink:href="#SVGID_37_"  overflow="visible"/>
																</clipPath>
																<g clip-path="url(#SVGID_38_)">
																	<g>
																		<defs>
																			<path id="SVGID_39_" d="M26.091,8.391c-0.032,0.381-0.11,0.695-0.257,1.208l-1.621,5.383
																				c-0.058,0.215-0.079,0.278-0.214,0.772c-0.122-0.469-0.122-0.469-0.212-0.772l-1.625-5.383
																				c-0.122-0.412-0.222-0.85-0.266-1.208h-2.621c0.191,0.438,0.306,0.717,0.529,1.367l2.382,6.733
																				c0.19,0.537,0.301,0.917,0.36,1.211h2.906c0.058-0.281,0.17-0.661,0.359-1.211l2.372-6.733
																				c0.278-0.772,0.378-1.031,0.536-1.367H26.091z"/>
																		</defs>
																		<clipPath id="SVGID_40_">
																			<use xlink:href="#SVGID_39_"  overflow="visible"/>
																		</clipPath>
																		
																			<linearGradient id="SVGID_41_" gradientUnits="userSpaceOnUse" x1="17.2939" y1="32.7471" x2="18.9071" y2="32.7471" gradientTransform="matrix(17.1567 0 0 17.1567 -295.6642 -548.7857)">
																			<stop  offset="0" style="stop-color:#311113"/>
																			<stop  offset="0.663" style="stop-color:#751113"/>
																			<stop  offset="1" style="stop-color:#311113"/>
																		</linearGradient>
																		<rect x="19.274" y="8.391" clip-path="url(#SVGID_40_)" fill="url(#SVGID_41_)" width="9.446" height="9.31"/>
																	</g>
																	<g>
																		<defs>
																			<rect id="SVGID_42_" y="-0.093" width="29.735" height="27.593"/>
																		</defs>
																		<clipPath id="SVGID_43_">
																			<use xlink:href="#SVGID_42_"  overflow="visible"/>
																		</clipPath>
																		<g clip-path="url(#SVGID_43_)">
																			<g>
																				<defs>
																					<path id="SVGID_44_" d="M3.324,10.272v1.991H5.07c0.659,0,1.062-0.404,1.062-1.039
																						c0-0.628-0.357-0.952-1.051-0.952H3.324z M1.099,16.021v-6.017c0-0.694-0.022-1.108-0.09-1.645
																						c0.493,0.022,0.906,0.032,1.667,0.032h2.908c1.812,0,2.866,0.942,2.866,2.552c0,0.793-0.226,1.418-0.663,1.836
																						c-0.279,0.253-0.511,0.379-1.062,0.556c0.572,0.179,0.828,0.437,1.187,1.233
																						c0.169,0.356,0.326,0.74,0.83,1.947c0.12,0.313,0.256,0.594,0.536,1.186H6.66
																						c-0.068-0.358-0.201-0.819-0.547-1.748c-0.359-0.972-0.493-1.228-0.772-1.475
																						c-0.235-0.213-0.515-0.301-0.873-0.301H3.324v1.833c0,0.763,0.025,1.178,0.09,1.691H1.01
																						C1.076,17.188,1.099,16.853,1.099,16.021 M1.01,7.349c-0.281,0-0.55,0.118-0.741,0.326
																						C0.098,7.854,0.006,8.09,0,8.334v0.05C0,8.417,0.003,8.45,0.008,8.483c0.062,0.492,0.081,0.862,0.081,1.521
																						v6.018c0,0.793-0.021,1.084-0.081,1.549c-0.037,0.287,0.052,0.578,0.242,0.794
																						c0.193,0.222,0.469,0.346,0.759,0.346h2.405c0.29,0,0.566-0.124,0.759-0.346
																						c0.191-0.216,0.279-0.508,0.241-0.794c-0.062-0.473-0.079-0.849-0.079-1.561v-0.826h0.131
																						c0.147,0,0.179,0.027,0.195,0.042c0.101,0.089,0.18,0.201,0.501,1.078c0.367,0.979,0.461,1.349,0.503,1.583
																						c0.09,0.478,0.507,0.824,0.994,0.824h2.618c0.346,0,0.668-0.179,0.854-0.469
																						c0.185-0.293,0.206-0.659,0.06-0.972l-0.067-0.136c-0.221-0.473-0.337-0.718-0.444-0.988l-0.104-0.249
																						c-0.438-1.054-0.589-1.415-0.751-1.758c-0.105-0.232-0.211-0.445-0.333-0.638
																						c0.451-0.437,0.964-1.221,0.964-2.557c0-2.163-1.52-3.562-3.873-3.562H2.675c-0.74,0-1.144-0.009-1.624-0.033
																						C1.038,7.349,1.025,7.349,1.01,7.349"/>
																				</defs>
																				<clipPath id="SVGID_45_">
																					<use xlink:href="#SVGID_44_"  overflow="visible"/>
																				</clipPath>
																				
																					<linearGradient id="SVGID_46_" gradientUnits="userSpaceOnUse" x1="46.0986" y1="70.9941" x2="47.713" y2="70.9941" gradientTransform="matrix(6.3688 0 0 6.3688 -293.5922 -439.124)">
																					<stop  offset="0" style="stop-color:#A0662A"/>
																					<stop  offset="0.0112" style="stop-color:#A56E32"/>
																					<stop  offset="0.0782" style="stop-color:#C09A5F"/>
																					<stop  offset="0.1457" style="stop-color:#D7BE85"/>
																					<stop  offset="0.2126" style="stop-color:#E8DBA2"/>
																					<stop  offset="0.2788" style="stop-color:#F5EFB6"/>
																					<stop  offset="0.344" style="stop-color:#FCFBC3"/>
																					<stop  offset="0.4071" style="stop-color:#FFFFC7"/>
																					<stop  offset="0.5782" style="stop-color:#FAEDA2"/>
																					<stop  offset="0.7431" style="stop-color:#F6DE85"/>
																					<stop  offset="0.837" style="stop-color:#F4D97A"/>
																					<stop  offset="0.8759" style="stop-color:#F2D677"/>
																					<stop  offset="0.9085" style="stop-color:#EBCB6D"/>
																					<stop  offset="0.9387" style="stop-color:#DFBA5D"/>
																					<stop  offset="0.9675" style="stop-color:#CFA247"/>
																					<stop  offset="0.9951" style="stop-color:#BA822A"/>
																					<stop  offset="1" style="stop-color:#B67C24"/>
																				</linearGradient>
																				
																					<rect x="-0.029" y="7.349" clip-path="url(#SVGID_45_)" fill="url(#SVGID_46_)" width="10.366" height="11.362"/>
																			</g>
																			<g>
																				<defs>
																					<rect id="SVGID_47_" y="-0.093" width="29.735" height="27.593"/>
																				</defs>
																				<clipPath id="SVGID_48_">
																					<use xlink:href="#SVGID_47_"  overflow="visible"/>
																				</clipPath>
																				<g clip-path="url(#SVGID_48_)">
																					<g>
																						<defs>
																							<path id="SVGID_49_" d="M13.905,14.869c0.249,0.059,0.437,0.105,0.582,0.144c-0.021,0-0.042,0-0.063,0
																								C14.108,15.013,13.946,14.92,13.905,14.869 M15.801,15.015c0-0.344-0.182-0.648-0.474-0.781
																								c-0.234-0.114-0.514-0.19-1.676-0.461c-1.029-0.224-1.39-0.357-1.802-0.649
																								c-0.706-0.492-1.085-1.243-1.085-2.147c0-1.725,1.387-2.81,3.591-2.81c1.42,0,2.507,0.436,3.112,1.276
																								c0.279,0.37,0.413,0.705,0.558,1.342l-2.372,0.256c-0.133-0.726-0.535-1.03-1.386-1.03
																								c-0.683,0-1.187,0.369-1.187,0.886c0,0.312,0.167,0.547,0.525,0.715c0.225,0.1,0.225,0.1,1.544,0.368
																								c0.85,0.177,1.389,0.372,1.812,0.64c0.807,0.503,1.211,1.252,1.211,2.28c0,0.839-0.272,1.557-0.787,2.06
																								c-0.647,0.627-1.634,0.95-2.942,0.95c-0.95,0-1.891-0.201-2.497-0.55c-0.559-0.312-0.972-0.792-1.208-1.431
																								c-0.111-0.269-0.166-0.522-0.246-1.039l2.327-0.223c0.046,0.401,0.124,0.605,0.292,0.827
																								c0.268,0.336,0.739,0.524,1.31,0.524C15.285,16.021,15.801,15.644,15.801,15.015 M9.754,10.978
																								c0,1.155,0.474,2.158,1.34,2.845L10.4,13.887c-0.277,0.025-0.53,0.165-0.701,0.383
																								c-0.17,0.22-0.243,0.5-0.2,0.773c0.082,0.554,0.153,0.901,0.31,1.28c0.298,0.811,0.872,1.488,1.647,1.922
																								c0.746,0.428,1.838,0.678,2.988,0.678c1.569,0,2.794-0.415,3.644-1.235c0.716-0.701,1.093-1.663,1.093-2.785
																								c0-1.31-0.538-2.365-1.562-3.057l0.515-0.055c0.288-0.031,0.547-0.184,0.715-0.418
																								c0.167-0.235,0.224-0.53,0.16-0.81c-0.154-0.682-0.325-1.183-0.739-1.727
																								c-0.543-0.755-1.675-1.678-3.914-1.678C11.603,7.156,9.754,8.693,9.754,10.978"/>
																						</defs>
																						<clipPath id="SVGID_50_">
																							<use xlink:href="#SVGID_49_"  overflow="visible"/>
																						</clipPath>
																						
																							<linearGradient id="SVGID_51_" gradientUnits="userSpaceOnUse" x1="49.502" y1="74.7109" x2="51.118" y2="74.7109" gradientTransform="matrix(6.0021 0 0 6.0021 -287.6255 -435.3853)">
																							<stop  offset="0" style="stop-color:#A0662A"/>
																							<stop  offset="0.0112" style="stop-color:#A56E32"/>
																							<stop  offset="0.0782" style="stop-color:#C09A5F"/>
																							<stop  offset="0.1457" style="stop-color:#D7BE85"/>
																							<stop  offset="0.2126" style="stop-color:#E8DBA2"/>
																							<stop  offset="0.2788" style="stop-color:#F5EFB6"/>
																							<stop  offset="0.344" style="stop-color:#FCFBC3"/>
																							<stop  offset="0.4071" style="stop-color:#FFFFC7"/>
																							<stop  offset="0.5782" style="stop-color:#FAEDA2"/>
																							<stop  offset="0.7431" style="stop-color:#F6DE85"/>
																							<stop  offset="0.837" style="stop-color:#F4D97A"/>
																							<stop  offset="0.8759" style="stop-color:#F2D677"/>
																							<stop  offset="0.9085" style="stop-color:#EBCB6D"/>
																							<stop  offset="0.9387" style="stop-color:#DFBA5D"/>
																							<stop  offset="0.9675" style="stop-color:#CFA247"/>
																							<stop  offset="0.9951" style="stop-color:#BA822A"/>
																							<stop  offset="1" style="stop-color:#B67C24"/>
																						</linearGradient>
																						
																							<rect x="9.457" y="7.156" clip-path="url(#SVGID_50_)" fill="url(#SVGID_51_)" width="9.724" height="11.766"/>
																					</g>
																					<g>
																						<defs>
																							<rect id="SVGID_52_" y="-0.093" width="29.735" height="27.593"/>
																						</defs>
																						<clipPath id="SVGID_53_">
																							<use xlink:href="#SVGID_52_"  overflow="visible"/>
																						</clipPath>
																						<g clip-path="url(#SVGID_53_)">
																							<g>
																								<defs>
																									<path id="SVGID_54_" d="M28.729,9.401h-0.009H28.729z M24.213,14.981l1.621-5.383
																										c0.148-0.513,0.225-0.827,0.257-1.208h2.633c-0.159,0.336-0.259,0.595-0.539,1.367l-2.371,6.733
																										c-0.189,0.55-0.3,0.93-0.358,1.211h-2.908c-0.059-0.294-0.17-0.674-0.36-1.211l-2.382-6.733
																										c-0.224-0.65-0.337-0.928-0.528-1.367h2.621c0.044,0.359,0.144,0.796,0.266,1.208l1.626,5.383
																										c0.089,0.304,0.089,0.304,0.212,0.772C24.132,15.26,24.155,15.196,24.213,14.981 M28.729,8.391h-0.009
																										H28.729z M28.721,7.382h-2.63c-0.521,0-0.958,0.399-1.004,0.919c-0.027,0.294-0.089,0.542-0.224,1.021
																										l-0.864,2.867l-0.87-2.883c-0.112-0.376-0.198-0.757-0.233-1.042c-0.064-0.504-0.491-0.883-1.001-0.883
																										h-2.621c-0.34,0-0.655,0.17-0.842,0.457c-0.185,0.284-0.218,0.642-0.082,0.956
																										c0.184,0.426,0.287,0.683,0.499,1.29l2.386,6.745c0.169,0.473,0.274,0.821,0.317,1.062
																										c0.092,0.474,0.509,0.819,0.991,0.819h2.909c0.481,0,0.893-0.339,0.989-0.813
																										c0.047-0.235,0.152-0.585,0.321-1.074l2.37-6.731c0.247-0.681,0.346-0.935,0.472-1.207
																										c0.083-0.146,0.131-0.314,0.131-0.493c0-0.557-0.45-1.009-1.006-1.009H28.721z"/>
																								</defs>
																								<clipPath id="SVGID_55_">
																									<use xlink:href="#SVGID_54_"  overflow="visible"/>
																								</clipPath>
																								
																									<linearGradient id="SVGID_56_" gradientUnits="userSpaceOnUse" x1="42.3604" y1="64.7363" x2="43.9763" y2="64.7363" gradientTransform="matrix(7.0993 0 0 7.0993 -282.4662 -446.5341)">
																									<stop  offset="0" style="stop-color:#A0662A"/>
																									<stop  offset="0.0112" style="stop-color:#A56E32"/>
																									<stop  offset="0.0782" style="stop-color:#C09A5F"/>
																									<stop  offset="0.1457" style="stop-color:#D7BE85"/>
																									<stop  offset="0.2126" style="stop-color:#E8DBA2"/>
																									<stop  offset="0.2788" style="stop-color:#F5EFB6"/>
																									<stop  offset="0.344" style="stop-color:#FCFBC3"/>
																									<stop  offset="0.4071" style="stop-color:#FFFFC7"/>
																									<stop  offset="0.5782" style="stop-color:#FAEDA2"/>
																									<stop  offset="0.7431" style="stop-color:#F6DE85"/>
																									<stop  offset="0.837" style="stop-color:#F4D97A"/>
																									<stop  offset="0.8759" style="stop-color:#F2D677"/>
																									<stop  offset="0.9085" style="stop-color:#EBCB6D"/>
																									<stop  offset="0.9387" style="stop-color:#DFBA5D"/>
																									<stop  offset="0.9675" style="stop-color:#CFA247"/>
																									<stop  offset="0.9951" style="stop-color:#BA822A"/>
																									<stop  offset="1" style="stop-color:#B67C24"/>
																								</linearGradient>
																								
																									<rect x="18.216" y="7.382" clip-path="url(#SVGID_55_)" fill="url(#SVGID_56_)" width="11.52" height="11.329"/>
																							</g>
																						</g>
																					</g>
																				</g>
																			</g>
																		</g>
																	</g>
																</g>
															</g>
														</g>
													</g>
												</g>
											</g>
										</g>
									</g>
								</g>
							</g>
						</g>
					</g>
				</g>
			</g>
		</g>
	</g>
</g>
</svg>
