<svg id="圖層_1" data-name="圖層 1" xmlns="http://www.w3.org/2000/svg" xmlns:xlink="http://www.w3.org/1999/xlink" viewBox="0 0 24.4 21.41"><defs><style>.cls-1{fill:url(#未命名漸層);}</style><linearGradient id="未命名漸層" y1="13.29" x2="24.4" y2="13.29" gradientTransform="matrix(1, 0, 0, -1, 0, 24)" gradientUnits="userSpaceOnUse"><stop offset="0" stop-color="#563d29"/><stop offset="0.08" stop-color="#725437"/><stop offset="0.22" stop-color="#99744b"/><stop offset="0.36" stop-color="#b98e5c"/><stop offset="0.5" stop-color="#d2a369"/><stop offset="0.66" stop-color="#e4b272"/><stop offset="0.81" stop-color="#efba77"/><stop offset="1" stop-color="#f2bd79"/></linearGradient></defs><g id="kit"><path class="cls-1" d="M13.85,0C9.93.71,6.4,2.81,1.68.7l.18.64H.73L.64,1H0l5.77,20.4h.64l-2.58-9.1H5l.21.75c4.72,2.11,8.25,0,12.17-.7C16.18,8.24,15,4.12,13.85,0ZM6.29,2.25a16.39,16.39,0,0,0,3.84-.63c.33,1.18.67,2.36,1,3.53a16.39,16.39,0,0,1-3.84.63C7,4.61,6.63,3.43,6.29,2.25ZM3.7,11.83.87,1.82H2q1.43,5,2.83,10Zm.91-3.05c-.33-1.15-.65-2.3-1-3.45A9.9,9.9,0,0,0,7.34,6c.32,1.15.65,2.3,1,3.45A9.9,9.9,0,0,1,4.61,8.78Zm8.66,3.92a16.31,16.31,0,0,1-3.84.63c-.33-1.18-.67-2.36-1-3.53a16.39,16.39,0,0,0,3.84-.63C12.6,10.35,12.93,11.53,13.27,12.7Zm2.17-4.79c-1.11.24-2.19.57-3.29.86-.33-1.15-.65-2.3-1-3.45,1.1-.29,2.18-.62,3.29-.86C14.79,5.61,15.12,6.76,15.44,7.91ZM14.92,2l.18.64a11.3,11.3,0,0,1,1.54-.14c.33,1.18.67,2.36,1,3.53a11.3,11.3,0,0,0-1.54.14l1.14,4a11.16,11.16,0,0,1,1.54-.14c.33,1.18.67,2.36,1,3.53a16.39,16.39,0,0,0-3.84.63c-.08-.28-.16-.55-.23-.83-1.3.34-2.57.74-3.9,1l.42,1.47c3.92-.71,7.45-2.81,12.17-.7Q22.65,9,20.9,2.77A10.32,10.32,0,0,0,14.92,2Zm7.46,8.27a9.9,9.9,0,0,0-3.71-.62c-.33-1.15-.65-2.3-1-3.45a9.93,9.93,0,0,1,3.71.62C21.73,8,22.05,9.13,22.38,10.28Z"/></g></svg>