<?xml version="1.0" encoding="utf-8"?>
<!-- Generator: Adobe Illustrator 25.2.3, SVG Export Plug-In . SVG Version: 6.00 Build 0)  -->
<svg version="1.1" id="圖層_1" xmlns="http://www.w3.org/2000/svg" xmlns:xlink="http://www.w3.org/1999/xlink" x="0px" y="0px"
	 viewBox="0 0 14.3 20" style="enable-background:new 0 0 14.3 20;" xml:space="preserve">
<style type="text/css">
	.st0{fill:url(#SVGID_1_);}
</style>
<g>
	<linearGradient id="SVGID_1_" gradientUnits="userSpaceOnUse" x1="0" y1="10" x2="14.3035" y2="10">
		<stop  offset="0" style="stop-color:#563D29"/>
		<stop  offset="1" style="stop-color:#F2BD79"/>
	</linearGradient>
	<path class="st0" d="M13.65,10.49c-0.44-0.65-1.14-1.2-2.1-1.63C10.59,8.41,9,7.98,6.78,7.55C5.88,7.38,5.31,7.2,5.07,7.01
		C4.82,6.82,4.7,6.61,4.7,6.37c0-0.32,0.15-0.6,0.45-0.82c0.3-0.22,0.74-0.34,1.34-0.34c0.72,0,1.28,0.15,1.69,0.45
		C8.33,5.78,8.47,5.93,8.58,6.1C9,6.71,9.76,7.07,10.56,7.03l0.09,0c2.01-0.11,2.81-2.43,1.18-3.49c-0.01-0.01-0.02-0.01-0.03-0.02
		c-0.72-0.45-1.64-0.76-2.78-0.92V0.4c0-0.22-0.2-0.4-0.44-0.4H5.73C5.48,0,5.28,0.18,5.28,0.4v2.15C4.36,2.63,3.57,2.8,2.94,3.05
		C1.96,3.43,1.22,3.96,0.73,4.64C0.24,5.31,0,6.03,0,6.78c0,1.15,0.48,2.1,1.44,2.85c0.95,0.74,2.54,1.34,4.77,1.79
		c1.36,0.27,2.23,0.55,2.6,0.85c0.37,0.3,0.56,0.64,0.56,1.03c0,0.4-0.2,0.76-0.59,1.06c-0.39,0.3-0.95,0.46-1.68,0.46
		c-0.97,0-1.72-0.3-2.24-0.89c-0.11-0.12-0.2-0.26-0.29-0.42c-0.37-0.72-1.23-1.14-2.12-1.09l-0.33,0.02
		c-1.68,0.09-2.6,1.79-1.65,3.04c0.22,0.28,0.46,0.55,0.74,0.8c0.84,0.75,2.2,1.21,4.07,1.38v1.96c0,0.22,0.2,0.4,0.44,0.4h2.85
		c0.24,0,0.44-0.18,0.44-0.4v-2.02c0.74-0.1,1.39-0.26,1.96-0.49c1.05-0.41,1.86-1.02,2.45-1.82c0.58-0.8,0.88-1.67,0.88-2.62
		C14.3,11.86,14.08,11.14,13.65,10.49z"/>
</g>
</svg>
