<?xml version="1.0" encoding="utf-8"?>
<!-- Generator: Adobe Illustrator 25.2.3, SVG Export Plug-In . SVG Version: 6.00 Build 0)  -->
<svg version="1.1" id="圖層_1" xmlns="http://www.w3.org/2000/svg" xmlns:xlink="http://www.w3.org/1999/xlink" x="0px" y="0px"
	 viewBox="0 0 44.17 25.42" style="enable-background:new 0 0 44.17 25.42;" xml:space="preserve">
<style type="text/css">
	.st0{fill:#F2BD79;}
	.st1{fill:#FBE2B0;}
</style>
<g>
	<path class="st0" d="M41.26,24.94c-1.11-0.03-7.09-0.05-8.2-0.07c-1.4-0.03-2.8-0.03-4.2-0.05l-4.2-0.02l-4.2,0.02
		c-1.4,0.02-2.8,0.02-4.2,0.05c-2.8,0.05-5.6,0.11-8.4,0.24c2.8,0.13,5.6,0.2,8.4,0.24c1.4,0.03,2.8,0.04,4.2,0.05l4.2,0.02
		l4.2-0.02c1.4-0.02,2.8-0.02,4.2-0.05c1.09-0.02,7.05-0.04,8.14-0.07C41.21,25.17,41.24,25.05,41.26,24.94z"/>
	<path class="st0" d="M11.25,7.34c-0.13,0-0.24-0.03-0.32-0.09c-0.08-0.06-0.17-0.19-0.28-0.41L9.32,4.21L9.23,4.21L8.28,6.99
		C8.19,7.23,8.11,7.4,8.04,7.48C8,7.52,7.92,7.56,7.78,7.59l0.01,0.09l1.03-0.08L8.81,7.52c-0.16,0-0.26-0.01-0.31-0.05
		C8.45,7.43,8.42,7.39,8.42,7.34c0-0.06,0.02-0.16,0.06-0.29l0.18-0.53l1.26-0.09l0.23,0.46c0.08,0.15,0.12,0.26,0.12,0.33
		c0,0.05-0.02,0.1-0.06,0.14c-0.04,0.04-0.13,0.07-0.26,0.08l0.01,0.09l1.29-0.1L11.25,7.34z M8.72,6.33L9.2,4.97l0.65,1.28
		L8.72,6.33z"/>
	<path class="st0" d="M6.5,22.48h0.88L6.04,4.18C5.97,3.32,6.62,2.57,7.48,2.51l7.14-0.53l0.21-0.9L7.41,1.63
		C6.07,1.73,5.06,2.9,5.16,4.24L6.5,22.48z"/>
	<path class="st0" d="M9.94,7.94C9.8,7.95,9.68,7.99,9.57,8.07C9.46,8.01,9.33,7.98,9.2,7.99c-0.41,0.03-0.72,0.4-0.69,0.82
		c0.04,0.45,0.71,0.62,1.21,1.2c0.41-0.65,1.05-0.91,1.02-1.37C10.71,8.22,10.35,7.91,9.94,7.94z"/>
	<path class="st0" d="M18.49,24.05l6.16,0.03l6.16-0.02c1.96-0.02,8.79-0.03,10.75-0.07c0.1-0.25,0.22-0.48,0.36-0.71
		c-0.03,0-0.05,0-0.08,0c-2.06-0.04-8.97-0.05-11.03-0.08l-6.16-0.02l-6.16,0.03c-2.06,0.02-4.11,0.03-6.16,0.08
		C8.22,23.33,4.11,23.43,0,23.62c4.11,0.19,8.22,0.29,12.33,0.35C14.38,24.01,16.44,24.02,18.49,24.05z"/>
	<path class="st0" d="M42.05,5.58l-23.3-5.51c-1.48-0.35-2.96,0.57-3.31,2.04l-4.82,20.36h1.02l4.76-20.14
		c0.22-0.94,1.17-1.53,2.11-1.31l23.3,5.51c0.94,0.22,1.53,1.17,1.31,2.11l-3.31,13.88c0.35-0.11,0.71-0.19,1.08-0.23l3.2-13.42
		C44.44,7.42,43.52,5.93,42.05,5.58z"/>
	<path class="st0" d="M19.91,8.86c0.11-0.5-0.55-0.91-0.89-1.7c-0.66,0.56-1.44,0.63-1.56,1.12c-0.11,0.46,0.17,0.92,0.62,1.03
		c0.15,0.04,0.3,0.03,0.44-0.02c0.1,0.1,0.23,0.17,0.38,0.21C19.34,9.61,19.8,9.32,19.91,8.86z"/>
	<path class="st0" d="M18.48,9.4c-0.02,0.01-0.04,0.01-0.05,0.01c-0.08,0.13-0.22,0.27-0.48,0.29l-0.01,0.05l0.88,0.21l0.01-0.05
		c-0.22-0.14-0.29-0.33-0.3-0.48C18.51,9.43,18.5,9.42,18.48,9.4z"/>
	<path class="st0" d="M20.63,7.31c-0.07-0.09-0.12-0.27-0.16-0.53l-0.54-3.29l-0.1-0.02l-1.96,2.66c-0.17,0.23-0.31,0.38-0.42,0.45
		c-0.05,0.03-0.16,0.04-0.31,0.03l-0.02,0.1l1.13,0.27l0.02-0.1c-0.17-0.05-0.28-0.11-0.32-0.16c-0.04-0.05-0.06-0.11-0.04-0.16
		c0.02-0.07,0.07-0.17,0.17-0.29l0.38-0.51l1.39,0.33l0.09,0.57c0.03,0.18,0.04,0.31,0.02,0.39c-0.01,0.06-0.05,0.1-0.11,0.13
		c-0.06,0.03-0.16,0.03-0.31,0l-0.02,0.1l1.42,0.34l0.02-0.1C20.8,7.47,20.69,7.4,20.63,7.31z M18.57,5.58l0.97-1.3l0.27,1.6
		L18.57,5.58z"/>
	<path class="st0" d="M20.08,22.48h11.03c-0.63-1.7-2.71-3.44-3.89-6.21c-2.96,2.5-6.48,2.83-7.04,5.06
		C20.09,21.72,20.06,22.1,20.08,22.48z"/>
</g>
</svg>
