<svg id="圖層_1" data-name="圖層 1" xmlns="http://www.w3.org/2000/svg" xmlns:xlink="http://www.w3.org/1999/xlink" viewBox="0 0 19.1 20"><defs><style>.cls-1{fill:url(#未命名漸層);}</style><linearGradient id="未命名漸層" y1="12" x2="19.1" y2="12" gradientTransform="matrix(1, 0, 0, -1, 0, 22)" gradientUnits="userSpaceOnUse"><stop offset="0" stop-color="#563d29"/><stop offset="1" stop-color="#f2bd79"/></linearGradient></defs><g id="kit"><path class="cls-1" d="M8,.56a2.4,2.4,0,0,1,3.08,0l7.16,6a2.31,2.31,0,0,1,.63.82,2.36,2.36,0,0,1,.22,1v10a1.61,1.61,0,0,1-.47,1.13A1.59,1.59,0,0,1,17.5,20H13.12A1.61,1.61,0,0,1,12,19.54a1.59,1.59,0,0,1-.47-1.13V12.84h-4v5.57A1.59,1.59,0,0,1,6,20H1.59A1.59,1.59,0,0,1,0,18.41v-10a2.48,2.48,0,0,1,.22-1,2.31,2.31,0,0,1,.63-.82L8,.56Z"/></g></svg>