<svg id="圖層_1" data-name="圖層 1" xmlns="http://www.w3.org/2000/svg" xmlns:xlink="http://www.w3.org/1999/xlink" viewBox="0 0 25 23.32"><defs><style>.cls-1{fill:#f9f8f9;}.cls-2{fill:url(#未命名漸層);}</style><linearGradient id="未命名漸層" x1="8.72" y1="12.68" x2="25" y2="12.68" gradientTransform="matrix(1, 0, 0, -1, 0, 26)" gradientUnits="userSpaceOnUse"><stop offset="0" stop-color="#f18a2f"/><stop offset="1" stop-color="#f7c809"/></linearGradient></defs><g id="kit"><path class="cls-1" d="M23.08,20H21.16a6.43,6.43,0,0,0,.76-2ZM0,20H3.85L11.54,6.67l2.06,3.57A6.59,6.59,0,0,1,15.38,10a6.46,6.46,0,0,1,2.12.35L11.54,0Z"/><path class="cls-2" d="M25,3.33l-.64,1.12a4.43,4.43,0,0,1-3.84,2.22H15.39l1.92-3.33H25Zm-7.49,7A6.78,6.78,0,0,0,15.39,10a6.48,6.48,0,0,0-1.78.24l1.78,3.09a3.33,3.33,0,0,1,3.33,3.33,3.26,3.26,0,0,1-.45,1.67,3.33,3.33,0,0,1-6.21-1.66A3.26,3.26,0,0,1,12.51,15L10.73,11.9A6.66,6.66,0,1,0,21.17,20a6.62,6.62,0,0,0,.89-3.33A6.68,6.68,0,0,0,17.51,10.34Z"/></g></svg>