<?xml version="1.0" encoding="utf-8"?>
<!-- Generator: Adobe Illustrator 23.0.3, SVG Export Plug-In . SVG Version: 6.00 Build 0)  -->
<svg version="1.1" xmlns="http://www.w3.org/2000/svg" xmlns:xlink="http://www.w3.org/1999/xlink" x="0px" y="0px" width="30px"
	 height="30px" viewBox="0 0 30 30" style="enable-background:new 0 0 30 30;" xml:space="preserve">
<style type="text/css">
	.st0{fill:url(#SVGID_1_);}
	.st1{fill:url(#SVGID_2_);}
	.st2{fill:url(#SVGID_3_);}
	.st3{fill:url(#SVGID_4_);}
	.st4{display:none;}
	.st5{display:inline;}
	.st6{fill:url(#SVGID_5_);}
	.st7{fill:url(#SVGID_6_);}
	.st8{display:inline;fill:url(#SVGID_7_);}
</style>
<g id="音效">
	
		<linearGradient id="SVGID_1_" gradientUnits="userSpaceOnUse" x1="-1498.1466" y1="15" x2="-1469.2527" y2="15" gradientTransform="matrix(-1 0 0 1 -1468.6998 0)">
		<stop  offset="0" style="stop-color:#3E3123"/>
		<stop  offset="1" style="stop-color:#F2BD79"/>
	</linearGradient>
	<circle class="st0" cx="15" cy="15" r="14.4"/>
	<linearGradient id="SVGID_2_" gradientUnits="userSpaceOnUse" x1="5.000000e-02" y1="15" x2="29.95" y2="15">
		<stop  offset="0" style="stop-color:#FFFFC5"/>
		<stop  offset="0.1036" style="stop-color:#F9EDA3"/>
		<stop  offset="0.2128" style="stop-color:#F4DD85"/>
		<stop  offset="0.2748" style="stop-color:#F2D77A"/>
		<stop  offset="0.4336" style="stop-color:#F0D477"/>
		<stop  offset="0.5655" style="stop-color:#E9C96D"/>
		<stop  offset="0.6878" style="stop-color:#DDB85D"/>
		<stop  offset="0.8042" style="stop-color:#CCA046"/>
		<stop  offset="0.9155" style="stop-color:#B78128"/>
		<stop  offset="0.9303" style="stop-color:#B47C24"/>
	</linearGradient>
	<path class="st1" d="M15,30C6.8,30,0.1,23.2,0.1,15c0-8.2,6.7-15,14.9-15s15,6.7,15,15C30,23.2,23.2,30,15,30z M15,1.1
		C7.3,1.1,1.1,7.3,1.1,15S7.3,28.9,15,28.9c7.7,0,13.9-6.3,13.9-13.9S22.7,1.1,15,1.1z"/>
	<g>
		<g>
			<linearGradient id="SVGID_3_" gradientUnits="userSpaceOnUse" x1="18.0393" y1="15.0219" x2="22.9755" y2="15.0219">
				<stop  offset="0" style="stop-color:#3E3123"/>
				<stop  offset="1" style="stop-color:#140A0C"/>
			</linearGradient>
			<path class="st2" d="M18.4,11.9c-0.3,0.2-0.4,0.6-0.2,1c0.8,1.3,0.8,2.9,0,4.2c-0.2,0.3-0.1,0.8,0.2,1c0.1,0.1,0.2,0.1,0.4,0.1
				c0.2,0,0.5-0.1,0.6-0.3c1.1-1.7,1.1-3.9,0-5.6C19.1,11.8,18.7,11.7,18.4,11.9z M21.7,10.6c-0.2-0.3-0.6-0.4-1-0.2
				c-0.3,0.2-0.4,0.6-0.2,1c1.4,2.2,1.4,5.1-0.1,7.3c-0.2,0.3-0.1,0.7,0.2,1c0.1,0.1,0.2,0.1,0.4,0.1c0.2,0,0.4-0.1,0.6-0.3
				C23.4,16.8,23.4,13.3,21.7,10.6z"/>
			<linearGradient id="SVGID_4_" gradientUnits="userSpaceOnUse" x1="7.6497" y1="14.9604" x2="16.8684" y2="14.9604">
				<stop  offset="0" style="stop-color:#3E3123"/>
				<stop  offset="1" style="stop-color:#140A0C"/>
			</linearGradient>
			<path class="st3" d="M15.4,8.6l-4,3.1H8.6c-0.5,0-0.9,0.4-0.9,0.9v4.6c0,0.5,0.4,0.9,0.9,0.9h2.8l4,3.1c0.6,0.5,1.5,0,1.5-0.7
				V9.4C16.9,8.6,16,8.2,15.4,8.6z"/>
		</g>
	</g>
</g>
<g id="音樂" class="st4">
	<g class="st5">
		<g>
			<g>
				<linearGradient id="SVGID_5_" gradientUnits="userSpaceOnUse" x1="29.3592" y1="15" x2="0.6408" y2="15">
					<stop  offset="0" style="stop-color:#3E3123"/>
					<stop  offset="1" style="stop-color:#F2BD79"/>
				</linearGradient>
				<circle class="st6" cx="15" cy="15" r="14.4"/>
			</g>
		</g>
		<g>
			<g>
				<linearGradient id="SVGID_6_" gradientUnits="userSpaceOnUse" x1="7.7942" y1="15.2765" x2="20.5125" y2="15.2765">
					<stop  offset="0" style="stop-color:#3E3123"/>
					<stop  offset="1" style="stop-color:#140A0C"/>
				</linearGradient>
				<path class="st7" d="M19.3,7.9l-7.3,1.9c-0.4,0.1-0.7,0.5-0.7,0.9v7.6H10c-1.2,0-2.2,1-2.2,2.2s1,2.2,2.2,2.2h0.5
					c1.1,0,2.1-0.9,2.2-2h0v-7.3l6.4-2v4.9h-1.2c-1.2,0-2.2,1-2.2,2.2c0,1.2,1,2.2,2.2,2.2h0.5c1.2,0,2.2-1,2.2-2.2V8.8
					C20.5,8.2,19.9,7.7,19.3,7.9z"/>
			</g>
		</g>
	</g>
	<linearGradient id="SVGID_7_" gradientUnits="userSpaceOnUse" x1="5.000000e-02" y1="15" x2="29.95" y2="15">
		<stop  offset="0" style="stop-color:#FFFFC5"/>
		<stop  offset="0.1036" style="stop-color:#F9EDA3"/>
		<stop  offset="0.2128" style="stop-color:#F4DD85"/>
		<stop  offset="0.2748" style="stop-color:#F2D77A"/>
		<stop  offset="0.4336" style="stop-color:#F0D477"/>
		<stop  offset="0.5655" style="stop-color:#E9C96D"/>
		<stop  offset="0.6878" style="stop-color:#DDB85D"/>
		<stop  offset="0.8042" style="stop-color:#CCA046"/>
		<stop  offset="0.9155" style="stop-color:#B78128"/>
		<stop  offset="0.9303" style="stop-color:#B47C24"/>
	</linearGradient>
	<path class="st8" d="M15,30C6.8,30,0.1,23.2,0.1,15c0-8.2,6.7-15,14.9-15s15,6.7,15,15C30,23.2,23.2,30,15,30z M15,1.1
		C7.3,1.1,1.1,7.3,1.1,15S7.3,28.9,15,28.9c7.7,0,13.9-6.3,13.9-13.9S22.7,1.1,15,1.1z"/>
</g>
</svg>
