<?xml version="1.0" encoding="utf-8"?>
<!-- Generator: Adobe Illustrator 22.1.0, SVG Export Plug-In . SVG Version: 6.00 Build 0)  -->
<svg version="1.1" id="圖層_1" xmlns="http://www.w3.org/2000/svg" xmlns:xlink="http://www.w3.org/1999/xlink" x="0px" y="0px"
	 width="28.3px" height="30px" viewBox="0 0 28.3 30" style="enable-background:new 0 0 28.3 30;" xml:space="preserve">
<style type="text/css">
	.st0{fill:#DA151E;}
	.st1{fill:url(#SVGID_1_);}
	.st2{fill:url(#SVGID_2_);}
	.st3{fill:url(#SVGID_3_);}
	.st4{opacity:0.4;fill:url(#SVGID_4_);enable-background:new    ;}
</style>
<g>
	<g>
		<path class="st0" d="M13.2,1.1h12.8c0.7,0,1.3,0.6,1.3,1.3v18H1v-18c0-0.7,0.6-1.3,1.3-1.3L13.2,1.1L13.2,1.1z"/>
		
			<linearGradient id="SVGID_1_" gradientUnits="userSpaceOnUse" x1="-6.080000e-02" y1="822.5049" x2="28.383" y2="822.5049" gradientTransform="matrix(1 0 0 1 0 -807.5049)">
			<stop  offset="0" style="stop-color:#B47C24"/>
			<stop  offset="4.100000e-02" style="stop-color:#BE8D39"/>
			<stop  offset="0.1671" style="stop-color:#DABE75"/>
			<stop  offset="0.2746" style="stop-color:#EEE1A0"/>
			<stop  offset="0.358" style="stop-color:#FAF7BB"/>
			<stop  offset="0.4071" style="stop-color:#FFFFC5"/>
			<stop  offset="1" style="stop-color:#FFCA66"/>
		</linearGradient>
		<path class="st1" d="M26,0H2.2C1,0,0,1.1,0,2.4v20.1c0,1.3,1,2.4,2.4,2.4h6.9l-0.6,3.9H7.5c-0.3,0-0.6,0.3-0.6,0.6S7.2,30,7.5,30
			h13.4c0.3,0,0.6-0.3,0.6-0.6s-0.3-0.6-0.6-0.6h-1.3L19,24.9h6.9c1.3,0,2.4-1,2.4-2.4V2.4C28.5,1.1,27.3,0,26,0z M9.9,28.7l0.6-3.9
			H18l0.6,3.9H9.9z M13.7,22.5L13.7,22.5c0-0.1,0-0.1,0-0.3c0,0,0,0,0-0.1c0,0,0,0,0-0.1c0,0,0,0,0.1,0c0,0,0,0,0.1,0c0,0,0,0,0.1,0
			s0.1,0,0.3,0h0.1c0,0,0,0,0.1,0c0,0,0,0,0.1,0c0,0,0,0,0,0.1c0,0,0,0,0,0.1c0,0,0,0,0,0.1v0.1v0.1v0.1c0,0,0,0,0,0.1
			c0,0,0,0,0,0.1c0,0,0,0-0.1,0c0,0,0,0-0.1,0c0,0,0,0-0.1,0h-0.1h-0.1h-0.1c0,0,0,0-0.1,0c0,0,0,0-0.1,0c0,0,0,0,0-0.1
			c0,0,0,0,0-0.1C13.7,22.7,13.7,22.7,13.7,22.5C13.7,22.7,13.7,22.5,13.7,22.5z M13.2,1.1h12.8c0.7,0,1.3,0.6,1.3,1.3v18H1v-18
			c0-0.7,0.6-1.3,1.3-1.3L13.2,1.1L13.2,1.1z"/>
		<g>
			<g>
				
					<linearGradient id="SVGID_2_" gradientUnits="userSpaceOnUse" x1="6.0227" y1="20.8698" x2="17.6373" y2="20.8698" gradientTransform="matrix(1 0 0 -1 0 29.8898)">
					<stop  offset="0.4071" style="stop-color:#FFFFAD"/>
					<stop  offset="0.5336" style="stop-color:#F2E89B"/>
					<stop  offset="0.7272" style="stop-color:#E0CA83"/>
					<stop  offset="0.837" style="stop-color:#DABF7A"/>
					<stop  offset="0.8832" style="stop-color:#D8BC78"/>
					<stop  offset="0.9216" style="stop-color:#D2B174"/>
					<stop  offset="0.9571" style="stop-color:#C8A06B"/>
					<stop  offset="0.9908" style="stop-color:#BB8860"/>
					<stop  offset="1" style="stop-color:#B6805C"/>
				</linearGradient>
				<path class="st2" d="M11,14.1c0.3,1,1.8,0.9,2-0.1l0.1-0.2c0-0.1,0.1-0.3,0.2-0.4s0.2-0.2,0.4-0.3s0.3-0.1,0.5-0.1
					s0.3,0,0.5,0.1l0.2,0.1c0.9,0.5,1.9-0.6,1.4-1.5l-0.1-0.2c-0.4-0.6-0.1-1.3,0.6-1.6l0.2-0.1c1-0.3,0.9-1.8-0.1-2l-0.2-0.1
					c-0.1,0-0.3-0.1-0.4-0.2s-0.2-0.2-0.3-0.4s-0.1-0.3-0.1-0.5s0-0.3,0.1-0.5L16,6c0.5-0.9-0.6-1.9-1.5-1.4l-0.2,0.1
					c-0.1,0.1-0.3,0.1-0.4,0.2s-0.3,0-0.5-0.1c-0.1-0.1-0.3-0.1-0.4-0.2c-0.1-0.1-0.2-0.2-0.2-0.4l-0.1-0.2c-0.3-1-1.8-0.9-2,0.1
					l-0.1,0.2c0,0.2-0.1,0.3-0.2,0.4S10.1,4.9,9.9,5S9.6,5.1,9.5,5.1S9.2,5,9,5L8.8,4.8C7.8,4.4,6.9,5.4,7.4,6.3l0.1,0.2
					C7.6,6.7,7.7,6.9,7.7,7c0,0.2,0,0.3-0.1,0.5C7.6,7.6,7.5,7.8,7.4,7.9C7.3,8,7.1,8.1,7,8.1L6.7,8.2c-1,0.3-0.9,1.8,0.1,2l0.2,0.1
					c0.2,0,0.3,0.1,0.4,0.2s0.2,0.2,0.3,0.4s0.1,0.3,0.1,0.5s0,0.3-0.1,0.5L7.7,12C7.2,13,8.3,14,9.2,13.4l0.2-0.1
					c0.1-0.1,0.3-0.1,0.4-0.1c0.2,0,0.3,0,0.5,0.1c0.1,0.1,0.3,0.1,0.4,0.2c0.1,0.1,0.2,0.2,0.2,0.4L11,14.1L11,14.1z M11.7,6.9
					c0.6,0,1.1,0.2,1.5,0.6s0.7,0.9,0.7,1.5c0,0.6-0.2,1.1-0.6,1.5s-0.9,0.7-1.5,0.7c-0.6,0-1.1-0.2-1.5-0.6
					C10,10.2,9.7,9.7,9.7,9.1S9.9,8,10.3,7.6C10.6,7.2,11.2,6.9,11.7,6.9L11.7,6.9z"/>
			</g>
			<g>
				
					<linearGradient id="SVGID_3_" gradientUnits="userSpaceOnUse" x1="15.9375" y1="14.7598" x2="23.4796" y2="14.7598" gradientTransform="matrix(1 0 0 -1 0 29.8898)">
					<stop  offset="0.4071" style="stop-color:#FFFFAD"/>
					<stop  offset="0.5336" style="stop-color:#F2E89B"/>
					<stop  offset="0.7272" style="stop-color:#E0CA83"/>
					<stop  offset="0.837" style="stop-color:#DABF7A"/>
					<stop  offset="0.8832" style="stop-color:#D8BC78"/>
					<stop  offset="0.9216" style="stop-color:#D2B174"/>
					<stop  offset="0.9571" style="stop-color:#C8A06B"/>
					<stop  offset="0.9908" style="stop-color:#BB8860"/>
					<stop  offset="1" style="stop-color:#B6805C"/>
				</linearGradient>
				<path class="st3" d="M18.5,18.3c0.1,0.7,1,0.9,1.3,0.2l0.1-0.1c0-0.1,0.1-0.2,0.2-0.2c0.1-0.1,0.2-0.1,0.3-0.1
					c0.1,0,0.2,0,0.3,0s0.2,0.1,0.3,0.1l0.1,0.1c0.5,0.4,1.3-0.1,1.1-0.8l0-0.2c-0.1-0.4,0.1-0.9,0.6-0.9l0.2,0
					c0.7-0.1,0.9-1,0.2-1.3L23,15c-0.1-0.1-0.2-0.1-0.2-0.2c-0.1-0.1-0.1-0.2-0.1-0.3c0-0.1,0-0.2,0-0.3s0.1-0.2,0.1-0.3l0.1-0.1
					c0.4-0.6-0.1-1.3-0.8-1.1l-0.2,0.1c-0.1,0-0.2,0-0.3,0c-0.1,0-0.2-0.1-0.3-0.1c-0.1-0.1-0.2-0.1-0.2-0.2S21,12.2,21,12.1l0-0.2
					c-0.1-0.7-1-0.9-1.3-0.2l-0.1,0.1c0,0.1-0.1,0.2-0.2,0.2c-0.1,0.1-0.2,0.1-0.3,0.1s-0.2,0-0.3,0s-0.2-0.1-0.3-0.1L18.4,12
					c-0.5-0.4-1.3,0.1-1.1,0.8l0,0.2c0,0.1,0,0.2,0,0.3c0,0.1,0,0.2-0.1,0.3c-0.1,0.1-0.1,0.2-0.2,0.2s-0.2,0.1-0.3,0.1l-0.2,0
					c-0.7,0.1-0.9,1-0.2,1.3l0.1,0.1c0.1,0.1,0.2,0.1,0.2,0.2c0.1,0.1,0.1,0.2,0.1,0.3c0,0.1,0,0.2,0,0.3c0,0.1-0.1,0.2-0.1,0.3
					l-0.1,0.1c-0.4,0.5,0.1,1.3,0.8,1.1l0.2,0c0.1,0,0.2,0,0.3,0c0.1,0,0.2,0,0.3,0.1c0.1,0.1,0.2,0.1,0.2,0.2s0.1,0.2,0.1,0.3
					L18.5,18.3L18.5,18.3z M20,13.8c0.4,0.1,0.7,0.3,0.9,0.6c0.2,0.3,0.3,0.7,0.2,1c-0.1,0.4-0.3,0.7-0.6,0.9
					c-0.3,0.2-0.7,0.3-1,0.2c-0.4-0.1-0.7-0.3-0.9-0.6c-0.2-0.3-0.3-0.7-0.2-1c0.1-0.4,0.3-0.7,0.6-0.9C19.2,13.8,19.6,13.7,20,13.8
					L20,13.8z"/>
			</g>
		</g>
		
			<linearGradient id="SVGID_4_" gradientUnits="userSpaceOnUse" x1="14.15" y1="28.7598" x2="14.15" y2="9.4598" gradientTransform="matrix(1 0 0 -1 0 29.8898)">
			<stop  offset="0" style="stop-color:#FFFFFF"/>
			<stop  offset="1" style="stop-color:#FFFFFF;stop-opacity:0"/>
		</linearGradient>
		<path class="st4" d="M26,1.1H13.2h-11C1.5,1.1,1,1.7,1,2.4v18h9.2L27.3,2.5V2.4C27.3,1.7,26.8,1.1,26,1.1z"/>
	</g>
</g>
</svg>
