<svg id="圖層_1" data-name="圖層 1" xmlns="http://www.w3.org/2000/svg" xmlns:xlink="http://www.w3.org/1999/xlink" viewBox="0 0 25 33.27"><defs><style>.cls-1{fill:none;}.cls-10,.cls-11,.cls-12,.cls-13,.cls-14,.cls-15,.cls-2,.cls-4,.cls-5,.cls-6,.cls-7,.cls-8,.cls-9{fill-rule:evenodd;}.cls-3{clip-path:url(#clip-path);}.cls-4{fill:url(#未命名漸層);}.cls-5{fill:url(#未命名漸層_2);}.cls-6{fill:#9b0109;}.cls-7{fill:#d40404;}.cls-8{fill:url(#未命名漸層_3);}.cls-9{fill:url(#未命名漸層_4);}.cls-10{fill:url(#未命名漸層_5);}.cls-11{fill:url(#未命名漸層_6);}.cls-12{fill:#fdf6a6;}.cls-13{fill:url(#未命名漸層_7);}.cls-14{fill:#231816;}.cls-15{fill:#fff;}</style><clipPath id="clip-path"><path class="cls-1" d="M12.5,29.65c5.44-3.37,9.39-7.53,9.39-14.36v-7a22,22,0,0,0-18.78,0v7c0,6.83,4,11,9.39,14.36"/></clipPath><linearGradient id="未命名漸層" x1="0.97" y1="17.89" x2="24.03" y2="17.89" gradientTransform="matrix(1, 0, 0, -1, 0, 36)" gradientUnits="userSpaceOnUse"><stop offset="0" stop-color="#563d29"/><stop offset="0.08" stop-color="#725437"/><stop offset="0.22" stop-color="#99744b"/><stop offset="0.36" stop-color="#b98e5c"/><stop offset="0.5" stop-color="#d2a369"/><stop offset="0.66" stop-color="#e4b272"/><stop offset="0.81" stop-color="#efba77"/><stop offset="1" stop-color="#f2bd79"/></linearGradient><linearGradient id="未命名漸層_2" x1="6.03" y1="20.15" x2="21.38" y2="20.15" xlink:href="#未命名漸層"/><linearGradient id="未命名漸層_3" x1="4.16" y1="31.77" x2="17.04" y2="31.77" gradientTransform="matrix(1, 0, 0, -1, 0, 36)" gradientUnits="userSpaceOnUse"><stop offset="0" stop-color="#f26428"/><stop offset="0.15" stop-color="#df5925"/><stop offset="0.45" stop-color="#ac3c1e"/><stop offset="0.88" stop-color="#5c0e13"/><stop offset="1" stop-color="#440010"/></linearGradient><linearGradient id="未命名漸層_4" x1="1.35" y1="28.1" x2="4.03" y2="28.1" xlink:href="#未命名漸層_3"/><linearGradient id="未命名漸層_5" x1="3.73" y1="16.13" x2="5.15" y2="16.13" xlink:href="#未命名漸層_3"/><linearGradient id="未命名漸層_6" x1="0.97" y1="22.9" x2="6.67" y2="22.9" xlink:href="#未命名漸層"/><linearGradient id="未命名漸層_7" x1="0.97" y1="22.18" x2="6.67" y2="22.18" xlink:href="#未命名漸層_3"/></defs><g id="kit"><path class="cls-2" d="M12,33c-6.94-4-12-9.2-12-17.69V6.4l.52-.27a25.29,25.29,0,0,1,24,0L25,6.4v8.89C25,23.78,19.93,28.94,13,33l-.49.29Z"/><g class="cls-3"><rect x="3.11" y="5.52" width="18.78" height="24.13"/></g><path class="cls-4" d="M12.5,30.79c6-3.58,10.36-8.06,10.36-15.5V7.71a23,23,0,0,0-20.72,0v7.58c0,7.43,4.4,11.91,10.36,15.5M1,7v8.3C1,23.34,5.78,28.23,12.5,32.14,19.22,28.23,24,23.34,24,15.29V7A24.3,24.3,0,0,0,1,7Z"/><path class="cls-2" d="M2.9,11.39a2.5,2.5,0,0,1-1-.52C-.31,9.07.6,4.68,3.09,3.34a6.1,6.1,0,0,0,0,2.6.68.68,0,0,0,.28.28C3.66,4,5.58,3.26,7,2.57,8.59,1.78,8.8,1,8.77,0a2.79,2.79,0,0,1,1.39,2.5c1.34-.68,3.34,0,4.29-1.64a2.16,2.16,0,0,1,.25,2.25c1.53.29,1.86.83,3,1.17A1.92,1.92,0,0,0,20,3.23a4,4,0,0,1-.89,4.67c1.56,1.47,1.83,3.82,2.23,7l-1.17-.57c1.22,3,1,5.26,3.57,7.36a8.32,8.32,0,0,1-2.86.29c-.19,0,.17-.44,0-.47-.39,2.22-4.76,6.85-8.15,8.79a19.21,19.21,0,0,1-7.73-7c-.06-.55-.15-1.09-.21-1.62A1.82,1.82,0,0,1,3.45,21a2.41,2.41,0,0,1,.09-2.76c.13-.2.28-.4.42-.6a4.75,4.75,0,0,0,1-1.94,3.38,3.38,0,0,1-1.5-.29c-1.56-.64-2.47-.42-3,.51a3.73,3.73,0,0,1,.87-3.26A5.43,5.43,0,0,1,2.9,11.39"/><path class="cls-5" d="M19.76,13.11a5.66,5.66,0,0,0-2.12-1.3c2.05,2.6,1.22,7,3.74,8.85a3.34,3.34,0,0,1-3-1c.61,1.31,0,3.43-1.15,4.87a9.77,9.77,0,0,0-.78-5.18c-.15,2.79-2.19,6.6-5.27,6.58A6.9,6.9,0,0,0,13,20.32c-1,2.74-3.83,4.15-5.75,4.82,1.9-1.79,2.41-5.53,3.59-6.65a7.42,7.42,0,0,0-1.83.7c1.5-3,4.51-2.68,4.52-5.93a2.9,2.9,0,0,1-2.11,1.65,3.56,3.56,0,0,0,.92-5,3.47,3.47,0,0,1-.23.53,2,2,0,0,0-1.72-1.59,1.58,1.58,0,0,0,.26-.9c-1.07.89-2.88,0-4.62,2a9.71,9.71,0,0,1,4.49-4.11,4.35,4.35,0,0,0-.47,1.35c1.88-1.88,4.35.38,6.48-.48a2.41,2.41,0,0,1-.5,1c2.73.94,3.5,2.68,3.73,5.41"/><path class="cls-6" d="M16.48,19.33c-.15,2.79-2.19,6.6-5.27,6.58A6.9,6.9,0,0,0,13,20.31c-1,2.74-3.83,4.15-5.75,4.82,1.9-1.79,2.41-5.53,3.59-6.65a7.42,7.42,0,0,0-1.83.7c1.5-3,4.51-2.68,4.52-5.93a3.26,3.26,0,0,1-1.32,3.38A7.6,7.6,0,0,0,11,17.85a3.34,3.34,0,0,1,1.46-.11,6.27,6.27,0,0,0-2.29,3.81,8.65,8.65,0,0,1-.4,1.24c1-.4,2.42-1.4,3.86-4.57a12,12,0,0,1,0,5.53,8.73,8.73,0,0,0,2.87-4.42"/><path class="cls-6" d="M19.76,13.11a5.66,5.66,0,0,0-2.12-1.3c2.05,2.6,1.22,7,3.74,8.85a3.34,3.34,0,0,1-3-1c.61,1.31,0,3.43-1.15,4.87a9.46,9.46,0,0,0,0-6.48,4.19,4.19,0,0,1,1.25.32c-.66-1.43-.34-4.92-2.72-7.77a10.28,10.28,0,0,1,3,.85,3.73,3.73,0,0,0-1.3-3.06c1.58,1,2.11,2.56,2.29,4.73"/><path class="cls-7" d="M2.36,5c-2,2.41-1,7.21,2.87,5.41a2.31,2.31,0,0,1-1.85-.84c2.1.21,3.49-1.56,4-3.95A3.48,3.48,0,0,1,7.68,6.8a7.64,7.64,0,0,1,4.16-2.15,2.6,2.6,0,0,0-.6.86,5.23,5.23,0,0,1,3.44.14,4.26,4.26,0,0,0,3.16.15A2.06,2.06,0,0,1,17,7.15a2.39,2.39,0,0,0,2.54-2.38c-1.69.89-3.09-.53-4.52-1a4.1,4.1,0,0,0-1.46-.21A1.52,1.52,0,0,0,14,2.24c-.74.86-2.77.2-4,.95a1.4,1.4,0,0,1-1,.65,1.87,1.87,0,0,0,.13-2.19c-.64,2.07-4.91,1.84-5.07,5C4.11,8.12,2.12,7.31,2.36,5"/><path class="cls-8" d="M14.05,2.24c-.74.86-2.77.2-4,.95a1.4,1.4,0,0,1-.95.65c.62,0,.93-.48,1.36-.59s.77-.12,1.27-.19c-.32.18-.61.37-.61.37,1.07-.37,2.57.08,2.9-1.19m3,2.5c-.71-.31-1.39-.76-2.07-1a4.1,4.1,0,0,0-1.46-.21l-.31.33a5.52,5.52,0,0,1,2.23.4A4.84,4.84,0,0,0,17,4.74ZM9.25,1.65c-.64,2.07-4.91,1.84-5.07,5a1.11,1.11,0,0,1,0,.19,2.44,2.44,0,0,0,.15-.32A4.33,4.33,0,0,1,6,4.39a2.9,2.9,0,0,0-.3.87C7.07,3.5,9.36,3.63,9.25,1.65Z"/><path class="cls-6" d="M3.38,9.57c2.1.21,3.49-1.56,4-3.95A3.48,3.48,0,0,1,7.68,6.8a7.64,7.64,0,0,1,4.16-2.15,2.6,2.6,0,0,0-.6.86,5.23,5.23,0,0,1,3.44.14,4.26,4.26,0,0,0,3.16.15A2.06,2.06,0,0,1,17,7.15a2.39,2.39,0,0,0,2.54-2.38,4.05,4.05,0,0,1-3.95.54c-.9-.26-2.38-.89-3.29-.61a5.68,5.68,0,0,1,.67-.85A7.18,7.18,0,0,0,8,5.79a2.33,2.33,0,0,1,.28-1.87c-1.58,1-1,2-2.06,3.09a2.32,2.32,0,0,1,0-1.45c-1.26,1.25.37,3.07-2.83,4"/><path class="cls-9" d="M2.36,5C.6,7.14,1.14,11.16,4,10.78c-1.79,0-2.31-1.84-2.18-3.37a3,3,0,0,0,.63,1.2A5.18,5.18,0,0,1,2.36,5"/><path class="cls-7" d="M10.26,12.82a2.66,2.66,0,0,1,.68,1.45,3.41,3.41,0,0,0,1.34-3.33,1.67,1.67,0,0,1-.73,1c.54-1.62-.43-2.6-2-2.53a1.2,1.2,0,0,0,.29-.66c-.49.3-1.52.22-2.15.53-1,.48-1.47,1.58-2.39,2.08a2.1,2.1,0,0,0,1.55-.85,2.89,2.89,0,0,1,2.36-1,.9.9,0,0,0-.46.46,1.25,1.25,0,0,1,1.56,1.28c-.43-.59-1-.87-1.58-.25a1.84,1.84,0,0,1-1.5,2l0,0h0v0h0l0,.07h0v0h0v0h0v0h0v0H7.1v0H7a3.07,3.07,0,0,0,1.65-.33,3,3,0,0,1-1.86,1A3.41,3.41,0,0,0,9,13.74,3.39,3.39,0,0,1,6.56,15h0a2.84,2.84,0,0,0,3.72-2.22"/><path class="cls-6" d="M11,14.27a3.41,3.41,0,0,0,1.34-3.33,1.67,1.67,0,0,1-.73,1,1.71,1.71,0,0,0-1.07-2.44c1,.49,1,1.68.64,2.84a4.29,4.29,0,0,0,.78-.32,5.32,5.32,0,0,1-1,2.3"/><path class="cls-6" d="M7.26,13h0l0,0h0v0h0a3.07,3.07,0,0,0,1.65-.33h0A3.07,3.07,0,0,0,9.75,11a1.64,1.64,0,0,1,.74.21c-.43-.59-1-.87-1.58-.25a2.09,2.09,0,0,1-1.65,2"/><path class="cls-7" d="M5.82,15.38c1.45.74,2.85,2.86,2.15,4.55a2.38,2.38,0,0,1-.39.63C6.23,22.1,4.24,20,5.73,18.48A1.53,1.53,0,0,0,5.12,21c-1.37.07-1.77-1.28-1-2.43.55-.85,1.4-1.74,1.34-2.39a2.49,2.49,0,0,1,.36,1.36,2.2,2.2,0,0,0,0-2.17"/><path class="cls-10" d="M5.15,18.87a1.43,1.43,0,0,0,0,2.14c-1.31.07-1.74-1.17-1.1-2.29a1.4,1.4,0,0,0,.28,1.45,1.5,1.5,0,0,1,.85-1.3"/><path class="cls-6" d="M5.82,15.38a4.36,4.36,0,0,1,2.32,3.84,3.77,3.77,0,0,0-1.59-2.59,1.65,1.65,0,0,1-.75.92A2.2,2.2,0,0,0,5.82,15.38Z"/><path class="cls-6" d="M7.86,20.17a2.7,2.7,0,0,1-.27.39C6.23,22.1,4.24,20,5.73,18.48a1.63,1.63,0,0,0,.82-1.13c.26,1.47-1.14,1.7-.66,2.8a2.45,2.45,0,0,1,.56-.9c-.43,1.07.6,1.74,1.41.92"/><path class="cls-11" d="M6.67,12.93a4.71,4.71,0,0,1-2.48-1.42A4.26,4.26,0,0,0,1,14.68c.72-1.09,2-.91,3.05-.74a7.53,7.53,0,0,0,.83.1,2.24,2.24,0,0,0,1.82-1.11"/><path class="cls-12" d="M4.53,11.84a2.57,2.57,0,0,1-.33-.33A4.5,4.5,0,0,0,1.56,13.3a5.14,5.14,0,0,1,3-1.46"/><path class="cls-13" d="M6.67,12.93a5.17,5.17,0,0,1-1.23-.45A4.36,4.36,0,0,1,4.09,13a2.28,2.28,0,0,0,1.34.17,1.41,1.41,0,0,1-1.17.28c-1.19-.12-2.85-.15-3.29,1.22.72-1.09,2-.91,3.05-.74a7.53,7.53,0,0,0,.83.1,2.24,2.24,0,0,0,1.82-1.11M1.76,14.37c1.12-.12,2.29.94,3.24.77a1.66,1.66,0,0,0,1.33-1.36A2.33,2.33,0,0,1,4,14.26,3.62,3.62,0,0,0,1.76,14.37Z"/><path class="cls-14" d="M4.51,12.45a.82.82,0,0,0-.29-.35c-.26-.16-.45.06-.17.2a3.5,3.5,0,0,0,.46.15"/><path class="cls-15" d="M6.25,11.86a2.24,2.24,0,0,1-.81-.1,6,6,0,0,0,1.67-.53c.37-.21,1.08-.88,1.73-.91a1.54,1.54,0,0,0-.66.61c.22,1.58-1.48,1.82-1.93.93"/></g></svg>