<?xml version="1.0" encoding="utf-8"?>
<!-- Generator: Adobe Illustrator 25.2.3, SVG Export Plug-In . SVG Version: 6.00 Build 0)  -->
<svg version="1.1" id="圖層_1" xmlns="http://www.w3.org/2000/svg" xmlns:xlink="http://www.w3.org/1999/xlink" x="0px" y="0px"
	 viewBox="0 0 20 15.71" style="enable-background:new 0 0 20 15.71;" xml:space="preserve">
<style type="text/css">
	.st0{fill:#FFFFFF;}
</style>
<path class="st0" d="M19.29,0H0.71C0.32,0,0,0.32,0,0.71V15c0,0.4,0.32,0.71,0.71,0.71h18.57c0.4,0,0.71-0.32,0.71-0.71V0.71
	C20,0.32,19.68,0,19.29,0z M6.12,3.21c0.79,0,1.43,0.64,1.43,1.43c0,0.79-0.64,1.43-1.43,1.43c-0.79,0-1.43-0.64-1.43-1.43
	C4.69,3.85,5.33,3.21,6.12,3.21z M17.59,12.97c-0.03,0.03-0.07,0.04-0.12,0.04H2.53c-0.1,0-0.18-0.08-0.18-0.18
	c0-0.04,0.02-0.08,0.04-0.12l3.8-4.51c0.06-0.08,0.18-0.08,0.25-0.02C6.45,8.19,6.46,8.2,6.47,8.21l2.22,2.63l3.53-4.19
	c0.06-0.08,0.18-0.08,0.25-0.02c0.01,0.01,0.02,0.01,0.02,0.02l5.12,6.06C17.67,12.79,17.66,12.91,17.59,12.97z"/>
</svg>
