<?xml version="1.0" encoding="utf-8"?>
<!-- Generator: Adobe Illustrator 16.0.0, SVG Export Plug-In . SVG Version: 6.00 Build 0)  -->
<!DOCTYPE svg PUBLIC "-//W3C//DTD SVG 1.1//EN" "http://www.w3.org/Graphics/SVG/1.1/DTD/svg11.dtd">
<svg version="1.1" id="Layer_1" xmlns="http://www.w3.org/2000/svg" xmlns:xlink="http://www.w3.org/1999/xlink" x="0px" y="0px"
	 width="27.5px" height="27.5px" viewBox="0 0 27.5 27.5" enable-background="new 0 0 27.5 27.5" xml:space="preserve">
<g>
	<defs>
		<path id="SVGID_1_" d="M12.5,0.917c0,0-6.687-0.283-11.493,1.416v8.691c0,0-0.836,10.389,11.493,15.489
			c12.327-5.101,11.493-15.489,11.493-15.489V2.333c-3.604-1.274-8.261-1.434-10.367-1.434C12.919,0.899,12.5,0.917,12.5,0.917"/>
	</defs>
	<clipPath id="SVGID_2_">
		<use xlink:href="#SVGID_1_"  overflow="visible"/>
	</clipPath>
	
		<linearGradient id="SVGID_3_" gradientUnits="userSpaceOnUse" x1="-511.8989" y1="413.6348" x2="-510.2897" y2="413.6348" gradientTransform="matrix(0 15.912 15.912 0 -6569.2744 8146.2485)">
		<stop  offset="0" style="stop-color:#F83841"/>
		<stop  offset="0.1787" style="stop-color:#F43740"/>
		<stop  offset="0.342" style="stop-color:#E9343C"/>
		<stop  offset="0.4994" style="stop-color:#D73037"/>
		<stop  offset="0.6532" style="stop-color:#BD292F"/>
		<stop  offset="0.8043" style="stop-color:#9B2124"/>
		<stop  offset="0.9515" style="stop-color:#721718"/>
		<stop  offset="1" style="stop-color:#631313"/>
	</linearGradient>
	<rect x="0.17" y="0.633" clip-path="url(#SVGID_2_)" fill="url(#SVGID_3_)" width="24.656" height="25.879"/>
</g>
<g>
	<defs>
		<path id="SVGID_4_" d="M13.619,0.901c2.107,0,6.769,0.157,10.374,1.432v8.691c0,0,0.834,10.389-11.493,15.489
			C0.17,21.412,1.006,11.023,1.006,11.023V2.333C4.612,1.058,9.274,0.901,11.38,0.901c0.701,0,1.119,0.016,1.119,0.016
			S12.916,0.901,13.619,0.901 M12.5,0.019C12.368,0.014,11.972,0,11.38,0C5.719,0,2.226,0.937,0.645,1.497L0.013,1.72v0.613v8.661
			c-0.023,0.354-0.135,2.966,1.185,6.172c0.816,1.982,2.012,3.789,3.561,5.368c1.922,1.967,4.387,3.578,7.327,4.793L12.5,27.5
			l0.415-0.173c2.94-1.215,5.404-2.826,7.327-4.793c1.545-1.579,2.743-3.386,3.559-5.368c1.322-3.206,1.211-5.819,1.187-6.172V2.333
			V1.72l-0.632-0.223C22.775,0.937,19.277,0,13.619,0C13.028,0,12.628,0.014,12.5,0.019"/>
	</defs>
	<clipPath id="SVGID_5_">
		<use xlink:href="#SVGID_4_"  overflow="visible"/>
	</clipPath>
	
		<linearGradient id="SVGID_6_" gradientUnits="userSpaceOnUse" x1="-481.2666" y1="411.4316" x2="-479.6581" y2="411.4316" gradientTransform="matrix(15.5311 0 0 -15.5311 7474.6172 6403.7461)">
		<stop  offset="0" style="stop-color:#A0662A"/>
		<stop  offset="0.0112" style="stop-color:#A56E32"/>
		<stop  offset="0.0782" style="stop-color:#C09A5F"/>
		<stop  offset="0.1457" style="stop-color:#D7BE85"/>
		<stop  offset="0.2126" style="stop-color:#E8DBA2"/>
		<stop  offset="0.2788" style="stop-color:#F5EFB6"/>
		<stop  offset="0.344" style="stop-color:#FCFBC3"/>
		<stop  offset="0.4071" style="stop-color:#FFFFC7"/>
		<stop  offset="0.5782" style="stop-color:#FAEDA2"/>
		<stop  offset="0.7431" style="stop-color:#F6DE85"/>
		<stop  offset="0.837" style="stop-color:#F4D97A"/>
		<stop  offset="0.8759" style="stop-color:#F2D677"/>
		<stop  offset="0.9085" style="stop-color:#EBCB6D"/>
		<stop  offset="0.9387" style="stop-color:#DFBA5D"/>
		<stop  offset="0.9675" style="stop-color:#CFA247"/>
		<stop  offset="0.9951" style="stop-color:#BA822A"/>
		<stop  offset="1" style="stop-color:#B67C24"/>
	</linearGradient>
	<rect x="-0.123" clip-path="url(#SVGID_5_)" fill="url(#SVGID_6_)" width="25.245" height="27.5"/>
</g>
<g>
	<defs>
		<path id="SVGID_7_" d="M10.651,6.261c0-0.979,0.797-1.776,1.776-1.776c0.978,0,1.775,0.797,1.775,1.776v2.748h-3.551V6.261z
			 M8.902,6.261v2.748H7.956c-0.668,0-1.212,0.41-1.212,0.917v9.202c0,0.506,0.544,0.918,1.212,0.918h8.942
			c0.668,0,1.209-0.412,1.209-0.918V9.925c0-0.506-0.541-0.917-1.209-0.917h-0.946V6.261c0-1.944-1.581-3.527-3.524-3.527
			S8.902,4.316,8.902,6.261"/>
	</defs>
	<clipPath id="SVGID_8_">
		<use xlink:href="#SVGID_7_"  overflow="visible"/>
	</clipPath>
	
		<linearGradient id="SVGID_9_" gradientUnits="userSpaceOnUse" x1="-461.1201" y1="428.584" x2="-459.5103" y2="428.584" gradientTransform="matrix(7.0584 0 0 -7.0584 3261.5127 3036.5012)">
		<stop  offset="0" style="stop-color:#A0662A"/>
		<stop  offset="0.0112" style="stop-color:#A56E32"/>
		<stop  offset="0.0782" style="stop-color:#C09A5F"/>
		<stop  offset="0.1457" style="stop-color:#D7BE85"/>
		<stop  offset="0.2126" style="stop-color:#E8DBA2"/>
		<stop  offset="0.2788" style="stop-color:#F5EFB6"/>
		<stop  offset="0.344" style="stop-color:#FCFBC3"/>
		<stop  offset="0.4071" style="stop-color:#FFFFC7"/>
		<stop  offset="0.5782" style="stop-color:#FAEDA2"/>
		<stop  offset="0.7431" style="stop-color:#F6DE85"/>
		<stop  offset="0.837" style="stop-color:#F4D97A"/>
		<stop  offset="0.8759" style="stop-color:#F2D677"/>
		<stop  offset="0.9085" style="stop-color:#EBCB6D"/>
		<stop  offset="0.9387" style="stop-color:#DFBA5D"/>
		<stop  offset="0.9675" style="stop-color:#CFA247"/>
		<stop  offset="0.9951" style="stop-color:#BA822A"/>
		<stop  offset="1" style="stop-color:#B67C24"/>
	</linearGradient>
	<rect x="6.744" y="2.733" clip-path="url(#SVGID_8_)" fill="url(#SVGID_9_)" width="11.363" height="17.312"/>
</g>
<g>
	<defs>
		<path id="SVGID_10_" d="M11.657,6.261c0-0.426,0.346-0.77,0.77-0.77c0.423,0,0.767,0.344,0.767,0.77v1.74h-1.537V6.261z
			 M10.651,6.261v2.748h3.551V6.261c0-0.979-0.797-1.776-1.775-1.776C11.448,4.484,10.651,5.282,10.651,6.261 M6.744,19.127V9.925
			c0-0.504,0.544-0.917,1.212-0.917h0.946V6.261c0-1.944,1.583-3.527,3.525-3.527s3.524,1.583,3.524,3.527v2.748h0.946
			c0.668,0,1.209,0.412,1.209,0.917v9.202c0,0.506-0.541,0.918-1.209,0.918H7.956C7.288,20.045,6.744,19.633,6.744,19.127
			 M7.896,6.261v1.74C6.682,8.029,5.741,8.865,5.741,9.925v9.202c0,1.079,0.971,1.924,2.215,1.924h8.942
			c1.242,0,2.215-0.845,2.215-1.924V9.925c0-1.06-0.941-1.896-2.154-1.924v-1.74c0-2.498-2.034-4.532-4.531-4.532
			C9.928,1.729,7.896,3.763,7.896,6.261"/>
	</defs>
	<clipPath id="SVGID_11_">
		<use xlink:href="#SVGID_10_"  overflow="visible"/>
	</clipPath>
	
		<linearGradient id="SVGID_12_" gradientUnits="userSpaceOnUse" x1="-466.6763" y1="423.8711" x2="-465.0664" y2="423.8711" gradientTransform="matrix(8.308 0 0 -8.308 3882.9036 3532.9255)">
		<stop  offset="0" style="stop-color:#311113"/>
		<stop  offset="0.663" style="stop-color:#751113"/>
		<stop  offset="1" style="stop-color:#311113"/>
	</linearGradient>
	<rect x="5.741" y="1.729" clip-path="url(#SVGID_11_)" fill="url(#SVGID_12_)" width="13.372" height="19.322"/>
</g>
<g>
	<defs>
		<path id="SVGID_13_" d="M12.5,0.917c0,0-6.687-0.283-11.493,1.416v8.691c0,0-0.836,10.389,11.493,15.489
			c12.327-5.101,11.493-15.489,11.493-15.489V2.333c-3.604-1.274-8.261-1.434-10.367-1.434C12.919,0.899,12.5,0.917,12.5,0.917"/>
	</defs>
	<clipPath id="SVGID_14_">
		<use xlink:href="#SVGID_13_"  overflow="visible"/>
	</clipPath>
	
		<linearGradient id="SVGID_15_" gradientUnits="userSpaceOnUse" x1="-511.8989" y1="413.6348" x2="-510.2897" y2="413.6348" gradientTransform="matrix(0 15.912 15.912 0 -6569.2744 8146.2485)">
		<stop  offset="0" style="stop-color:#F83841"/>
		<stop  offset="0.1787" style="stop-color:#F43740"/>
		<stop  offset="0.342" style="stop-color:#E9343C"/>
		<stop  offset="0.4994" style="stop-color:#D73037"/>
		<stop  offset="0.6532" style="stop-color:#BD292F"/>
		<stop  offset="0.8043" style="stop-color:#9B2124"/>
		<stop  offset="0.9515" style="stop-color:#721718"/>
		<stop  offset="1" style="stop-color:#631313"/>
	</linearGradient>
	<rect x="0.17" y="0.633" clip-path="url(#SVGID_14_)" fill="url(#SVGID_15_)" width="24.656" height="25.879"/>
</g>
<g>
	<defs>
		<path id="SVGID_16_" d="M13.619,0.901c2.107,0,6.769,0.157,10.374,1.432v8.691c0,0,0.834,10.389-11.493,15.489
			C0.17,21.412,1.006,11.023,1.006,11.023V2.333C4.612,1.058,9.274,0.901,11.38,0.901c0.701,0,1.119,0.016,1.119,0.016
			S12.916,0.901,13.619,0.901 M12.5,0.019C12.368,0.014,11.972,0,11.38,0C5.719,0,2.226,0.937,0.645,1.497L0.013,1.72v0.613v8.661
			c-0.023,0.354-0.135,2.966,1.185,6.172c0.816,1.982,2.012,3.789,3.561,5.368c1.922,1.967,4.387,3.578,7.327,4.793L12.5,27.5
			l0.415-0.173c2.94-1.215,5.404-2.826,7.327-4.793c1.545-1.579,2.743-3.386,3.559-5.368c1.322-3.206,1.211-5.819,1.187-6.172V2.333
			V1.72l-0.632-0.223C22.775,0.937,19.277,0,13.619,0C13.028,0,12.628,0.014,12.5,0.019"/>
	</defs>
	<clipPath id="SVGID_17_">
		<use xlink:href="#SVGID_16_"  overflow="visible"/>
	</clipPath>
	
		<linearGradient id="SVGID_18_" gradientUnits="userSpaceOnUse" x1="-481.2666" y1="411.4316" x2="-479.6581" y2="411.4316" gradientTransform="matrix(15.5311 0 0 -15.5311 7474.6172 6403.7461)">
		<stop  offset="0" style="stop-color:#A0662A"/>
		<stop  offset="0.0112" style="stop-color:#A56E32"/>
		<stop  offset="0.0782" style="stop-color:#C09A5F"/>
		<stop  offset="0.1457" style="stop-color:#D7BE85"/>
		<stop  offset="0.2126" style="stop-color:#E8DBA2"/>
		<stop  offset="0.2788" style="stop-color:#F5EFB6"/>
		<stop  offset="0.344" style="stop-color:#FCFBC3"/>
		<stop  offset="0.4071" style="stop-color:#FFFFC7"/>
		<stop  offset="0.5782" style="stop-color:#FAEDA2"/>
		<stop  offset="0.7431" style="stop-color:#F6DE85"/>
		<stop  offset="0.837" style="stop-color:#F4D97A"/>
		<stop  offset="0.8759" style="stop-color:#F2D677"/>
		<stop  offset="0.9085" style="stop-color:#EBCB6D"/>
		<stop  offset="0.9387" style="stop-color:#DFBA5D"/>
		<stop  offset="0.9675" style="stop-color:#CFA247"/>
		<stop  offset="0.9951" style="stop-color:#BA822A"/>
		<stop  offset="1" style="stop-color:#B67C24"/>
	</linearGradient>
	<rect x="-0.123" clip-path="url(#SVGID_17_)" fill="url(#SVGID_18_)" width="25.245" height="27.5"/>
</g>
<g>
	<defs>
		<path id="SVGID_19_" d="M8.63,11.098h3.435v1.988H8.63V11.098z M3.697,9.422l1.682,1.679c0.362-0.314,0.739-0.673,1.118-1.033
			v6.796c0,2.531,0.976,3.181,4.302,3.181h5.894c2.773,0,3.5-0.737,3.861-3.259h-2.177c-0.214,1.029-0.608,1.251-1.83,1.251h-5.748
			c-1.88,0-2.169-0.16-2.169-1.21v-1.825h5.533V9.217H7.256c0.343-0.417,0.688-0.85,1.031-1.32h8.603
			c-0.124,4.104-0.269,5.64-0.561,6.019c-0.142,0.199-0.307,0.272-0.557,0.256c-0.198,0.011-0.495,0.005-0.841-0.012v2
			c0.806,0.032,1.539,0.016,2.014-0.073c0.542-0.09,0.957-0.272,1.32-0.814c0.506-0.706,0.669-2.82,0.831-8.495
			c0.018-0.27,0.036-0.905,0.036-0.905H9.587c0.149-0.255,0.285-0.509,0.42-0.759l-1.69-1.69l-0.03-0.009
			C7.332,5.764,5.583,8.004,3.697,9.422"/>
	</defs>
	<clipPath id="SVGID_20_">
		<use xlink:href="#SVGID_19_"  overflow="visible"/>
	</clipPath>
	
		<linearGradient id="SVGID_21_" gradientUnits="userSpaceOnUse" x1="-473.1738" y1="418.3545" x2="-471.5645" y2="418.3545" gradientTransform="matrix(10.4733 0 0 -10.4733 4959.374 4393.2637)">
		<stop  offset="0" style="stop-color:#A0662A"/>
		<stop  offset="0.0112" style="stop-color:#A56E32"/>
		<stop  offset="0.0782" style="stop-color:#C09A5F"/>
		<stop  offset="0.1457" style="stop-color:#D7BE85"/>
		<stop  offset="0.2126" style="stop-color:#E8DBA2"/>
		<stop  offset="0.2788" style="stop-color:#F5EFB6"/>
		<stop  offset="0.344" style="stop-color:#FCFBC3"/>
		<stop  offset="0.4071" style="stop-color:#FFFFC7"/>
		<stop  offset="0.5782" style="stop-color:#FAEDA2"/>
		<stop  offset="0.7431" style="stop-color:#F6DE85"/>
		<stop  offset="0.837" style="stop-color:#F4D97A"/>
		<stop  offset="0.8759" style="stop-color:#F2D677"/>
		<stop  offset="0.9085" style="stop-color:#EBCB6D"/>
		<stop  offset="0.9387" style="stop-color:#DFBA5D"/>
		<stop  offset="0.9675" style="stop-color:#CFA247"/>
		<stop  offset="0.9951" style="stop-color:#BA822A"/>
		<stop  offset="1" style="stop-color:#B67C24"/>
	</linearGradient>
	<rect x="3.697" y="3.414" clip-path="url(#SVGID_20_)" fill="url(#SVGID_21_)" width="16.856" height="16.631"/>
</g>
<g>
	<defs>
		<path id="SVGID_22_" d="M8.63,13.084h3.435v-1.989H8.63V13.084z M20.565,16.786h-0.012H20.565z M9.639,16.981
			c-0.001-0.043-0.003-0.093-0.003-0.154v-0.819h4.291v0.152c0,0.371,0.201,0.7,0.503,0.873h-3.631
			C10.158,17.033,9.815,17.01,9.639,16.981 M15.169,13.165V9.217c0-0.11-0.02-0.215-0.051-0.314h0.736
			c-0.054,1.457-0.148,3.522-0.309,4.268h-0.028C15.414,13.171,15.295,13.169,15.169,13.165 M3.697,9.422
			c1.886-1.418,3.637-3.658,4.59-6.008l0.03,0.009l1.69,1.69c-0.135,0.25-0.271,0.504-0.42,0.759h9.546c0,0-0.019,0.635-0.036,0.905
			c-0.162,5.675-0.325,7.789-0.831,8.495c-0.363,0.542-0.778,0.725-1.32,0.814c-0.332,0.061-0.789,0.089-1.309,0.089
			c-0.226,0-0.462-0.004-0.705-0.016v-2c0.218,0.012,0.42,0.017,0.586,0.017c0.096,0,0.18-0.003,0.255-0.005
			c0.021,0,0.046,0,0.069,0c0.214,0,0.358-0.074,0.487-0.254c0.29-0.38,0.437-1.918,0.562-6.021H8.287
			c-0.343,0.47-0.688,0.904-1.031,1.32h6.907v5.785H8.63v1.825c0,1.05,0.289,1.21,2.169,1.21h5.748c1.222,0,1.616-0.222,1.83-1.251
			h2.177c-0.361,2.522-1.088,3.259-3.861,3.259h-5.894c-3.326,0-4.302-0.649-4.302-3.181v-6.796
			c-0.379,0.36-0.756,0.718-1.118,1.033L3.697,9.422z M7.355,3.035c-0.857,2.113-2.492,4.25-4.261,5.582
			C2.862,8.794,2.716,9.06,2.694,9.35C2.675,9.64,2.779,9.928,2.987,10.132l1.68,1.68c0.193,0.197,0.454,0.294,0.712,0.294
			c0.036,0,0.076-0.001,0.112-0.006v4.764c0,3.501,1.948,4.187,5.308,4.187h5.894c3.157,0,4.39-1.019,4.846-4.03
			c0.019-0.075,0.025-0.154,0.025-0.234c0-0.558-0.443-1.006-0.998-1.006h-0.012h-1.418c0.598-0.885,0.785-2.633,0.966-8.976
			c0.017-0.244,0.037-0.901,0.037-0.901c0.007-0.273-0.094-0.536-0.284-0.731c-0.19-0.196-0.448-0.305-0.722-0.305h-8.151
			c-0.044-0.171-0.132-0.335-0.264-0.467l-1.688-1.69C8.91,2.595,8.765,2.509,8.604,2.46C8.507,2.432,8.407,2.417,8.308,2.417
			C7.903,2.417,7.512,2.652,7.355,3.035"/>
	</defs>
	<clipPath id="SVGID_23_">
		<use xlink:href="#SVGID_22_"  overflow="visible"/>
	</clipPath>
	
		<linearGradient id="SVGID_24_" gradientUnits="userSpaceOnUse" x1="-475.8315" y1="416.1016" x2="-474.2207" y2="416.1016" gradientTransform="matrix(11.7254 0 0 -11.7254 5581.9829 4890.6729)">
		<stop  offset="0" style="stop-color:#311113"/>
		<stop  offset="0.663" style="stop-color:#751113"/>
		<stop  offset="1" style="stop-color:#311113"/>
	</linearGradient>
	<rect x="2.675" y="2.417" clip-path="url(#SVGID_23_)" fill="url(#SVGID_24_)" width="18.888" height="18.633"/>
</g>
</svg>
