<svg id="圖層_1" data-name="圖層 1" xmlns="http://www.w3.org/2000/svg" xmlns:xlink="http://www.w3.org/1999/xlink" viewBox="0 0 20 17.5"><defs><style>.cls-1{fill:url(#未命名漸層);}</style><linearGradient id="未命名漸層" y1="11.24" x2="20.01" y2="11.24" gradientTransform="matrix(1, 0, 0, -1, 0, 20)" gradientUnits="userSpaceOnUse"><stop offset="0" stop-color="#563d29"/><stop offset="0.08" stop-color="#725437"/><stop offset="0.22" stop-color="#99744b"/><stop offset="0.36" stop-color="#b98e5c"/><stop offset="0.5" stop-color="#d2a369"/><stop offset="0.66" stop-color="#e4b272"/><stop offset="0.81" stop-color="#efba77"/><stop offset="1" stop-color="#f2bd79"/></linearGradient></defs><g id="kit"><path class="cls-1" d="M18.12,0H1.88A1.88,1.88,0,0,0,0,1.88V15.63a1.88,1.88,0,0,0,1.88,1.88H18.13A1.88,1.88,0,0,0,20,15.63V1.88A1.89,1.89,0,0,0,18.12,0Zm-.23,15.62H2.11a.23.23,0,0,1-.17-.07.24.24,0,0,1-.07-.17V2.11a.23.23,0,0,1,.07-.17.24.24,0,0,1,.17-.07H17.89a.23.23,0,0,1,.17.07.24.24,0,0,1,.07.17V15.39a.23.23,0,0,1-.07.17A.27.27,0,0,1,17.89,15.62ZM16.25,12V13a.47.47,0,0,1-.47.47H8A.47.47,0,0,1,7.5,13V12A.47.47,0,0,1,8,11.56h7.81A.47.47,0,0,1,16.25,12Zm0-3.75v.94a.47.47,0,0,1-.47.47H8a.47.47,0,0,1-.47-.47V8.28A.47.47,0,0,1,8,7.81h7.81A.47.47,0,0,1,16.25,8.28Zm0-3.75v.94a.47.47,0,0,1-.47.47H8a.47.47,0,0,1-.47-.47V4.53A.47.47,0,0,1,8,4.06h7.81A.47.47,0,0,1,16.25,4.53ZM6.41,5A1.41,1.41,0,1,1,5,3.59,1.41,1.41,0,0,1,6.41,5Zm0,3.75A1.41,1.41,0,1,1,5,7.34,1.41,1.41,0,0,1,6.41,8.75Zm0,3.75A1.41,1.41,0,1,1,5,11.09,1.41,1.41,0,0,1,6.41,12.5Z"/></g></svg>