<?xml version="1.0" encoding="utf-8"?>
<!-- Generator: Adobe Illustrator 25.2.3, SVG Export Plug-In . SVG Version: 6.00 Build 0)  -->
<svg version="1.1" id="圖層_1" xmlns="http://www.w3.org/2000/svg" xmlns:xlink="http://www.w3.org/1999/xlink" x="0px" y="0px"
	 viewBox="0 0 25 25" style="enable-background:new 0 0 25 25;" xml:space="preserve">
<style type="text/css">
	.st0{fill:url(#SVGID_1_);}
	.st1{fill:#FFFFFF;}
</style>
<g>
	<linearGradient id="SVGID_1_" gradientUnits="userSpaceOnUse" x1="12.5" y1="25" x2="12.5" y2="-9.094947e-13">
		<stop  offset="0" style="stop-color:#563D29"/>
		<stop  offset="1" style="stop-color:#F2BD79"/>
	</linearGradient>
	<circle class="st0" cx="12.5" cy="12.5" r="12.5"/>
	<g>
		<g>
			<path class="st1" d="M15.99,9.12c0,0.88-0.27,1.63-0.81,2.24c-0.6,0.69-1.44,1.09-2.52,1.19v2.77h-0.92v-3.67
				c0.58,0,0.99-0.26,1.22-0.79c0.19-0.43,0.28-1.1,0.28-2.02c0-1.92-0.39-2.88-1.17-2.88c-0.38,0-0.7,0.14-0.96,0.43
				c-0.25,0.3-0.38,0.63-0.38,0.98c0,0.04,0.12,0.26,0.36,0.66c0.24,0.42,0.36,0.87,0.36,1.36c0,0.48-0.11,0.87-0.34,1.17
				c-0.24,0.35-0.57,0.53-0.98,0.53c-0.44,0-0.79-0.21-1.06-0.64C8.8,10.03,8.66,9.47,8.66,8.78c0-0.87,0.28-1.64,0.85-2.32
				c0.69-0.8,1.63-1.21,2.83-1.21c1.11,0,2,0.4,2.69,1.21C15.67,7.22,15.99,8.1,15.99,9.12z M14.06,17.7c0,0.52-0.19,0.96-0.57,1.34
				c-0.35,0.36-0.79,0.55-1.3,0.55c-0.52,0-0.96-0.19-1.34-0.56c-0.36-0.36-0.55-0.8-0.55-1.32c0-0.51,0.19-0.95,0.57-1.32
				c0.36-0.36,0.8-0.55,1.32-0.55c0.51,0,0.95,0.19,1.32,0.57C13.88,16.75,14.06,17.18,14.06,17.7z"/>
		</g>
		<g>
			<path d="M15.99,9.12c0,0.88-0.27,1.63-0.81,2.24c-0.6,0.69-1.44,1.09-2.52,1.19v2.77h-0.92v-3.67c0.58,0,0.99-0.26,1.22-0.79
				c0.19-0.43,0.28-1.1,0.28-2.02c0-1.92-0.39-2.88-1.17-2.88c-0.38,0-0.7,0.14-0.96,0.43c-0.25,0.3-0.38,0.63-0.38,0.98
				c0,0.04,0.12,0.26,0.36,0.66c0.24,0.42,0.36,0.87,0.36,1.36c0,0.48-0.11,0.87-0.34,1.17c-0.24,0.35-0.57,0.53-0.98,0.53
				c-0.44,0-0.79-0.21-1.06-0.64C8.8,10.03,8.66,9.47,8.66,8.78c0-0.87,0.28-1.64,0.85-2.32c0.69-0.8,1.63-1.21,2.83-1.21
				c1.11,0,2,0.4,2.69,1.21C15.67,7.22,15.99,8.1,15.99,9.12z M14.06,17.7c0,0.52-0.19,0.96-0.57,1.34
				c-0.35,0.36-0.79,0.55-1.3,0.55c-0.52,0-0.96-0.19-1.34-0.56c-0.36-0.36-0.55-0.8-0.55-1.32c0-0.51,0.19-0.95,0.57-1.32
				c0.36-0.36,0.8-0.55,1.32-0.55c0.51,0,0.95,0.19,1.32,0.57C13.88,16.75,14.06,17.18,14.06,17.7z"/>
		</g>
	</g>
</g>
</svg>
