<svg id="圖層_1" data-name="圖層 1" xmlns="http://www.w3.org/2000/svg" xmlns:xlink="http://www.w3.org/1999/xlink" viewBox="0 0 16.01 15.99"><defs><style>.cls-1,.cls-2{fill:#333;stroke:#fff;stroke-linecap:round;stroke-linejoin:round;}.cls-1{stroke-width:0.63px;}.cls-2{stroke-width:0.72px;}.cls-3{fill:url(#未命名漸層_112);}.cls-4{fill:url(#未命名漸層_112-2);}.cls-5{fill:url(#未命名漸層_112-3);}</style><linearGradient id="未命名漸層_112" x1="1.13" y1="7.5" x2="16.8" y2="7.5" gradientUnits="userSpaceOnUse"><stop offset="0.41" stop-color="#ffffc5"/><stop offset="0.57" stop-color="#f9eda3"/><stop offset="0.74" stop-color="#f4dd85"/><stop offset="0.84" stop-color="#f2d77a"/><stop offset="0.88" stop-color="#f0d477"/><stop offset="0.91" stop-color="#e9c96d"/><stop offset="0.94" stop-color="#ddb85d"/><stop offset="0.97" stop-color="#cca046"/><stop offset="1" stop-color="#b78128"/><stop offset="1" stop-color="#b47c24"/></linearGradient><linearGradient id="未命名漸層_112-2" x1="1.12" y1="7.53" x2="16.8" y2="7.53" xlink:href="#未命名漸層_112"/><linearGradient id="未命名漸層_112-3" x1="1.02" y1="8" x2="17.01" y2="8" xlink:href="#未命名漸層_112"/></defs><title>video_btn_unable</title><rect class="cls-1" x="0.45" y="3.04" width="11.53" height="8.9" rx="1"/><polygon class="cls-2" points="15.45 7.88 15.45 7.88 15.45 10.95 13.01 9.3 11.97 9.3 11.97 7.34 11.97 7.34 11.97 5.75 13.01 5.75 15.45 4.1 15.45 7.88"/><rect x="0.45" y="3.04" width="11.53" height="8.9" rx="1"/><polygon points="15.45 7.88 15.45 7.88 15.45 10.95 13.01 9.3 11.97 9.3 11.97 7.34 11.97 7.34 11.97 5.75 13.01 5.75 15.45 4.1 15.45 7.88"/><path class="cls-3" d="M12,12.4H2.44A1.45,1.45,0,0,1,1,11V4.05A1.45,1.45,0,0,1,2.44,2.6H12a1.45,1.45,0,0,1,1.44,1.45V11A1.45,1.45,0,0,1,12,12.4ZM2.44,3.49a.56.56,0,0,0-.56.56V11a.56.56,0,0,0,.56.56H12a.56.56,0,0,0,.55-.56V4.05A.56.56,0,0,0,12,3.49Z" transform="translate(-0.99 0)"/><path class="cls-4" d="M16.44,11.4a.44.44,0,0,1-.25-.08L13.87,9.75H13a.45.45,0,0,1-.45-.45V5.76A.45.45,0,0,1,13,5.31h.9l2.32-1.57a.47.47,0,0,1,.46,0,.46.46,0,0,1,.23.4V11a.46.46,0,0,1-.23.4A.54.54,0,0,1,16.44,11.4Zm-3-2.55H14a.44.44,0,0,1,.25.08L16,10.11V5L14.25,6.13A.43.43,0,0,1,14,6.2h-.59Z" transform="translate(-0.99 0)"/><line x1="15.52" y1="0.5" x2="0.52" y2="15.5"/><path class="cls-5" d="M1.51,16a.49.49,0,0,1-.35-.15.5.5,0,0,1,0-.7l15-15a.5.5,0,0,1,.7,0,.5.5,0,0,1,0,.7l-15,15A.49.49,0,0,1,1.51,16Z" transform="translate(-0.99 0)"/></svg>