<?xml version="1.0" encoding="utf-8"?>
<!-- Generator: Adobe Illustrator 25.2.3, SVG Export Plug-In . SVG Version: 6.00 Build 0)  -->
<svg version="1.1" id="圖層_1" xmlns="http://www.w3.org/2000/svg" xmlns:xlink="http://www.w3.org/1999/xlink" x="0px" y="0px"
	 viewBox="0 0 20 22.25" style="enable-background:new 0 0 20 22.25;" xml:space="preserve">
<style type="text/css">
	.st0{fill:#F2BD79;}
</style>
<g>
	<path class="st0" d="M10.05,22.25c-0.03,0-0.06,0-0.09,0c-0.02-0.01-0.05-0.02-0.07-0.03c-0.43-0.14-0.87-0.25-1.29-0.41
		c-1.38-0.54-2.55-1.38-3.58-2.43c-1.69-1.73-2.83-3.8-3.63-6.06c-0.46-1.3-0.79-2.64-1.01-4C0.22,8.38,0.13,7.44,0.07,6.5
		C0.05,6.34,0.05,6.18,0.04,6.02C0.03,5.86,0.01,5.69,0,5.53c0-0.08,0-0.15,0-0.23c0.25-0.02,0.5-0.04,0.75-0.07
		c1.42-0.21,2.76-0.66,4.03-1.32C6.69,2.93,8.4,1.65,9.91,0.12C9.94,0.09,9.95,0.04,9.97,0c0.06,0.06,0.08,0.07,0.09,0.09
		c1.18,1.21,2.5,2.23,3.92,3.13c1.39,0.88,2.89,1.51,4.49,1.87c0.5,0.11,1.01,0.15,1.52,0.22c0,0.06,0,0.12,0,0.18
		c-0.01,0.04-0.02,0.07-0.02,0.11c-0.03,0.47-0.06,0.93-0.09,1.4c-0.08,1.13-0.23,2.25-0.46,3.35c-0.41,2-1.06,3.92-2.04,5.71
		c-0.81,1.49-1.81,2.83-3.09,3.95c-0.99,0.87-2.11,1.53-3.36,1.97C10.65,22.09,10.35,22.16,10.05,22.25z M18.16,6.63
		c-3.08-0.74-5.7-2.33-8.08-4.37C10.06,2.28,10.03,2.3,10,2.32C9.93,2.23,9.89,2.28,9.83,2.33C9.09,2.96,8.32,3.56,7.5,4.09
		C6.04,5.06,4.49,5.85,2.81,6.36c-0.32,0.1-0.65,0.18-0.97,0.27c0,0.04,0,0.08,0,0.12C1.89,7.7,1.99,8.65,2.15,9.58
		c0.3,1.72,0.78,3.37,1.52,4.95c0.67,1.43,1.52,2.73,2.63,3.85c1.01,1.02,2.18,1.81,3.55,2.25c0.09,0.03,0.2,0.03,0.28,0
		c0.52-0.16,1.01-0.38,1.48-0.65c1.36-0.78,2.45-1.85,3.35-3.12c1.32-1.86,2.14-3.93,2.65-6.14c0.25-1.08,0.41-2.17,0.49-3.28
		C18.13,7.17,18.15,6.9,18.16,6.63z"/>
	<path class="st0" d="M9.37,12.91c0.35-0.37,0.67-0.72,1.01-1.05c1.36-1.35,2.73-2.69,4.09-4.04c0.3-0.3,0.69-0.3,1,0
		c0.08,0.08,0.16,0.16,0.24,0.24c0.32,0.32,0.31,0.69-0.01,1.01c-0.67,0.67-1.35,1.33-2.03,2c-1.27,1.25-2.53,2.5-3.8,3.75
		c-0.18,0.18-0.38,0.27-0.63,0.23c-0.16-0.03-0.29-0.11-0.4-0.22c-0.95-0.94-1.9-1.88-2.85-2.82c-0.27-0.27-0.54-0.53-0.81-0.8
		c-0.3-0.3-0.3-0.68-0.01-0.98c0.08-0.08,0.16-0.16,0.24-0.24c0.31-0.31,0.7-0.31,1.01-0.01c0.94,0.93,1.88,1.85,2.81,2.78
		C9.28,12.78,9.31,12.83,9.37,12.91z"/>
</g>
</svg>
