<svg id="圖層_1" data-name="圖層 1" xmlns="http://www.w3.org/2000/svg" xmlns:xlink="http://www.w3.org/1999/xlink" viewBox="0 0 351 106.5"><defs><style>.cls-1,.cls-2{fill:#fff;}.cls-1{stroke:#b2b2b2;}.cls-1,.cls-10,.cls-11,.cls-6,.cls-8,.cls-9{stroke-miterlimit:10;}.cls-3{fill:red;}.cls-4{fill:#005dff;}.cls-5{fill:#ff302a;}.cls-10,.cls-11,.cls-6,.cls-7,.cls-8,.cls-9{fill:none;}.cls-6{stroke:red;stroke-width:2px;}.cls-7{stroke:#14b045;stroke-linejoin:round;stroke-width:2.7px;}.cls-10,.cls-7,.cls-9{stroke-linecap:round;}.cls-8{stroke:#000;}.cls-9{stroke:#005dff;}.cls-10,.cls-9{stroke-width:1.66px;}.cls-10{stroke:#ff302a;}.cls-11{stroke-width:0.8px;stroke:url(#未命名漸層);}</style><linearGradient id="未命名漸層" x1="0.5" y1="452.9" x2="350.5" y2="452.9" gradientTransform="translate(0 -452)" gradientUnits="userSpaceOnUse"><stop offset="0" stop-color="#b47c24" stop-opacity="0"/><stop offset="0.5" stop-color="#f2d77a"/><stop offset="1" stop-color="#b47c24" stop-opacity="0"/></linearGradient></defs><g id="圖層_1-2" data-name="圖層 1"><rect class="cls-1" x="0.5" y="1" width="17.5" height="17.5"/><rect class="cls-1" x="0.5" y="18.5" width="17.5" height="17.5"/><rect class="cls-1" x="0.5" y="36" width="17.5" height="17.5"/><rect class="cls-1" x="0.5" y="53.5" width="17.5" height="17.5"/><rect class="cls-1" x="0.5" y="71" width="17.5" height="17.5"/><rect class="cls-1" x="0.5" y="88.5" width="17.5" height="17.5"/><rect class="cls-1" x="18" y="1" width="17.5" height="17.5"/><rect class="cls-1" x="18" y="18.5" width="17.5" height="17.5"/><rect class="cls-1" x="18" y="36" width="17.5" height="17.5"/><rect class="cls-1" x="18" y="53.5" width="17.5" height="17.5"/><rect class="cls-1" x="18" y="71" width="17.5" height="17.5"/><rect class="cls-1" x="18" y="88.5" width="17.5" height="17.5"/><rect class="cls-1" x="35.5" y="1" width="17.5" height="17.5"/><rect class="cls-1" x="35.5" y="18.5" width="17.5" height="17.5"/><rect class="cls-1" x="35.5" y="36" width="17.5" height="17.5"/><rect class="cls-1" x="35.5" y="53.5" width="17.5" height="17.5"/><rect class="cls-1" x="35.5" y="71" width="17.5" height="17.5"/><rect class="cls-1" x="35.5" y="88.5" width="17.5" height="17.5"/><rect class="cls-1" x="53" y="1" width="17.5" height="17.5"/><rect class="cls-1" x="53" y="18.5" width="17.5" height="17.5"/><rect class="cls-1" x="53" y="36" width="17.5" height="17.5"/><rect class="cls-1" x="53" y="53.5" width="17.5" height="17.5"/><rect class="cls-1" x="53" y="71" width="17.5" height="17.5"/><rect class="cls-1" x="53" y="88.5" width="17.5" height="17.5"/><rect class="cls-1" x="70.5" y="1" width="17.5" height="17.5"/><rect class="cls-1" x="70.5" y="18.5" width="17.5" height="17.5"/><rect class="cls-1" x="70.5" y="36" width="17.5" height="17.5"/><rect class="cls-1" x="70.5" y="53.5" width="17.5" height="17.5"/><rect class="cls-1" x="70.5" y="71" width="17.5" height="17.5"/><rect class="cls-1" x="70.5" y="88.5" width="17.5" height="17.5"/><rect class="cls-2" x="88" y="1" width="17.5" height="17.5"/><rect class="cls-1" x="88" y="18.5" width="17.5" height="17.5"/><rect class="cls-1" x="88" y="36" width="17.5" height="17.5"/><rect class="cls-1" x="88" y="53.5" width="17.5" height="17.5"/><rect class="cls-1" x="88" y="71" width="17.5" height="17.5"/><rect class="cls-1" x="88" y="88.5" width="17.5" height="17.5"/><rect class="cls-1" x="105.5" y="1" width="17.5" height="17.5"/><rect class="cls-1" x="105.5" y="18.5" width="17.5" height="17.5"/><rect class="cls-1" x="105.5" y="36" width="17.5" height="17.5"/><rect class="cls-1" x="105.5" y="53.5" width="17.5" height="17.5"/><rect class="cls-1" x="105.5" y="71" width="17.5" height="17.5"/><rect class="cls-1" x="105.5" y="88.5" width="17.5" height="17.5"/><rect class="cls-1" x="123" y="1" width="17.5" height="17.5"/><rect class="cls-1" x="123" y="18.5" width="17.5" height="17.5"/><rect class="cls-1" x="123" y="36" width="17.5" height="17.5"/><rect class="cls-1" x="123" y="53.5" width="17.5" height="17.5"/><rect class="cls-1" x="123" y="71" width="17.5" height="17.5"/><rect class="cls-1" x="123" y="88.5" width="17.5" height="17.5"/><rect class="cls-1" x="140.5" y="1" width="17.5" height="17.5"/><rect class="cls-1" x="140.5" y="18.5" width="17.5" height="17.5"/><rect class="cls-1" x="140.5" y="36" width="17.5" height="17.5"/><rect class="cls-1" x="140.5" y="53.5" width="17.5" height="17.5"/><rect class="cls-1" x="140.5" y="71" width="17.5" height="17.5"/><rect class="cls-1" x="140.5" y="88.5" width="17.5" height="17.5"/><rect class="cls-1" x="158" y="1" width="17.5" height="17.5"/><circle class="cls-2" cx="131.8" cy="9.8" r="7.6"/><path class="cls-3" d="M131.8,3.3a6.5,6.5,0,1,1-6.5,6.5,6.49,6.49,0,0,1,6.5-6.5m0-2.3A8.81,8.81,0,0,0,123,9.8h0a8.8,8.8,0,1,0,17.6,0h0A8.88,8.88,0,0,0,131.8,1Z"/><circle class="cls-2" cx="149.3" cy="9.8" r="7.6"/><path class="cls-4" d="M149.3,3.3a6.5,6.5,0,1,1-6.5,6.5,6.49,6.49,0,0,1,6.5-6.5m0-2.3h0a8.81,8.81,0,0,0-8.8,8.8h0a8.81,8.81,0,0,0,8.8,8.8h0a8.81,8.81,0,0,0,8.8-8.8h0A8.88,8.88,0,0,0,149.3,1Z"/><circle class="cls-2" cx="166.8" cy="9.8" r="7.6"/><path class="cls-3" d="M166.8,3.3a6.5,6.5,0,1,1-6.5,6.5,6.49,6.49,0,0,1,6.5-6.5m0-2.3h0A8.81,8.81,0,0,0,158,9.8h0a8.81,8.81,0,0,0,8.8,8.8h0a8.81,8.81,0,0,0,8.8-8.8h0A8.88,8.88,0,0,0,166.8,1Z"/><rect class="cls-1" x="158" y="18.5" width="17.5" height="17.5"/><rect class="cls-1" x="158" y="36" width="17.5" height="17.5"/><rect class="cls-1" x="158" y="53.5" width="17.5" height="17.5"/><rect class="cls-1" x="158" y="71" width="17.5" height="17.5"/><rect class="cls-1" x="158" y="88.5" width="17.5" height="17.5"/><rect class="cls-1" x="175.5" y="1" width="17.5" height="17.5"/><rect class="cls-1" x="175.5" y="18.5" width="17.5" height="17.5"/><rect class="cls-1" x="175.5" y="36" width="17.5" height="17.5"/><rect class="cls-1" x="175.5" y="53.5" width="17.5" height="17.5"/><rect class="cls-1" x="175.5" y="71" width="17.5" height="17.5"/><rect class="cls-1" x="175.5" y="88.5" width="17.5" height="17.5"/><rect class="cls-1" x="193" y="1" width="17.5" height="17.5"/><rect class="cls-1" x="193" y="18.5" width="17.5" height="17.5"/><rect class="cls-1" x="193" y="36" width="17.5" height="17.5"/><rect class="cls-1" x="193" y="53.5" width="17.5" height="17.5"/><rect class="cls-1" x="193" y="71" width="17.5" height="17.5"/><rect class="cls-1" x="193" y="88.5" width="17.5" height="17.5"/><rect class="cls-1" x="210.5" y="1" width="17.5" height="17.5"/><rect class="cls-1" x="210.5" y="18.5" width="17.5" height="17.5"/><rect class="cls-1" x="210.5" y="36" width="17.5" height="17.5"/><rect class="cls-1" x="210.5" y="53.5" width="17.5" height="17.5"/><rect class="cls-1" x="210.5" y="71" width="17.5" height="17.5"/><rect class="cls-1" x="210.5" y="88.5" width="17.5" height="17.5"/><rect class="cls-1" x="228" y="1" width="17.5" height="17.5"/><rect class="cls-1" x="228" y="18.5" width="17.5" height="17.5"/><rect class="cls-1" x="228" y="36" width="17.5" height="17.5"/><rect class="cls-1" x="228" y="53.5" width="17.5" height="17.5"/><rect class="cls-1" x="228" y="71" width="17.5" height="17.5"/><rect class="cls-1" x="228" y="88.5" width="17.5" height="17.5"/><rect class="cls-1" x="245.5" y="1" width="17.5" height="17.5"/><rect class="cls-1" x="245.5" y="18.5" width="17.5" height="17.5"/><rect class="cls-1" x="245.5" y="36" width="17.5" height="17.5"/><rect class="cls-1" x="245.5" y="53.5" width="17.5" height="17.5"/><rect class="cls-1" x="245.5" y="71" width="17.5" height="17.5"/><rect class="cls-1" x="245.5" y="88.5" width="17.5" height="17.5"/><rect class="cls-1" x="263" y="1" width="17.5" height="17.5"/><rect class="cls-1" x="263" y="18.5" width="17.5" height="17.5"/><rect class="cls-1" x="263" y="36" width="17.5" height="17.5"/><rect class="cls-1" x="263" y="53.5" width="17.5" height="17.5"/><rect class="cls-1" x="263" y="71" width="17.5" height="17.5"/><rect class="cls-1" x="263" y="88.5" width="17.5" height="17.5"/><rect class="cls-1" x="280.5" y="1" width="17.5" height="17.5"/><rect class="cls-1" x="280.5" y="18.5" width="17.5" height="17.5"/><rect class="cls-1" x="280.5" y="36" width="17.5" height="17.5"/><rect class="cls-1" x="280.5" y="53.5" width="17.5" height="17.5"/><rect class="cls-1" x="280.5" y="71" width="17.5" height="17.5"/><rect class="cls-1" x="280.5" y="88.5" width="17.5" height="17.5"/><rect class="cls-1" x="298" y="1" width="17.5" height="17.5"/><rect class="cls-1" x="298" y="18.5" width="17.5" height="17.5"/><rect class="cls-1" x="298" y="36" width="17.5" height="17.5"/><rect class="cls-1" x="298" y="53.5" width="17.5" height="17.5"/><rect class="cls-1" x="298" y="71" width="17.5" height="17.5"/><rect class="cls-1" x="298" y="88.5" width="17.5" height="17.5"/><rect class="cls-1" x="315.5" y="1" width="17.5" height="17.5"/><rect class="cls-1" x="315.5" y="18.5" width="17.5" height="17.5"/><rect class="cls-1" x="315.5" y="36" width="17.5" height="17.5"/><rect class="cls-1" x="315.5" y="53.5" width="17.5" height="17.5"/><rect class="cls-1" x="315.5" y="71" width="17.5" height="17.5"/><rect class="cls-1" x="315.5" y="88.5" width="17.5" height="17.5"/><rect class="cls-1" x="333" y="1" width="17.5" height="17.5"/><rect class="cls-1" x="333" y="18.5" width="17.5" height="17.5"/><rect class="cls-1" x="333" y="36" width="17.5" height="17.5"/><rect class="cls-1" x="333" y="53.5" width="17.5" height="17.5"/><rect class="cls-1" x="333" y="71" width="17.5" height="17.5"/><rect class="cls-1" x="333" y="88.5" width="17.5" height="17.5"/><circle class="cls-2" cx="9.3" cy="9.8" r="7.6"/><path class="cls-4" d="M9.3,3.3A6.5,6.5,0,1,1,2.8,9.8,6.49,6.49,0,0,1,9.3,3.3M9.3,1h0A8.75,8.75,0,0,0,.5,9.8a8.75,8.75,0,0,0,8.8,8.8h0A8.8,8.8,0,0,0,9.3,1Z"/><circle class="cls-2" cx="26.8" cy="9.8" r="7.6"/><path class="cls-3" d="M26.8,3.3a6.5,6.5,0,1,1-6.5,6.5,6.49,6.49,0,0,1,6.5-6.5m0-2.3A8.75,8.75,0,0,0,18,9.8,8.8,8.8,0,1,0,26.8,1Z"/><circle class="cls-2" cx="44.3" cy="9.8" r="7.6"/><path class="cls-4" d="M44.3,3.3a6.5,6.5,0,1,1-6.5,6.5,6.49,6.49,0,0,1,6.5-6.5m0-2.3A8.8,8.8,0,1,0,53,9.8,8.81,8.81,0,0,0,44.3,1Z"/><circle class="cls-2" cx="61.8" cy="9.8" r="7.6"/><path class="cls-3" d="M61.8,3.3a6.5,6.5,0,1,1-6.5,6.5,6.49,6.49,0,0,1,6.5-6.5m0-2.3A8.75,8.75,0,0,0,53,9.8,8.8,8.8,0,1,0,61.8,1Z"/><circle class="cls-2" cx="79.3" cy="9.8" r="7.6"/><path class="cls-4" d="M79.3,3.3a6.5,6.5,0,1,1-6.5,6.5,6.49,6.49,0,0,1,6.5-6.5m0-2.3h0a8.8,8.8,0,1,0,0,17.6h0A8.8,8.8,0,0,0,79.3,1Z"/><circle class="cls-2" cx="96.8" cy="9.8" r="7.6"/><path class="cls-3" d="M96.8,3.3a6.5,6.5,0,1,1-6.5,6.5,6.49,6.49,0,0,1,6.5-6.5m0-2.3A8.75,8.75,0,0,0,88,9.8,8.8,8.8,0,1,0,96.8,1Z"/><path class="cls-2" d="M114.3,17.4a7.6,7.6,0,1,1,7.6-7.6A7.6,7.6,0,0,1,114.3,17.4Z"/><path class="cls-4" d="M114.3,3.3a6.5,6.5,0,1,1-6.5,6.5,6.49,6.49,0,0,1,6.5-6.5m0-2.3a8.8,8.8,0,1,0,8.8,8.8A8.81,8.81,0,0,0,114.3,1Z"/><circle class="cls-2" cx="61.8" cy="27.3" r="7.6"/><path class="cls-3" d="M61.8,20.8a6.5,6.5,0,1,1-6.5,6.5,6.49,6.49,0,0,1,6.5-6.5m0-2.3a8.8,8.8,0,1,0,8.8,8.8,8.81,8.81,0,0,0-8.8-8.8Z"/><circle class="cls-2" cx="44.3" cy="27.3" r="7.6"/><path class="cls-4" d="M44.3,20.8a6.5,6.5,0,1,1-6.5,6.5,6.49,6.49,0,0,1,6.5-6.5m0-2.3a8.8,8.8,0,1,0,8.8,8.8,8.81,8.81,0,0,0-8.8-8.8Z"/><circle class="cls-2" cx="9.3" cy="27.3" r="7.6"/><path class="cls-4" d="M9.3,20.8a6.5,6.5,0,1,1-6.5,6.5,6.49,6.49,0,0,1,6.5-6.5m0-2.3A8.81,8.81,0,0,0,.5,27.3,8.67,8.67,0,0,0,9.3,36a8.75,8.75,0,1,0,0-17.5Z"/><circle class="cls-2" cx="79.3" cy="27.3" r="7.6"/><path class="cls-4" d="M79.3,20.8a6.5,6.5,0,1,1-6.5,6.5,6.49,6.49,0,0,1,6.5-6.5m0-2.3a8.8,8.8,0,1,0,8.8,8.8,8.81,8.81,0,0,0-8.8-8.8Z"/><circle class="cls-2" cx="44.3" cy="44.8" r="7.6"/><path class="cls-4" d="M44.3,38.3a6.5,6.5,0,1,1-6.5,6.5,6.49,6.49,0,0,1,6.5-6.5m0-2.3a8.81,8.81,0,0,0-8.8,8.8h0a8.8,8.8,0,0,0,17.6,0h0A8.88,8.88,0,0,0,44.3,36Z"/><circle class="cls-2" cx="44.3" cy="62.3" r="7.6"/><path class="cls-4" d="M44.3,55.8a6.5,6.5,0,1,1-6.5,6.5,6.49,6.49,0,0,1,6.5-6.5m0-2.3a8.8,8.8,0,1,0,8.8,8.8,8.81,8.81,0,0,0-8.8-8.8Z"/><circle class="cls-2" cx="61.8" cy="44.8" r="7.6"/><path class="cls-3" d="M61.8,38.3a6.5,6.5,0,1,1-6.5,6.5,6.49,6.49,0,0,1,6.5-6.5m0-2.3A8.81,8.81,0,0,0,53,44.8h0a8.8,8.8,0,1,0,17.6,0h0A8.88,8.88,0,0,0,61.8,36Z"/><circle class="cls-2" cx="61.8" cy="62.3" r="7.6"/><path class="cls-3" d="M61.8,55.8a6.5,6.5,0,1,1-6.5,6.5,6.49,6.49,0,0,1,6.5-6.5m0-2.3a8.8,8.8,0,1,0,8.8,8.8,8.81,8.81,0,0,0-8.8-8.8Z"/><circle class="cls-2" cx="61.8" cy="79.8" r="7.6"/><path class="cls-3" d="M61.8,73.3a6.5,6.5,0,1,1-6.5,6.5,6.49,6.49,0,0,1,6.5-6.5m0-2.3a8.8,8.8,0,1,0,8.8,8.8A8.81,8.81,0,0,0,61.8,71Z"/><circle class="cls-2" cx="179.9" cy="5.4" r="3.8"/><path class="cls-4" d="M179.9,2.1a3.33,3.33,0,0,1,3.3,3.3,3.3,3.3,0,1,1-6.6,0,3.33,3.33,0,0,1,3.3-3.3m0-1.1a4.44,4.44,0,0,0-4.4,4.4,4.4,4.4,0,0,0,8.8,0A4.44,4.44,0,0,0,179.9,1Z"/><circle class="cls-2" cx="188.6" cy="5.4" r="3.8"/><path class="cls-5" d="M188.6,2.1a3.33,3.33,0,0,1,3.3,3.3,3.3,3.3,0,0,1-6.6,0,3.33,3.33,0,0,1,3.3-3.3m0-1.1a4.44,4.44,0,0,0-4.4,4.4,4.4,4.4,0,0,0,8.8,0A4.44,4.44,0,0,0,188.6,1Z"/><circle class="cls-2" cx="179.9" cy="14.1" r="3.8"/><path class="cls-4" d="M179.9,10.9a3.3,3.3,0,1,1-3.3,3.3,3.33,3.33,0,0,1,3.3-3.3m0-1.1a4.4,4.4,0,1,0,4.4,4.4,4.37,4.37,0,0,0-4.4-4.4Z"/><circle class="cls-2" cx="188.6" cy="14.1" r="3.8"/><path class="cls-5" d="M188.6,10.9a3.3,3.3,0,1,1-3.3,3.3,3.33,3.33,0,0,1,3.3-3.3m0-1.1a4.4,4.4,0,1,0,4.4,4.4,4.37,4.37,0,0,0-4.4-4.4Z"/><circle class="cls-2" cx="197.4" cy="5.4" r="3.8"/><path class="cls-4" d="M197.4,2.1a3.33,3.33,0,0,1,3.3,3.3,3.3,3.3,0,1,1-6.6,0,3.33,3.33,0,0,1,3.3-3.3m0-1.1A4.44,4.44,0,0,0,193,5.4a4.4,4.4,0,0,0,8.8,0A4.44,4.44,0,0,0,197.4,1Z"/><path class="cls-2" d="M206.1,9.2a3.8,3.8,0,1,1,3.8-3.8A3.8,3.8,0,0,1,206.1,9.2Z"/><path class="cls-5" d="M206.1,2.1a3.33,3.33,0,0,1,3.3,3.3,3.3,3.3,0,0,1-6.6,0,3.33,3.33,0,0,1,3.3-3.3m0-1.1a4.44,4.44,0,0,0-4.4,4.4,4.4,4.4,0,0,0,8.8,0A4.44,4.44,0,0,0,206.1,1Z"/><circle class="cls-2" cx="214.9" cy="5.4" r="3.8"/><path class="cls-4" d="M214.9,2.1a3.33,3.33,0,0,1,3.3,3.3,3.3,3.3,0,1,1-6.6,0,3.33,3.33,0,0,1,3.3-3.3m0-1.1a4.44,4.44,0,0,0-4.4,4.4,4.4,4.4,0,0,0,8.8,0A4.44,4.44,0,0,0,214.9,1Z"/><path class="cls-2" d="M206.1,17.9a3.8,3.8,0,1,1,3.8-3.8A3.8,3.8,0,0,1,206.1,17.9Z"/><path class="cls-5" d="M206.1,10.9a3.3,3.3,0,1,1-3.3,3.3,3.33,3.33,0,0,1,3.3-3.3m0-1.1a4.4,4.4,0,1,0,4.4,4.4,4.37,4.37,0,0,0-4.4-4.4Z"/><circle class="cls-2" cx="214.9" cy="14.1" r="3.8"/><path class="cls-4" d="M214.9,10.9a3.3,3.3,0,1,1-3.3,3.3,3.33,3.33,0,0,1,3.3-3.3m0-1.1a4.4,4.4,0,1,0,4.4,4.4,4.37,4.37,0,0,0-4.4-4.4Z"/><circle class="cls-2" cx="223.6" cy="5.4" r="3.8"/><path class="cls-5" d="M223.6,2.1a3.33,3.33,0,0,1,3.3,3.3,3.3,3.3,0,0,1-6.6,0,3.33,3.33,0,0,1,3.3-3.3m0-1.1a4.44,4.44,0,0,0-4.4,4.4,4.4,4.4,0,0,0,8.8,0A4.44,4.44,0,0,0,223.6,1Z"/><circle class="cls-2" cx="232.4" cy="5.4" r="3.8"/><path class="cls-4" d="M232.4,2.1a3.33,3.33,0,0,1,3.3,3.3,3.3,3.3,0,1,1-6.6,0,3.33,3.33,0,0,1,3.3-3.3m0-1.1A4.44,4.44,0,0,0,228,5.4a4.4,4.4,0,0,0,8.8,0A4.44,4.44,0,0,0,232.4,1Z"/><circle class="cls-2" cx="241.1" cy="5.4" r="3.8"/><path class="cls-5" d="M241.1,2.1a3.33,3.33,0,0,1,3.3,3.3,3.3,3.3,0,0,1-6.6,0,3.33,3.33,0,0,1,3.3-3.3m0-1.1a4.44,4.44,0,0,0-4.4,4.4,4.4,4.4,0,0,0,8.8,0A4.44,4.44,0,0,0,241.1,1Z"/><circle class="cls-2" cx="232.4" cy="14.1" r="3.8"/><path class="cls-4" d="M232.4,10.9a3.3,3.3,0,1,1-3.3,3.3,3.33,3.33,0,0,1,3.3-3.3m0-1.1a4.4,4.4,0,1,0,4.4,4.4,4.37,4.37,0,0,0-4.4-4.4Z"/><circle class="cls-2" cx="241.1" cy="14.1" r="3.8"/><path class="cls-5" d="M241.1,10.9a3.3,3.3,0,1,1-3.3,3.3,3.33,3.33,0,0,1,3.3-3.3m0-1.1a4.4,4.4,0,1,0,4.4,4.4,4.37,4.37,0,0,0-4.4-4.4Z"/><path class="cls-2" d="M206.1,26.7a3.8,3.8,0,1,1,3.8-3.8A3.8,3.8,0,0,1,206.1,26.7Z"/><path class="cls-5" d="M206.1,19.6a3.3,3.3,0,1,1-3.3,3.3,3.4,3.4,0,0,1,3.3-3.3m0-1.1a4.4,4.4,0,1,0,4.4,4.4,4.44,4.44,0,0,0-4.4-4.4Z"/><circle class="cls-2" cx="241.1" cy="22.9" r="3.8"/><path class="cls-5" d="M241.1,19.6a3.3,3.3,0,1,1-3.3,3.3,3.4,3.4,0,0,1,3.3-3.3m0-1.1a4.4,4.4,0,1,0,4.4,4.4,4.44,4.44,0,0,0-4.4-4.4Z"/><path class="cls-5" d="M179.9,62.3h0a4.44,4.44,0,0,1-4.4-4.4h0a4.44,4.44,0,0,1,4.4-4.4h0a4.44,4.44,0,0,1,4.4,4.4h0A4.44,4.44,0,0,1,179.9,62.3Z"/><path class="cls-4" d="M188.6,62.3h0a4.44,4.44,0,0,1-4.4-4.4h0a4.44,4.44,0,0,1,4.4-4.4h0a4.44,4.44,0,0,1,4.4,4.4h0A4.44,4.44,0,0,1,188.6,62.3Z"/><path class="cls-5" d="M197.4,62.3h0a4.44,4.44,0,0,1-4.4-4.4h0a4.44,4.44,0,0,1,4.4-4.4h0a4.44,4.44,0,0,1,4.4,4.4h0A4.44,4.44,0,0,1,197.4,62.3Z"/><path class="cls-4" d="M206.1,62.3h0a4.44,4.44,0,0,1-4.4-4.4h0a4.44,4.44,0,0,1,4.4-4.4h0a4.44,4.44,0,0,1,4.4,4.4h0A4.44,4.44,0,0,1,206.1,62.3Z"/><path class="cls-4" d="M206.1,71h0a4.44,4.44,0,0,1-4.4-4.4h0a4.44,4.44,0,0,1,4.4-4.4h0a4.44,4.44,0,0,1,4.4,4.4h0A4.44,4.44,0,0,1,206.1,71Z"/><path class="cls-5" d="M214.9,62.3h0a4.44,4.44,0,0,1-4.4-4.4h0a4.44,4.44,0,0,1,4.4-4.4h0a4.44,4.44,0,0,1,4.4,4.4h0A4.44,4.44,0,0,1,214.9,62.3Z"/><path class="cls-5" d="M214.9,71h0a4.44,4.44,0,0,1-4.4-4.4h0a4.44,4.44,0,0,1,4.4-4.4h0a4.44,4.44,0,0,1,4.4,4.4h0A4.44,4.44,0,0,1,214.9,71Z"/><path class="cls-4" d="M223.6,62.3h0a4.44,4.44,0,0,1-4.4-4.4h0a4.44,4.44,0,0,1,4.4-4.4h0a4.44,4.44,0,0,1,4.4,4.4h0A4.44,4.44,0,0,1,223.6,62.3Z"/><path class="cls-5" d="M232.4,62.3h0a4.44,4.44,0,0,1-4.4-4.4h0a4.44,4.44,0,0,1,4.4-4.4h0a4.44,4.44,0,0,1,4.4,4.4h0A4.44,4.44,0,0,1,232.4,62.3Z"/><path class="cls-4" d="M241.1,62.3h0a4.44,4.44,0,0,1-4.4-4.4h0a4.44,4.44,0,0,1,4.4-4.4h0a4.44,4.44,0,0,1,4.4,4.4h0A4.44,4.44,0,0,1,241.1,62.3Z"/><path class="cls-4" d="M241.1,71h0a4.44,4.44,0,0,1-4.4-4.4h0a4.44,4.44,0,0,1,4.4-4.4h0a4.44,4.44,0,0,1,4.4,4.4h0A4.44,4.44,0,0,1,241.1,71Z"/><path class="cls-5" d="M249.9,62.3h0a4.44,4.44,0,0,1-4.4-4.4h0a4.44,4.44,0,0,1,4.4-4.4h0a4.44,4.44,0,0,1,4.4,4.4h0A4.44,4.44,0,0,1,249.9,62.3Z"/><path class="cls-5" d="M249.9,71h0a4.44,4.44,0,0,1-4.4-4.4h0a4.44,4.44,0,0,1,4.4-4.4h0a4.44,4.44,0,0,1,4.4,4.4h0A4.44,4.44,0,0,1,249.9,71Z"/><path class="cls-5" d="M214.9,79.8h0a4.44,4.44,0,0,1-4.4-4.4h0a4.44,4.44,0,0,1,4.4-4.4h0a4.44,4.44,0,0,1,4.4,4.4h0A4.44,4.44,0,0,1,214.9,79.8Z"/><path class="cls-4" d="M241.1,79.8h0a4.44,4.44,0,0,1-4.4-4.4h0a4.44,4.44,0,0,1,4.4-4.4h0a4.44,4.44,0,0,1,4.4,4.4h0A4.44,4.44,0,0,1,241.1,79.8Z"/><rect class="cls-6" x="88" y="1" width="87.1" height="17.5"/><line class="cls-7" x1="156.3" y1="2.6" x2="142.2" y2="16.8"/><line class="cls-8" x1="175.5" y1="1" x2="175.5" y2="106"/><line class="cls-8" x1="263" y1="53.5" x2="263" y2="106"/><line class="cls-8" x1="350.5" y1="53.5" x2="175.5" y2="53.5"/><line class="cls-9" x1="278.3" y1="55.8" x2="274" y2="60"/><line class="cls-10" x1="269.5" y1="55.8" x2="265.3" y2="60"/><line class="cls-9" x1="295.8" y1="55.8" x2="291.5" y2="60"/><line class="cls-9" x1="295.8" y1="64.5" x2="291.5" y2="68.8"/><line class="cls-9" x1="295.8" y1="73.3" x2="291.5" y2="77.5"/><line class="cls-9" x1="295.8" y1="82" x2="291.5" y2="86.3"/><line class="cls-9" x1="295.8" y1="90.8" x2="291.5" y2="95"/><line class="cls-9" x1="295.8" y1="99.5" x2="291.5" y2="103.8"/><line class="cls-10" x1="287" y1="55.8" x2="282.8" y2="60"/><line class="cls-10" x1="287" y1="64.5" x2="282.8" y2="68.8"/><line class="cls-10" x1="304.5" y1="55.8" x2="300.3" y2="60"/><line class="cls-11" x1="0.5" y1="0.9" x2="350.5" y2="0.9"/></g></svg>