<svg id="圖層_1" data-name="圖層 1" xmlns="http://www.w3.org/2000/svg" viewBox="0 0 140.73 105.73"><defs><style>.cls-1,.cls-2{fill:#fff;}.cls-1{stroke:#000;stroke-miterlimit:10;}.cls-3{fill:#005dff;}.cls-4{fill:red;}</style></defs><g id="圖層_1-2" data-name="圖層 1"><rect class="cls-1" x="0.36" y="0.36" width="17.5" height="17.5"/><rect class="cls-1" x="17.86" y="0.36" width="17.5" height="17.5"/><rect class="cls-1" x="35.36" y="0.36" width="17.5" height="17.5"/><rect class="cls-1" x="52.86" y="0.36" width="17.5" height="17.5"/><rect class="cls-1" x="70.36" y="0.36" width="17.5" height="17.5"/><rect class="cls-1" x="87.86" y="0.36" width="17.5" height="17.5"/><rect class="cls-1" x="105.36" y="0.36" width="17.5" height="17.5"/><rect class="cls-1" x="122.86" y="0.36" width="17.5" height="17.5"/><rect class="cls-1" x="0.36" y="17.86" width="17.5" height="17.5"/><rect class="cls-1" x="17.86" y="17.86" width="17.5" height="17.5"/><rect class="cls-1" x="35.36" y="17.86" width="17.5" height="17.5"/><rect class="cls-1" x="52.86" y="17.86" width="17.5" height="17.5"/><path class="cls-2" d="M26.61,16.61a7.5,7.5,0,1,1,7.5-7.5A7.5,7.5,0,0,1,26.61,16.61Z"/><path class="cls-3" d="M26.61,2.86a6.25,6.25,0,1,1-6.25,6.25,6.25,6.25,0,0,1,6.25-6.25m0-2.5a8.75,8.75,0,0,0-8.75,8.75h0a8.75,8.75,0,0,0,17.5,0h0A8.75,8.75,0,0,0,26.61.36Z"/><path class="cls-2" d="M44.11,16.61a7.5,7.5,0,1,1,7.5-7.5A7.5,7.5,0,0,1,44.11,16.61Z"/><path class="cls-4" d="M44.11,2.86a6.25,6.25,0,1,1-6.25,6.25,6.25,6.25,0,0,1,6.25-6.25m0-2.5a8.75,8.75,0,0,0-8.75,8.75h0a8.75,8.75,0,0,0,17.5,0h0A8.75,8.75,0,0,0,44.11.36Z"/><path class="cls-2" d="M61.61,16.61a7.5,7.5,0,1,1,7.5-7.5A7.5,7.5,0,0,1,61.61,16.61Z"/><path class="cls-3" d="M61.61,2.86a6.25,6.25,0,1,1-6.25,6.25,6.25,6.25,0,0,1,6.25-6.25m0-2.5a8.75,8.75,0,0,0-8.75,8.75h0a8.75,8.75,0,0,0,17.5,0h0A8.75,8.75,0,0,0,61.61.36Z"/><path class="cls-2" d="M26.61,34.11a7.5,7.5,0,1,1,7.5-7.5A7.5,7.5,0,0,1,26.61,34.11Z"/><path class="cls-3" d="M26.61,20.36a6.25,6.25,0,1,1-6.25,6.25,6.25,6.25,0,0,1,6.25-6.25m0-2.5a8.75,8.75,0,0,0-8.75,8.75h0a8.75,8.75,0,0,0,17.5,0h0a8.75,8.75,0,0,0-8.75-8.75Z"/><path class="cls-2" d="M61.61,34.11a7.5,7.5,0,1,1,7.5-7.5A7.5,7.5,0,0,1,61.61,34.11Z"/><path class="cls-3" d="M61.61,20.36a6.25,6.25,0,1,1-6.25,6.25,6.25,6.25,0,0,1,6.25-6.25m0-2.5a8.75,8.75,0,0,0-8.75,8.75h0a8.75,8.75,0,0,0,17.5,0h0a8.75,8.75,0,0,0-8.75-8.75Z"/><rect class="cls-1" x="70.36" y="17.86" width="17.5" height="17.5"/><rect class="cls-1" x="87.86" y="17.86" width="17.5" height="17.5"/><rect class="cls-1" x="105.36" y="17.86" width="17.5" height="17.5"/><rect class="cls-1" x="122.86" y="17.86" width="17.5" height="17.5"/><rect class="cls-1" x="0.36" y="35.36" width="17.5" height="17.5"/><rect class="cls-1" x="17.86" y="35.36" width="17.5" height="17.5"/><rect class="cls-1" x="35.36" y="35.36" width="17.5" height="17.5"/><rect class="cls-1" x="52.86" y="35.36" width="17.5" height="17.5"/><rect class="cls-1" x="70.36" y="35.36" width="17.5" height="17.5"/><rect class="cls-1" x="87.86" y="35.36" width="17.5" height="17.5"/><rect class="cls-1" x="105.36" y="35.36" width="17.5" height="17.5"/><rect class="cls-1" x="122.86" y="35.36" width="17.5" height="17.5"/><rect class="cls-1" x="0.36" y="52.86" width="17.5" height="17.5"/><rect class="cls-1" x="17.86" y="52.86" width="17.5" height="17.5"/><rect class="cls-1" x="35.36" y="52.86" width="17.5" height="17.5"/><rect class="cls-1" x="52.86" y="52.86" width="17.5" height="17.5"/><rect class="cls-1" x="70.36" y="52.86" width="17.5" height="17.5"/><rect class="cls-1" x="87.86" y="52.86" width="17.5" height="17.5"/><rect class="cls-1" x="105.36" y="52.86" width="17.5" height="17.5"/><rect class="cls-1" x="122.86" y="52.86" width="17.5" height="17.5"/><rect class="cls-1" x="0.36" y="70.36" width="17.5" height="17.5"/><rect class="cls-1" x="17.86" y="70.36" width="17.5" height="17.5"/><rect class="cls-1" x="35.36" y="70.36" width="17.5" height="17.5"/><rect class="cls-1" x="52.86" y="70.36" width="17.5" height="17.5"/><rect class="cls-1" x="70.36" y="70.36" width="17.5" height="17.5"/><rect class="cls-1" x="87.86" y="70.36" width="17.5" height="17.5"/><rect class="cls-1" x="105.36" y="70.36" width="17.5" height="17.5"/><rect class="cls-1" x="122.86" y="70.36" width="17.5" height="17.5"/><rect class="cls-1" x="0.36" y="87.86" width="17.5" height="17.5"/><rect class="cls-1" x="17.86" y="87.86" width="17.5" height="17.5"/><rect class="cls-1" x="35.36" y="87.86" width="17.5" height="17.5"/><rect class="cls-1" x="52.86" y="87.86" width="17.5" height="17.5"/><rect class="cls-1" x="70.36" y="87.86" width="17.5" height="17.5"/><rect class="cls-1" x="87.86" y="87.86" width="17.5" height="17.5"/><rect class="cls-1" x="105.36" y="87.86" width="17.5" height="17.5"/><rect class="cls-1" x="122.86" y="87.86" width="17.5" height="17.5"/><circle class="cls-2" cx="9.11" cy="9.11" r="7.38"/><path class="cls-4" d="M9.11,3.1a6,6,0,1,1-6,6,6,6,0,0,1,6-6m0-2.74a8.75,8.75,0,1,0,8.75,8.75A8.75,8.75,0,0,0,9.11.36Z"/></g></svg>