<?xml version="1.0" encoding="utf-8"?>
<!-- Generator: Adobe Illustrator 23.0.3, SVG Export Plug-In . SVG Version: 6.00 Build 0)  -->
<svg version="1.1" id="Layer_1" xmlns="http://www.w3.org/2000/svg" xmlns:xlink="http://www.w3.org/1999/xlink" x="0px" y="0px"
	 viewBox="0 0 20 19" style="enable-background:new 0 0 20 19;" xml:space="preserve">
<style type="text/css">
	.st0{fill:#FFFF99;}
</style>
<g>
	<path class="st0" d="M18.6,10.1h-1.9V8.3c0-0.8-0.6-1.4-1.4-1.4c-0.8,0-1.4,0.6-1.4,1.4v1.8H12c-0.8,0-1.4,0.6-1.4,1.4
		c0,0.8,0.6,1.4,1.4,1.4h1.9v1.8c0,0.8,0.6,1.4,1.4,1.4c0.8,0,1.4-0.6,1.4-1.4v-1.8h1.9c0.8,0,1.4-0.6,1.4-1.4S19.4,10.1,18.6,10.1"
		/>
	<path class="st0" d="M7.5,7.3c2.1,0,3.7-1.6,3.7-3.6S9.5,0,7.5,0C5.4,0,3.7,1.6,3.7,3.6S5.4,7.3,7.5,7.3 M14.7,17.6
		c-1.1,0-3-0.5-3-3.2c0,0-3.5,0.3-3.2-2.9c0.1-1.4,1.1-2,2-2.2c-0.9-0.6-2-1-3.1-1C3.3,8.3,0,12.8,0,18.4c0,0.2,0,0.4,0,0.6h14.7
		c0-0.2,0-0.4,0-0.6C14.8,18.2,14.8,17.9,14.7,17.6"/>
</g>
</svg>
