<svg id="圖層_1" data-name="圖層 1" xmlns="http://www.w3.org/2000/svg" viewBox="0 0 60.25 45.25">
  <title>new_b2</title>
  <rect width="7.5" height="7.5" fill="#ccc" stroke="#666" stroke-miterlimit="10" stroke-width="0.25"/>
  <rect x="7.5" width="7.5" height="7.5" fill="#ccc" stroke="#666" stroke-miterlimit="10" stroke-width="0.25"/>
  <rect x="15" width="7.5" height="7.5" fill="#ccc" stroke="#666" stroke-miterlimit="10" stroke-width="0.25"/>
  <rect x="22.5" width="7.5" height="7.5" fill="#ccc" stroke="#666" stroke-miterlimit="10" stroke-width="0.25"/>
  <rect x="30" width="7.5" height="7.5" fill="#ccc" stroke="#666" stroke-miterlimit="10" stroke-width="0.25"/>
  <rect x="37.5" width="7.5" height="7.5" fill="#ccc" stroke="#666" stroke-miterlimit="10" stroke-width="0.25"/>
  <rect x="45" width="7.5" height="7.5" fill="#ccc" stroke="#666" stroke-miterlimit="10" stroke-width="0.25"/>
  <rect x="52.5" width="7.5" height="7.5" fill="#ccc" stroke="#666" stroke-miterlimit="10" stroke-width="0.25"/>
  <rect y="7.5" width="7.5" height="7.5" fill="#ccc" stroke="#666" stroke-miterlimit="10" stroke-width="0.25"/>
  <rect x="7.5" y="7.5" width="7.5" height="7.5" fill="#ccc" stroke="#666" stroke-miterlimit="10" stroke-width="0.25"/>
  <rect x="15" y="7.5" width="7.5" height="7.5" fill="#ccc" stroke="#666" stroke-miterlimit="10" stroke-width="0.25"/>
  <rect x="22.5" y="7.5" width="7.5" height="7.5" fill="#ccc" stroke="#666" stroke-miterlimit="10" stroke-width="0.25"/>
  <rect x="30" y="7.5" width="7.5" height="7.5" fill="#ccc" stroke="#666" stroke-miterlimit="10" stroke-width="0.25"/>
  <rect x="37.5" y="7.5" width="7.5" height="7.5" fill="#ccc" stroke="#666" stroke-miterlimit="10" stroke-width="0.25"/>
  <rect x="45" y="7.5" width="7.5" height="7.5" fill="#ccc" stroke="#666" stroke-miterlimit="10" stroke-width="0.25"/>
  <rect x="52.5" y="7.5" width="7.5" height="7.5" fill="#ccc" stroke="#666" stroke-miterlimit="10" stroke-width="0.25"/>
  <rect y="15" width="7.5" height="7.5" fill="#ccc" stroke="#666" stroke-miterlimit="10" stroke-width="0.25"/>
  <rect x="7.5" y="15" width="7.5" height="7.5" fill="#ccc" stroke="#666" stroke-miterlimit="10" stroke-width="0.25"/>
  <rect x="15" y="15" width="7.5" height="7.5" fill="#ccc" stroke="#666" stroke-miterlimit="10" stroke-width="0.25"/>
  <rect x="22.5" y="15" width="7.5" height="7.5" fill="#ccc" stroke="#666" stroke-miterlimit="10" stroke-width="0.25"/>
  <rect x="30" y="15" width="7.5" height="7.5" fill="#ccc" stroke="#666" stroke-miterlimit="10" stroke-width="0.25"/>
  <rect x="37.5" y="15" width="7.5" height="7.5" fill="#ccc" stroke="#666" stroke-miterlimit="10" stroke-width="0.25"/>
  <rect x="45" y="15" width="7.5" height="7.5" fill="#ccc" stroke="#666" stroke-miterlimit="10" stroke-width="0.25"/>
  <rect x="52.5" y="15" width="7.5" height="7.5" fill="#ccc" stroke="#666" stroke-miterlimit="10" stroke-width="0.25"/>
  <rect y="22.5" width="7.5" height="7.5" fill="#ccc" stroke="#666" stroke-miterlimit="10" stroke-width="0.25"/>
  <rect x="7.5" y="22.5" width="7.5" height="7.5" fill="#ccc" stroke="#666" stroke-miterlimit="10" stroke-width="0.25"/>
  <rect x="15" y="22.5" width="7.5" height="7.5" fill="#ccc" stroke="#666" stroke-miterlimit="10" stroke-width="0.25"/>
  <rect x="22.5" y="22.5" width="7.5" height="7.5" fill="#ccc" stroke="#666" stroke-miterlimit="10" stroke-width="0.25"/>
  <rect x="30" y="22.5" width="7.5" height="7.5" fill="#ccc" stroke="#666" stroke-miterlimit="10" stroke-width="0.25"/>
  <rect x="37.5" y="22.5" width="7.5" height="7.5" fill="#ccc" stroke="#666" stroke-miterlimit="10" stroke-width="0.25"/>
  <rect x="45" y="22.5" width="7.5" height="7.5" fill="#ccc" stroke="#666" stroke-miterlimit="10" stroke-width="0.25"/>
  <rect x="52.5" y="22.5" width="7.5" height="7.5" fill="#ccc" stroke="#666" stroke-miterlimit="10" stroke-width="0.25"/>
  <rect y="30" width="7.5" height="7.5" fill="#ccc" stroke="#666" stroke-miterlimit="10" stroke-width="0.25"/>
  <rect x="7.5" y="30" width="7.5" height="7.5" fill="#ccc" stroke="#666" stroke-miterlimit="10" stroke-width="0.25"/>
  <rect x="15" y="30" width="7.5" height="7.5" fill="#ccc" stroke="#666" stroke-miterlimit="10" stroke-width="0.25"/>
  <rect x="22.5" y="30" width="7.5" height="7.5" fill="#ccc" stroke="#666" stroke-miterlimit="10" stroke-width="0.25"/>
  <rect x="30" y="30" width="7.5" height="7.5" fill="#ccc" stroke="#666" stroke-miterlimit="10" stroke-width="0.25"/>
  <rect x="37.5" y="30" width="7.5" height="7.5" fill="#ccc" stroke="#666" stroke-miterlimit="10" stroke-width="0.25"/>
  <rect x="45" y="30" width="7.5" height="7.5" fill="#ccc" stroke="#666" stroke-miterlimit="10" stroke-width="0.25"/>
  <rect x="52.5" y="30" width="7.5" height="7.5" fill="#ccc" stroke="#666" stroke-miterlimit="10" stroke-width="0.25"/>
  <path d="M7.5,45H5a5,5,0,0,1-5-5V37.5H7.5Z" fill="#ccc" stroke="#666" stroke-miterlimit="10" stroke-width="0.25"/>
  <rect x="7.5" y="37.5" width="7.5" height="7.5" fill="#ccc" stroke="#666" stroke-miterlimit="10" stroke-width="0.25"/>
  <rect x="15" y="37.5" width="7.5" height="7.5" fill="#ccc" stroke="#666" stroke-miterlimit="10" stroke-width="0.25"/>
  <rect x="22.5" y="37.5" width="7.5" height="7.5" fill="#ccc" stroke="#666" stroke-miterlimit="10" stroke-width="0.25"/>
  <rect x="30" y="37.5" width="7.5" height="7.5" fill="#ccc" stroke="#666" stroke-miterlimit="10" stroke-width="0.25"/>
  <rect x="37.5" y="37.5" width="7.5" height="7.5" fill="#ccc" stroke="#666" stroke-miterlimit="10" stroke-width="0.25"/>
  <rect x="45" y="37.5" width="7.5" height="7.5" fill="#ccc" stroke="#666" stroke-miterlimit="10" stroke-width="0.25"/>
  <path d="M55,45H52.5V37.5H60V40A5.08,5.08,0,0,1,55,45Z" fill="#ccc" stroke="#666" stroke-miterlimit="10" stroke-width="0.25"/>
  <path d="M11.25,1.25a2.55,2.55,0,0,1,2.6,2.5,2.65,2.65,0,0,1-2.6,2.6,2.55,2.55,0,0,1-2.5-2.6,2.48,2.48,0,0,1,2.46-2.5h0m0-.9a3.37,3.37,0,0,0-3.4,3.34v.06a3.37,3.37,0,0,0,3.34,3.4h.06a3.37,3.37,0,0,0,3.4-3.34V3.75A3.31,3.31,0,0,0,11.43.35Z" fill="#666"/>
  <path d="M26.34,1.24a2.55,2.55,0,0,1,2.6,2.5,2.6,2.6,0,1,1-5.2,0,2.63,2.63,0,0,1,2.6-2.5m0-.9A3.4,3.4,0,0,0,26,7.15h.37a3.38,3.38,0,0,0,3.4-3.34V3.76A3.31,3.31,0,0,0,26.52.36.54.54,0,0,0,26.34.36Z" fill="#666"/>
  <path d="M3.75,1.29A2.62,2.62,0,0,1,6.4,3.84a2.65,2.65,0,0,1-5.29,0A2.61,2.61,0,0,1,3.75,1.29m0-.91A3.43,3.43,0,0,0,.29,3.77a.15.15,0,0,0,0,.07,3.46,3.46,0,0,0,6.91,0A3.44,3.44,0,0,0,3.81.38Z" fill="#666"/>
  <path d="M18.75,1.29A2.62,2.62,0,0,1,21.4,3.84a2.65,2.65,0,0,1-5.29,0,2.61,2.61,0,0,1,2.64-2.55m0-.91a3.43,3.43,0,0,0-3.46,3.39.15.15,0,0,0,0,.07,3.46,3.46,0,0,0,6.91,0A3.44,3.44,0,0,0,18.81.38Z" fill="#666"/>
</svg>
