<svg id="圖層_1" data-name="圖層 1" xmlns="http://www.w3.org/2000/svg" viewBox="0 0 60.25 45.25">
  <title>00</title>
  <g>
    <rect x="0.13" y="0.13" width="7.5" height="7.5" fill="#fff" stroke="#000" stroke-miterlimit="10" stroke-width="0.25"/>
    <rect x="7.62" y="0.13" width="7.5" height="7.5" fill="#fff" stroke="#000" stroke-miterlimit="10" stroke-width="0.25"/>
    <rect x="15.12" y="0.13" width="7.5" height="7.5" fill="#fff" stroke="#000" stroke-miterlimit="10" stroke-width="0.25"/>
    <rect x="22.62" y="0.13" width="7.5" height="7.5" fill="#fff" stroke="#000" stroke-miterlimit="10" stroke-width="0.25"/>
    <rect x="30.12" y="0.13" width="7.5" height="7.5" fill="#fff" stroke="#000" stroke-miterlimit="10" stroke-width="0.25"/>
    <rect x="37.63" y="0.13" width="7.5" height="7.5" fill="#fff" stroke="#000" stroke-miterlimit="10" stroke-width="0.25"/>
    <rect x="45.13" y="0.13" width="7.5" height="7.5" fill="#fff" stroke="#000" stroke-miterlimit="10" stroke-width="0.25"/>
    <rect x="52.63" y="0.13" width="7.5" height="7.5" fill="#fff" stroke="#000" stroke-miterlimit="10" stroke-width="0.25"/>
    <rect x="0.13" y="7.63" width="7.5" height="7.5" fill="#fff" stroke="#000" stroke-miterlimit="10" stroke-width="0.25"/>
    <rect x="7.62" y="7.63" width="7.5" height="7.5" fill="#fff" stroke="#000" stroke-miterlimit="10" stroke-width="0.25"/>
    <rect x="15.12" y="7.63" width="7.5" height="7.5" fill="#fff" stroke="#000" stroke-miterlimit="10" stroke-width="0.25"/>
    <rect x="22.62" y="7.63" width="7.5" height="7.5" fill="#fff" stroke="#000" stroke-miterlimit="10" stroke-width="0.25"/>
    <rect x="30.12" y="7.63" width="7.5" height="7.5" fill="#fff" stroke="#000" stroke-miterlimit="10" stroke-width="0.25"/>
    <rect x="37.63" y="7.63" width="7.5" height="7.5" fill="#fff" stroke="#000" stroke-miterlimit="10" stroke-width="0.25"/>
    <rect x="45.13" y="7.63" width="7.5" height="7.5" fill="#fff" stroke="#000" stroke-miterlimit="10" stroke-width="0.25"/>
    <rect x="52.63" y="7.63" width="7.5" height="7.5" fill="#fff" stroke="#000" stroke-miterlimit="10" stroke-width="0.25"/>
    <rect x="0.13" y="15.13" width="7.5" height="7.5" fill="#fff" stroke="#000" stroke-miterlimit="10" stroke-width="0.25"/>
    <rect x="7.62" y="15.13" width="7.5" height="7.5" fill="#fff" stroke="#000" stroke-miterlimit="10" stroke-width="0.25"/>
    <rect x="15.12" y="15.13" width="7.5" height="7.5" fill="#fff" stroke="#000" stroke-miterlimit="10" stroke-width="0.25"/>
    <rect x="22.62" y="15.13" width="7.5" height="7.5" fill="#fff" stroke="#000" stroke-miterlimit="10" stroke-width="0.25"/>
    <rect x="30.12" y="15.13" width="7.5" height="7.5" fill="#fff" stroke="#000" stroke-miterlimit="10" stroke-width="0.25"/>
    <rect x="37.63" y="15.13" width="7.5" height="7.5" fill="#fff" stroke="#000" stroke-miterlimit="10" stroke-width="0.25"/>
    <rect x="45.13" y="15.13" width="7.5" height="7.5" fill="#fff" stroke="#000" stroke-miterlimit="10" stroke-width="0.25"/>
    <rect x="52.63" y="15.13" width="7.5" height="7.5" fill="#fff" stroke="#000" stroke-miterlimit="10" stroke-width="0.25"/>
    <rect x="0.13" y="22.63" width="7.5" height="7.5" fill="#fff" stroke="#000" stroke-miterlimit="10" stroke-width="0.25"/>
    <rect x="7.62" y="22.63" width="7.5" height="7.5" fill="#fff" stroke="#000" stroke-miterlimit="10" stroke-width="0.25"/>
    <rect x="15.12" y="22.63" width="7.5" height="7.5" fill="#fff" stroke="#000" stroke-miterlimit="10" stroke-width="0.25"/>
    <rect x="22.62" y="22.63" width="7.5" height="7.5" fill="#fff" stroke="#000" stroke-miterlimit="10" stroke-width="0.25"/>
    <rect x="30.12" y="22.63" width="7.5" height="7.5" fill="#fff" stroke="#000" stroke-miterlimit="10" stroke-width="0.25"/>
    <rect x="37.63" y="22.63" width="7.5" height="7.5" fill="#fff" stroke="#000" stroke-miterlimit="10" stroke-width="0.25"/>
    <rect x="45.13" y="22.63" width="7.5" height="7.5" fill="#fff" stroke="#000" stroke-miterlimit="10" stroke-width="0.25"/>
    <rect x="52.63" y="22.63" width="7.5" height="7.5" fill="#fff" stroke="#000" stroke-miterlimit="10" stroke-width="0.25"/>
    <rect x="0.13" y="30.13" width="7.5" height="7.5" fill="#fff" stroke="#000" stroke-miterlimit="10" stroke-width="0.25"/>
    <rect x="7.62" y="30.13" width="7.5" height="7.5" fill="#fff" stroke="#000" stroke-miterlimit="10" stroke-width="0.25"/>
    <rect x="15.12" y="30.13" width="7.5" height="7.5" fill="#fff" stroke="#000" stroke-miterlimit="10" stroke-width="0.25"/>
    <rect x="22.62" y="30.13" width="7.5" height="7.5" fill="#fff" stroke="#000" stroke-miterlimit="10" stroke-width="0.25"/>
    <rect x="30.12" y="30.13" width="7.5" height="7.5" fill="#fff" stroke="#000" stroke-miterlimit="10" stroke-width="0.25"/>
    <rect x="37.63" y="30.13" width="7.5" height="7.5" fill="#fff" stroke="#000" stroke-miterlimit="10" stroke-width="0.25"/>
    <rect x="45.13" y="30.13" width="7.5" height="7.5" fill="#fff" stroke="#000" stroke-miterlimit="10" stroke-width="0.25"/>
    <rect x="52.63" y="30.13" width="7.5" height="7.5" fill="#fff" stroke="#000" stroke-miterlimit="10" stroke-width="0.25"/>
    <path d="M7.62,45.13H5.13a5,5,0,0,1-5-5v-2.5H7.62Z" fill="#fff" stroke="#000" stroke-miterlimit="10" stroke-width="0.25"/>
    <rect x="7.62" y="37.63" width="7.5" height="7.5" fill="#fff" stroke="#000" stroke-miterlimit="10" stroke-width="0.25"/>
    <rect x="15.12" y="37.63" width="7.5" height="7.5" fill="#fff" stroke="#000" stroke-miterlimit="10" stroke-width="0.25"/>
    <rect x="22.62" y="37.63" width="7.5" height="7.5" fill="#fff" stroke="#000" stroke-miterlimit="10" stroke-width="0.25"/>
    <rect x="30.12" y="37.63" width="7.5" height="7.5" fill="#fff" stroke="#000" stroke-miterlimit="10" stroke-width="0.25"/>
    <rect x="37.63" y="37.63" width="7.5" height="7.5" fill="#fff" stroke="#000" stroke-miterlimit="10" stroke-width="0.25"/>
    <rect x="45.13" y="37.63" width="7.5" height="7.5" fill="#fff" stroke="#000" stroke-miterlimit="10" stroke-width="0.25"/>
    <path d="M55.13,45.13h-2.5v-7.5h7.5v2.5A5.09,5.09,0,0,1,55.13,45.13Z" fill="#fff" stroke="#000" stroke-miterlimit="10" stroke-width="0.25"/>
  </g>
  <g>
    <path d="M3.87,1.38a2.56,2.56,0,0,1,2.6,2.5,2.65,2.65,0,0,1-2.6,2.6,2.56,2.56,0,0,1-2.5-2.6,2.48,2.48,0,0,1,2.5-2.5m0-.9a3.37,3.37,0,0,0-3.4,3.4,3.37,3.37,0,0,0,3.4,3.4,3.37,3.37,0,0,0,3.4-3.4A3.31,3.31,0,0,0,3.87.48Z" fill="red"/>
    <path d="M3.87,8.88a2.56,2.56,0,0,1,2.6,2.5A2.65,2.65,0,0,1,3.87,14a2.65,2.65,0,0,1-2.6-2.6,2.63,2.63,0,0,1,2.6-2.5m0-.9a3.4,3.4,0,1,0,0,6.79,3.37,3.37,0,0,0,3.4-3.39A3.31,3.31,0,0,0,3.87,8Z" fill="red"/>
    <path d="M3.87,16.28a2.6,2.6,0,1,1,0,5.2,2.65,2.65,0,0,1-2.6-2.6,2.72,2.72,0,0,1,2.6-2.6m0-.8a3.4,3.4,0,1,0,0,6.79,3.37,3.37,0,0,0,3.4-3.39,3.31,3.31,0,0,0-3.4-3.4Z" fill="red"/>
    <path d="M3.87,23.88a2.6,2.6,0,0,1,0,5.2,2.6,2.6,0,0,1,0-5.2m0-.9a3.4,3.4,0,1,0,0,6.79,3.37,3.37,0,0,0,3.4-3.39A3.31,3.31,0,0,0,3.87,23Z" fill="red"/>
  </g>
</svg>
