<svg id="圖層_1" data-name="圖層 1" xmlns="http://www.w3.org/2000/svg" viewBox="0 0 60.25 45.25">
  <title>new_g5</title>
  <rect x="0.13" y="0.13" width="7.5" height="7.5" fill="#fff" stroke="#000" stroke-miterlimit="10" stroke-width="0.25"/>
  <rect x="7.62" y="0.13" width="7.5" height="7.5" fill="#fff" stroke="#000" stroke-miterlimit="10" stroke-width="0.25"/>
  <rect x="15.12" y="0.13" width="7.5" height="7.5" fill="#fff" stroke="#000" stroke-miterlimit="10" stroke-width="0.25"/>
  <rect x="22.62" y="0.13" width="7.5" height="7.5" fill="#fff" stroke="#000" stroke-miterlimit="10" stroke-width="0.25"/>
  <rect x="30.12" y="0.13" width="7.5" height="7.5" fill="#fff" stroke="#000" stroke-miterlimit="10" stroke-width="0.25"/>
  <rect x="37.63" y="0.13" width="7.5" height="7.5" fill="#fff" stroke="#000" stroke-miterlimit="10" stroke-width="0.25"/>
  <rect x="45.13" y="0.13" width="7.5" height="7.5" fill="#fff" stroke="#000" stroke-miterlimit="10" stroke-width="0.25"/>
  <rect x="52.63" y="0.13" width="7.5" height="7.5" fill="#fff" stroke="#000" stroke-miterlimit="10" stroke-width="0.25"/>
  <rect x="0.13" y="7.63" width="7.5" height="7.5" fill="#fff" stroke="#000" stroke-miterlimit="10" stroke-width="0.25"/>
  <rect x="7.62" y="7.63" width="7.5" height="7.5" fill="#fff" stroke="#000" stroke-miterlimit="10" stroke-width="0.25"/>
  <rect x="15.12" y="7.63" width="7.5" height="7.5" fill="#fff" stroke="#000" stroke-miterlimit="10" stroke-width="0.25"/>
  <rect x="22.62" y="7.63" width="7.5" height="7.5" fill="#fff" stroke="#000" stroke-miterlimit="10" stroke-width="0.25"/>
  <rect x="30.12" y="7.63" width="7.5" height="7.5" fill="#fff" stroke="#000" stroke-miterlimit="10" stroke-width="0.25"/>
  <rect x="37.63" y="7.63" width="7.5" height="7.5" fill="#fff" stroke="#000" stroke-miterlimit="10" stroke-width="0.25"/>
  <rect x="45.13" y="7.63" width="7.5" height="7.5" fill="#fff" stroke="#000" stroke-miterlimit="10" stroke-width="0.25"/>
  <rect x="52.63" y="7.63" width="7.5" height="7.5" fill="#fff" stroke="#000" stroke-miterlimit="10" stroke-width="0.25"/>
  <rect x="0.13" y="15.13" width="7.5" height="7.5" fill="#fff" stroke="#000" stroke-miterlimit="10" stroke-width="0.25"/>
  <rect x="7.62" y="15.13" width="7.5" height="7.5" fill="#fff" stroke="#000" stroke-miterlimit="10" stroke-width="0.25"/>
  <rect x="15.12" y="15.13" width="7.5" height="7.5" fill="#fff" stroke="#000" stroke-miterlimit="10" stroke-width="0.25"/>
  <rect x="22.62" y="15.13" width="7.5" height="7.5" fill="#fff" stroke="#000" stroke-miterlimit="10" stroke-width="0.25"/>
  <rect x="30.12" y="15.13" width="7.5" height="7.5" fill="#fff" stroke="#000" stroke-miterlimit="10" stroke-width="0.25"/>
  <rect x="37.63" y="15.13" width="7.5" height="7.5" fill="#fff" stroke="#000" stroke-miterlimit="10" stroke-width="0.25"/>
  <rect x="45.13" y="15.13" width="7.5" height="7.5" fill="#fff" stroke="#000" stroke-miterlimit="10" stroke-width="0.25"/>
  <rect x="52.63" y="15.13" width="7.5" height="7.5" fill="#fff" stroke="#000" stroke-miterlimit="10" stroke-width="0.25"/>
  <rect x="0.13" y="22.63" width="7.5" height="7.5" fill="#fff" stroke="#000" stroke-miterlimit="10" stroke-width="0.25"/>
  <rect x="7.62" y="22.63" width="7.5" height="7.5" fill="#fff" stroke="#000" stroke-miterlimit="10" stroke-width="0.25"/>
  <rect x="15.12" y="22.63" width="7.5" height="7.5" fill="#fff" stroke="#000" stroke-miterlimit="10" stroke-width="0.25"/>
  <rect x="22.62" y="22.63" width="7.5" height="7.5" fill="#fff" stroke="#000" stroke-miterlimit="10" stroke-width="0.25"/>
  <rect x="30.12" y="22.63" width="7.5" height="7.5" fill="#fff" stroke="#000" stroke-miterlimit="10" stroke-width="0.25"/>
  <rect x="37.63" y="22.63" width="7.5" height="7.5" fill="#fff" stroke="#000" stroke-miterlimit="10" stroke-width="0.25"/>
  <rect x="45.13" y="22.63" width="7.5" height="7.5" fill="#fff" stroke="#000" stroke-miterlimit="10" stroke-width="0.25"/>
  <rect x="52.63" y="22.63" width="7.5" height="7.5" fill="#fff" stroke="#000" stroke-miterlimit="10" stroke-width="0.25"/>
  <rect x="0.13" y="30.13" width="7.5" height="7.5" fill="#fff" stroke="#000" stroke-miterlimit="10" stroke-width="0.25"/>
  <rect x="7.62" y="30.13" width="7.5" height="7.5" fill="#fff" stroke="#000" stroke-miterlimit="10" stroke-width="0.25"/>
  <rect x="15.12" y="30.13" width="7.5" height="7.5" fill="#fff" stroke="#000" stroke-miterlimit="10" stroke-width="0.25"/>
  <rect x="22.62" y="30.13" width="7.5" height="7.5" fill="#fff" stroke="#000" stroke-miterlimit="10" stroke-width="0.25"/>
  <rect x="30.12" y="30.13" width="7.5" height="7.5" fill="#fff" stroke="#000" stroke-miterlimit="10" stroke-width="0.25"/>
  <rect x="37.63" y="30.13" width="7.5" height="7.5" fill="#fff" stroke="#000" stroke-miterlimit="10" stroke-width="0.25"/>
  <rect x="45.13" y="30.13" width="7.5" height="7.5" fill="#fff" stroke="#000" stroke-miterlimit="10" stroke-width="0.25"/>
  <rect x="52.63" y="30.13" width="7.5" height="7.5" fill="#fff" stroke="#000" stroke-miterlimit="10" stroke-width="0.25"/>
  <path d="M7.62,45.13H5.13a5,5,0,0,1-5-5v-2.5H7.62Z" fill="#fff" stroke="#000" stroke-miterlimit="10" stroke-width="0.25"/>
  <rect x="7.62" y="37.63" width="7.5" height="7.5" fill="#fff" stroke="#000" stroke-miterlimit="10" stroke-width="0.25"/>
  <rect x="15.12" y="37.63" width="7.5" height="7.5" fill="#fff" stroke="#000" stroke-miterlimit="10" stroke-width="0.25"/>
  <rect x="22.62" y="37.63" width="7.5" height="7.5" fill="#fff" stroke="#000" stroke-miterlimit="10" stroke-width="0.25"/>
  <rect x="30.12" y="37.63" width="7.5" height="7.5" fill="#fff" stroke="#000" stroke-miterlimit="10" stroke-width="0.25"/>
  <rect x="37.63" y="37.63" width="7.5" height="7.5" fill="#fff" stroke="#000" stroke-miterlimit="10" stroke-width="0.25"/>
  <rect x="45.13" y="37.63" width="7.5" height="7.5" fill="#fff" stroke="#000" stroke-miterlimit="10" stroke-width="0.25"/>
  <path d="M55.13,45.13h-2.5v-7.5h7.5v2.5A5.09,5.09,0,0,1,55.13,45.13Z" fill="#fff" stroke="#000" stroke-miterlimit="10" stroke-width="0.25"/>
  <path d="M11.37,1.38A2.55,2.55,0,0,1,14,3.88a2.65,2.65,0,0,1-2.6,2.6,2.55,2.55,0,0,1-2.5-2.6,2.48,2.48,0,0,1,2.46-2.5h0m0-.9A3.37,3.37,0,0,0,8,3.82v.06a3.37,3.37,0,0,0,3.34,3.4h.06a3.37,3.37,0,0,0,3.4-3.34V3.88A3.31,3.31,0,0,0,11.55.48Z" fill="red"/>
  <path d="M26.46,1.37a2.55,2.55,0,0,1,2.6,2.5,2.6,2.6,0,1,1-5.2,0,2.63,2.63,0,0,1,2.6-2.5m0-.9a3.4,3.4,0,1,0-.37,6.79h.37a3.38,3.38,0,0,0,3.4-3.34v0A3.31,3.31,0,0,0,26.64.49.54.54,0,0,0,26.46.49Z" fill="red"/>
  <path d="M11.46,8.79a2.6,2.6,0,1,1,0,5.2h0a2.66,2.66,0,0,1-2.6-2.6,2.72,2.72,0,0,1,2.6-2.6m0-.8a3.4,3.4,0,0,0-.37,6.79h.37a3.38,3.38,0,0,0,3.4-3.34v0A3.31,3.31,0,0,0,11.64,8Z" fill="red"/>
  <path d="M26.46,8.89a2.6,2.6,0,1,1-2.6,2.6,2.59,2.59,0,0,1,2.6-2.6m0-.9a3.4,3.4,0,1,0-.37,6.79h.37a3.37,3.37,0,0,0,3.4-3.34v0A3.32,3.32,0,0,0,26.62,8h-.16Z" fill="red"/>
  <path d="M3.88,1.42A2.62,2.62,0,0,1,6.53,4,2.65,2.65,0,0,1,1.24,4,2.61,2.61,0,0,1,3.88,1.42m0-.91A3.43,3.43,0,0,0,.42,3.9.15.15,0,0,0,.43,4,3.46,3.46,0,0,0,7.34,4,3.44,3.44,0,0,0,3.94.51Z" fill="#008ed6"/>
  <path d="M18.87,1.42A2.62,2.62,0,0,1,21.52,4a2.65,2.65,0,0,1-5.29,0,2.61,2.61,0,0,1,2.64-2.55m0-.91A3.43,3.43,0,0,0,15.41,3.9a.15.15,0,0,0,0,.07,3.46,3.46,0,0,0,6.91,0A3.44,3.44,0,0,0,18.93.51Z" fill="#008ed6"/>
</svg>
