<?xml version="1.0" encoding="utf-8"?>
<!-- Generator: Adobe Illustrator 23.0.3, SVG Export Plug-In . SVG Version: 6.00 Build 0)  -->
<svg version="1.1" id="圖層_1" xmlns="http://www.w3.org/2000/svg" xmlns:xlink="http://www.w3.org/1999/xlink" x="0px" y="0px"
	 viewBox="0 0 16 16" style="enable-background:new 0 0 16 16;" xml:space="preserve">
<style type="text/css">
	.st0{fill:#333333;stroke:#FFFFFF;stroke-width:0.63;stroke-linecap:round;stroke-linejoin:round;}
	.st1{fill:#333333;stroke:#FFFFFF;stroke-width:0.72;stroke-linecap:round;stroke-linejoin:round;}
	.st2{fill:url(#SVGID_1_);}
	.st3{fill:url(#SVGID_2_);}
	.st4{fill:none;stroke:#000000;stroke-width:0.89;stroke-linecap:round;stroke-linejoin:round;}
</style>
<g>
	<title>video_btn_enable</title>
	<path class="st0" d="M1.7,3.3h9.5c0.6,0,1,0.4,1,1v6.9c0,0.6-0.4,1-1,1H1.7c-0.6,0-1-0.4-1-1V4.3C0.7,3.8,1.2,3.3,1.7,3.3z"/>
	<polygon class="st1" points="15.7,8.2 15.7,8.2 15.7,11.2 13.3,9.6 12.2,9.6 12.2,7.6 12.2,7.6 12.2,6 13.3,6 15.7,4.4 	"/>
	
		<linearGradient id="SVGID_1_" gradientUnits="userSpaceOnUse" x1="6.49" y1="5.98" x2="6.49" y2="14.88" gradientTransform="matrix(1 0 0 -1 0 18.21)">
		<stop  offset="0" style="stop-color:#AE7515"/>
		<stop  offset="3.000000e-02" style="stop-color:#B98727"/>
		<stop  offset="0.1" style="stop-color:#CEA846"/>
		<stop  offset="0.16" style="stop-color:#DEC25F"/>
		<stop  offset="0.23" style="stop-color:#EAD471"/>
		<stop  offset="0.3" style="stop-color:#F1DF7C"/>
		<stop  offset="0.38" style="stop-color:#F3E37F"/>
		<stop  offset="0.48" style="stop-color:#EEDB77"/>
		<stop  offset="0.62" style="stop-color:#E1C663"/>
		<stop  offset="0.81" style="stop-color:#CBA341"/>
		<stop  offset="1" style="stop-color:#AE7515"/>
	</linearGradient>
	<path class="st2" d="M1.7,3.3h9.5c0.6,0,1,0.4,1,1v6.9c0,0.6-0.4,1-1,1H1.7c-0.6,0-1-0.4-1-1V4.3C0.7,3.8,1.2,3.3,1.7,3.3z"/>
	
		<linearGradient id="SVGID_2_" gradientUnits="userSpaceOnUse" x1="13.985" y1="5.98" x2="13.985" y2="14.88" gradientTransform="matrix(1 0 0 -1 0 18.21)">
		<stop  offset="0" style="stop-color:#AE7515"/>
		<stop  offset="3.000000e-02" style="stop-color:#B98727"/>
		<stop  offset="0.1" style="stop-color:#CEA846"/>
		<stop  offset="0.16" style="stop-color:#DEC25F"/>
		<stop  offset="0.23" style="stop-color:#EAD471"/>
		<stop  offset="0.3" style="stop-color:#F1DF7C"/>
		<stop  offset="0.38" style="stop-color:#F3E37F"/>
		<stop  offset="0.48" style="stop-color:#EEDB77"/>
		<stop  offset="0.62" style="stop-color:#E1C663"/>
		<stop  offset="0.81" style="stop-color:#CBA341"/>
		<stop  offset="1" style="stop-color:#AE7515"/>
	</linearGradient>
	<polygon class="st3" points="15.7,8.2 15.7,8.2 15.7,11.2 13.3,9.6 12.2,9.6 12.2,7.6 12.2,7.6 12.2,6 13.3,6 15.7,4.4 	"/>
	<path class="st4" d="M1.7,3.3h9.5c0.6,0,1,0.4,1,1v6.9c0,0.6-0.4,1-1,1H1.7c-0.6,0-1-0.4-1-1V4.3C0.7,3.8,1.2,3.3,1.7,3.3z"/>
	<polygon class="st4" points="15.7,8.2 15.7,8.2 15.7,11.2 13.3,9.6 12.2,9.6 12.2,7.6 12.2,7.6 12.2,6 13.3,6 15.7,4.4 	"/>
</g>
</svg>
