<?xml version="1.0" encoding="utf-8"?>
<!-- Generator: Adobe Illustrator 24.2.1, SVG Export Plug-In . SVG Version: 6.00 Build 0)  -->
<svg version="1.1" id="圖層_1" xmlns="http://www.w3.org/2000/svg" xmlns:xlink="http://www.w3.org/1999/xlink" x="0px" y="0px"
	 viewBox="0 0 22.1 23" style="enable-background:new 0 0 22.1 23;" xml:space="preserve">
<style type="text/css">
	.st0{fill:#FFFFFF;}
</style>
<path class="st0" d="M11.1,19.6c-4.3,0-7.7-3.5-7.7-7.7s3.5-7.7,7.7-7.7s7.7,3.5,7.7,7.7C18.8,16.1,15.3,19.6,11.1,19.6z M9.1,15
	c0.3,2.4,1,3.6,2,3.6s1.7-1.3,2-3.6C13,15,9.1,15,9.1,15z M5.1,15c0.8,1.6,2.3,2.8,4,3.3c-0.5-0.8-0.8-1.9-1-3.3H5.1z M14,15
	c-0.2,1.5-0.5,2.6-0.9,3.3c1.7-0.5,3.2-1.8,4-3.3H14z M14.1,14h3.4c0.2-0.7,0.4-1.4,0.4-2.2s-0.1-1.5-0.4-2.1h-3.4
	c0.1,0.7,0.1,1.4,0.1,2.1C14.2,12.6,14.2,13.4,14.1,14z M9,14h4.1c0.1-0.6,0.1-1.4,0.1-2.2c0-0.8,0-1.5-0.1-2.1H9
	c-0.1,0.6-0.1,1.4-0.1,2.1C8.9,12.7,8.9,13.4,9,14z M4.7,14H8C8,13.4,8,12.6,8,11.9S8,10.4,8,9.7H4.7c-0.2,0.7-0.3,1.4-0.3,2.1
	S4.4,13.4,4.7,14z M14,8.8h3c-0.8-1.6-2.3-2.8-4-3.3C13.5,6.2,13.8,7.3,14,8.8z M9.1,8.8H13c-0.3-2.3-1-3.6-2-3.6S9.4,6.4,9.1,8.8z
	 M5.1,8.8h3c0.2-1.5,0.5-2.6,0.9-3.3C7.3,6,5.9,7.2,5.1,8.8z"/>
<g>
	<path class="st0" d="M11.1,23c-2.9,0-5.7-1.1-7.8-3.2C1.1,17.7,0,14.9,0,12s1.1-5.7,3.2-7.8s4.9-3.2,7.8-3.2c0.2,0,0.4,0.2,0.4,0.4
		s-0.2,0.4-0.4,0.4c-2.8,0-5.3,1.1-7.3,3s-3,4.5-3,7.3s1.1,5.4,3,7.3s4.5,3,7.3,3s5.3-1.1,7.3-3s3-4.5,3-7.3c0-4.9-3.5-9.2-8.3-10.1
		c-0.2,0-0.3-0.2-0.3-0.4c0-0.2,0.2-0.3,0.4-0.3c5.2,1,8.9,5.6,8.9,10.8c0,2.9-1.1,5.7-3.2,7.8C16.8,21.9,14,23,11.1,23z"/>
	<path class="st0" d="M10.1,2.6c-0.1,0-0.2,0-0.3-0.1C9.7,2.3,9.7,2.1,9.8,2l0.7-0.7L9.9,0.6c-0.1-0.1-0.1-0.4,0-0.5s0.4-0.1,0.5,0
		L11.3,1c0.1,0.1,0.1,0.4,0,0.5l-0.9,0.9C10.3,2.6,10.2,2.6,10.1,2.6z"/>
</g>
</svg>
