<?xml version="1.0" encoding="utf-8"?>
<!-- Generator: Adobe Illustrator 25.2.3, SVG Export Plug-In . SVG Version: 6.00 Build 0)  -->
<svg version="1.1" id="圖層_1" xmlns="http://www.w3.org/2000/svg" xmlns:xlink="http://www.w3.org/1999/xlink" x="0px" y="0px"
	 viewBox="0 0 131.96 82.36" style="enable-background:new 0 0 131.96 82.36;" xml:space="preserve">
<style type="text/css">
	.st0{fill:url(#SVGID_1_);}
	.st1{fill:url(#SVGID_2_);}
	.st2{fill:none;stroke:#7FFFFF;stroke-width:1.3093;stroke-linecap:round;stroke-miterlimit:10;}
	.st3{fill:#7FFFFF;}
</style>
<g>
	
		<radialGradient id="SVGID_1_" cx="-402.2821" cy="-3145.2515" r="59.5391" gradientTransform="matrix(0.8157 0 0 0.115 394.1218 435.1646)" gradientUnits="userSpaceOnUse">
		<stop  offset="0" style="stop-color:#36C5FF;stop-opacity:0.7"/>
		<stop  offset="1" style="stop-color:#36C5FF;stop-opacity:0"/>
	</radialGradient>
	<ellipse class="st0" cx="65.98" cy="73.4" rx="65.98" ry="8.97"/>
	<g>
		<g>
			<linearGradient id="SVGID_2_" gradientUnits="userSpaceOnUse" x1="65.0213" y1="0.9381" x2="65.0213" y2="68.8373">
				<stop  offset="0" style="stop-color:#00BAFF"/>
				<stop  offset="0.291" style="stop-color:#0688C4;stop-opacity:0.709"/>
				<stop  offset="1" style="stop-color:#141136;stop-opacity:0"/>
			</linearGradient>
			<path class="st1" d="M65.04,0.94c0,0-9.56,9.82-25.76,9.82c0,0-0.04,28.55-0.04,32.75c0,6.85,4.63,13.97,25.8,25.33
				C85.17,58.02,90.72,50.35,90.72,43.5c0-5.15,0.08-32.75,0.08-32.75C74.6,10.76,65.04,0.94,65.04,0.94z"/>
		</g>
		<path class="st2" d="M65.04,0.94c0,0-9.56,9.82-25.76,9.82c0,0-0.04,28.55-0.04,32.75c0,6.85,4.63,13.97,25.8,25.33
			C85.17,58.02,90.72,50.35,90.72,43.5c0-5.15,0.08-32.75,0.08-32.75C74.6,10.76,65.04,0.94,65.04,0.94z"/>
		<path class="st3" d="M67.47,33.34l0.24,12.36h-5.38l0.24-12.36c-1.66-0.94-2.72-2.81-2.48-4.9c0.26-2.26,2.1-4.09,4.36-4.34
			c2.99-0.33,5.53,2,5.53,4.93C69.98,30.88,68.97,32.49,67.47,33.34z"/>
	</g>
</g>
</svg>
