<?xml version="1.0" encoding="utf-8"?>
<!-- Generator: Adobe Illustrator 25.2.3, SVG Export Plug-In . SVG Version: 6.00 Build 0)  -->
<svg version="1.1" xmlns="http://www.w3.org/2000/svg" xmlns:xlink="http://www.w3.org/1999/xlink" x="0px" y="0px"
	 viewBox="0 0 350.19 107" style="enable-background:new 0 0 350.19 107;" xml:space="preserve">
<style type="text/css">
	.st0{fill:#FFFFFF;stroke:#000000;stroke-miterlimit:10;}
	.st1{fill:#FF0000;}
	.st2{fill:#FFFFFF;stroke:#B2B2B2;stroke-miterlimit:10;}
	.st3{fill:#FFFFFF;}
	.st4{fill:#005DFF;}
	.st5{fill:#FF302A;}
	.st6{fill:#008ED6;}
	.st7{fill:none;stroke:#FF0000;stroke-width:2;stroke-miterlimit:10;}
	.st8{fill:none;stroke:#14B045;stroke-width:2.7;stroke-linecap:round;stroke-linejoin:round;stroke-miterlimit:10;}
	.st9{fill:none;stroke:#000000;stroke-miterlimit:10;}
	.st10{fill:none;stroke:#FF302A;stroke-width:1.6561;stroke-linecap:round;stroke-miterlimit:10;}
	.st11{fill:none;stroke:#005DFF;stroke-width:1.6561;stroke-linecap:round;stroke-linejoin:round;stroke-miterlimit:10;}
	.st12{fill:none;stroke:#005DFF;stroke-width:1.6561;stroke-linecap:round;stroke-miterlimit:10;}
	.st13{fill:none;stroke:url(#SVGID_1_);stroke-width:0.803;stroke-miterlimit:10;}
	.st14{fill:none;stroke:url(#SVGID_2_);stroke-width:0.803;stroke-miterlimit:10;}
	.st15{fill:none;stroke:url(#SVGID_3_);stroke-width:0.803;stroke-miterlimit:10;}
	.st16{fill:none;stroke:url(#SVGID_4_);stroke-width:0.803;stroke-miterlimit:10;}
	.st17{fill:none;stroke:url(#SVGID_5_);stroke-width:0.803;stroke-miterlimit:10;}
	.st18{fill:none;stroke:url(#SVGID_6_);stroke-width:0.803;stroke-miterlimit:10;}
	.st19{fill:none;stroke:url(#SVGID_7_);stroke-width:0.803;stroke-miterlimit:10;}
	.st20{fill:none;stroke:url(#SVGID_8_);stroke-width:0.803;stroke-miterlimit:10;}
	.st21{display:none;}
	.st22{display:inline;}
</style>
<g id="圖層_1">
	<g>
		<g>
			<rect x="0.1" y="1" class="st2" width="17.5" height="17.5"/>
			<rect x="0.1" y="18.5" class="st2" width="17.5" height="17.5"/>
			<rect x="0.1" y="36" class="st2" width="17.5" height="17.5"/>
			<rect x="0.1" y="53.5" class="st2" width="17.5" height="17.5"/>
			<rect x="0.1" y="71" class="st2" width="17.5" height="17.5"/>
			<rect x="0.1" y="88.5" class="st2" width="17.5" height="17.5"/>
			<rect x="17.6" y="1" class="st2" width="17.5" height="17.5"/>
			<rect x="17.6" y="18.5" class="st2" width="17.5" height="17.5"/>
			<rect x="17.6" y="36" class="st2" width="17.5" height="17.5"/>
			<rect x="17.6" y="53.5" class="st2" width="17.5" height="17.5"/>
			<rect x="17.6" y="71" class="st2" width="17.5" height="17.5"/>
			<rect x="17.6" y="88.5" class="st2" width="17.5" height="17.5"/>
			<rect x="35.1" y="1" class="st2" width="17.5" height="17.5"/>
			<rect x="35.1" y="18.5" class="st2" width="17.5" height="17.5"/>
			<rect x="35.1" y="36" class="st2" width="17.5" height="17.5"/>
			<rect x="35.1" y="53.5" class="st2" width="17.5" height="17.5"/>
			<rect x="35.1" y="71" class="st2" width="17.5" height="17.5"/>
			<rect x="35.1" y="88.5" class="st2" width="17.5" height="17.5"/>
			<rect x="52.6" y="1" class="st2" width="17.5" height="17.5"/>
			<rect x="52.6" y="18.5" class="st2" width="17.5" height="17.5"/>
			<rect x="52.6" y="36" class="st2" width="17.5" height="17.5"/>
			<rect x="52.6" y="53.5" class="st2" width="17.5" height="17.5"/>
			<rect x="52.6" y="71" class="st2" width="17.5" height="17.5"/>
			<rect x="52.6" y="88.5" class="st2" width="17.5" height="17.5"/>
			<rect x="70.1" y="1" class="st2" width="17.5" height="17.5"/>
			<rect x="70.1" y="18.5" class="st2" width="17.5" height="17.5"/>
			<rect x="70.1" y="36" class="st2" width="17.5" height="17.5"/>
			<rect x="70.1" y="53.5" class="st2" width="17.5" height="17.5"/>
			<rect x="70.1" y="71" class="st2" width="17.5" height="17.5"/>
			<rect x="70.1" y="88.5" class="st2" width="17.5" height="17.5"/>
			<g>
				<rect x="87.6" y="1" class="st3" width="17.5" height="17.5"/>
			</g>
			<rect x="87.6" y="18.5" class="st2" width="17.5" height="17.5"/>
			<rect x="87.6" y="36" class="st2" width="17.5" height="17.5"/>
			<rect x="87.6" y="53.5" class="st2" width="17.5" height="17.5"/>
			<rect x="87.6" y="71" class="st2" width="17.5" height="17.5"/>
			<rect x="87.6" y="88.5" class="st2" width="17.5" height="17.5"/>
			<rect x="105.1" y="1" class="st2" width="17.5" height="17.5"/>
			<rect x="105.1" y="18.5" class="st2" width="17.5" height="17.5"/>
			<rect x="105.1" y="36" class="st2" width="17.5" height="17.5"/>
			<rect x="105.1" y="53.5" class="st2" width="17.5" height="17.5"/>
			<rect x="105.1" y="71" class="st2" width="17.5" height="17.5"/>
			<rect x="105.1" y="88.5" class="st2" width="17.5" height="17.5"/>
			<g>
				<path class="st3" d="M113.85,34.87c-4.2,0-7.63-3.42-7.63-7.62s3.42-7.62,7.62-7.62s7.63,3.42,7.63,7.62
					S118.05,34.87,113.85,34.87z"/>
				<g>
					<path class="st1" d="M113.85,20.75c3.58,0,6.5,2.92,6.5,6.5s-2.92,6.5-6.5,6.5c-3.58,0-6.5-2.92-6.5-6.5
						S110.26,20.75,113.85,20.75 M113.85,18.5L113.85,18.5c-4.83,0-8.75,3.92-8.75,8.75c0,4.83,3.92,8.75,8.75,8.75h0
						c4.83,0,8.75-3.92,8.75-8.75C122.6,22.42,118.68,18.5,113.85,18.5L113.85,18.5z"/>
				</g>
			</g>
			<g>
				<path class="st3" d="M113.85,52.37c-4.2,0-7.63-3.42-7.63-7.62s3.42-7.62,7.62-7.62s7.63,3.42,7.63,7.62
					S118.05,52.37,113.85,52.37z"/>
				<g>
					<path class="st1" d="M113.85,38.25c3.58,0,6.5,2.92,6.5,6.5c0,3.58-2.92,6.5-6.5,6.5c-3.58,0-6.5-2.92-6.5-6.5
						C107.35,41.17,110.26,38.25,113.85,38.25 M113.85,36L113.85,36c-4.83,0-8.75,3.92-8.75,8.75v0c0,4.83,3.92,8.75,8.75,8.75h0
						c4.83,0,8.75-3.92,8.75-8.75v0C122.6,39.92,118.68,36,113.85,36L113.85,36z"/>
				</g>
			</g>
			<g>
				<path class="st3" d="M113.85,69.87c-4.2,0-7.63-3.42-7.63-7.62c0-4.21,3.42-7.63,7.62-7.63s7.63,3.42,7.63,7.62
					S118.05,69.87,113.85,69.87z"/>
				<g>
					<path class="st1" d="M113.85,55.75c3.58,0,6.5,2.92,6.5,6.5c0,3.58-2.92,6.5-6.5,6.5c-3.58,0-6.5-2.92-6.5-6.5
						C107.35,58.67,110.26,55.75,113.85,55.75 M113.85,53.5L113.85,53.5c-4.83,0-8.75,3.92-8.75,8.75v0c0,4.83,3.92,8.75,8.75,8.75
						h0c4.83,0,8.75-3.92,8.75-8.75v0C122.6,57.42,118.68,53.5,113.85,53.5L113.85,53.5z"/>
				</g>
			</g>
			<g>
				<path class="st3" d="M113.85,87.37c-4.2,0-7.63-3.42-7.63-7.62c0-4.21,3.42-7.63,7.62-7.63s7.63,3.42,7.63,7.62
					S118.05,87.37,113.85,87.37z"/>
				<g>
					<path class="st1" d="M113.85,73.25c3.58,0,6.5,2.92,6.5,6.5s-2.92,6.5-6.5,6.5c-3.58,0-6.5-2.92-6.5-6.5
						S110.26,73.25,113.85,73.25 M113.85,71L113.85,71c-4.83,0-8.75,3.92-8.75,8.75s3.92,8.75,8.75,8.75h0
						c4.83,0,8.75-3.92,8.75-8.75S118.68,71,113.85,71L113.85,71z"/>
				</g>
			</g>
			<g>
				<path class="st3" d="M113.85,104.88c-4.2,0-7.63-3.42-7.63-7.62c0-4.21,3.42-7.63,7.62-7.63s7.63,3.42,7.63,7.62
					C121.47,101.45,118.05,104.88,113.85,104.88z"/>
				<g>
					<path class="st1" d="M113.85,90.75c3.58,0,6.5,2.92,6.5,6.5c0,3.58-2.92,6.5-6.5,6.5c-3.58,0-6.5-2.92-6.5-6.5
						C107.35,93.67,110.26,90.75,113.85,90.75 M113.85,88.5L113.85,88.5c-4.83,0-8.75,3.92-8.75,8.75v0c0,4.83,3.92,8.75,8.75,8.75
						h0c4.83,0,8.75-3.92,8.75-8.75v0C122.6,92.42,118.68,88.5,113.85,88.5L113.85,88.5z"/>
				</g>
			</g>
			<rect x="122.6" y="1" class="st2" width="17.5" height="17.5"/>
			<rect x="122.6" y="18.5" class="st2" width="17.5" height="17.5"/>
			<rect x="122.6" y="36" class="st2" width="17.5" height="17.5"/>
			<rect x="122.6" y="53.5" class="st2" width="17.5" height="17.5"/>
			<rect x="122.6" y="71" class="st2" width="17.5" height="17.5"/>
			<rect x="122.6" y="88.5" class="st2" width="17.5" height="17.5"/>
			<g>
				<path class="st3" d="M131.35,104.88c-4.2,0-7.62-3.42-7.62-7.62c0-4.21,3.42-7.63,7.62-7.63s7.62,3.42,7.62,7.62
					C138.97,101.45,135.55,104.88,131.35,104.88z"/>
				<path class="st1" d="M131.35,90.75c3.58,0,6.5,2.92,6.5,6.5c0,3.58-2.92,6.5-6.5,6.5s-6.5-2.92-6.5-6.5
					C124.85,93.67,127.76,90.75,131.35,90.75 M131.35,88.5c-4.83,0-8.75,3.92-8.75,8.75v0c0,4.83,3.92,8.75,8.75,8.75
					c4.83,0,8.75-3.92,8.75-8.75v0C140.1,92.42,136.18,88.5,131.35,88.5L131.35,88.5z"/>
			</g>
			<rect x="140.1" y="1" class="st2" width="17.5" height="17.5"/>
			<rect x="140.1" y="18.5" class="st2" width="17.5" height="17.5"/>
			<rect x="140.1" y="36" class="st2" width="17.5" height="17.5"/>
			<rect x="140.1" y="53.5" class="st2" width="17.5" height="17.5"/>
			<rect x="140.1" y="71" class="st2" width="17.5" height="17.5"/>
			<rect x="140.1" y="88.5" class="st2" width="17.5" height="17.5"/>
			<rect x="157.6" y="1" class="st2" width="17.5" height="17.5"/>
			<rect x="157.6" y="18.5" class="st2" width="17.5" height="17.5"/>
			<rect x="157.6" y="36" class="st2" width="17.5" height="17.5"/>
			<rect x="157.6" y="53.5" class="st2" width="17.5" height="17.5"/>
			<rect x="157.6" y="71" class="st2" width="17.5" height="17.5"/>
			<rect x="157.6" y="88.5" class="st2" width="17.5" height="17.5"/>
			<rect x="175.1" y="1" class="st2" width="17.5" height="17.5"/>
			<rect x="175.1" y="18.5" class="st2" width="17.5" height="17.5"/>
			<rect x="175.1" y="36" class="st2" width="17.5" height="17.5"/>
			<rect x="175.1" y="53.5" class="st2" width="17.5" height="17.5"/>
			<rect x="175.1" y="71" class="st2" width="17.5" height="17.5"/>
			<rect x="175.1" y="88.5" class="st2" width="17.5" height="17.5"/>
			<rect x="192.6" y="1" class="st2" width="17.5" height="17.5"/>
			<rect x="192.6" y="18.5" class="st2" width="17.5" height="17.5"/>
			<rect x="192.6" y="36" class="st2" width="17.5" height="17.5"/>
			<rect x="192.6" y="53.5" class="st2" width="17.5" height="17.5"/>
			<rect x="192.6" y="71" class="st2" width="17.5" height="17.5"/>
			<rect x="192.6" y="88.5" class="st2" width="17.5" height="17.5"/>
			<rect x="210.1" y="1" class="st2" width="17.5" height="17.5"/>
			<rect x="210.1" y="18.5" class="st2" width="17.5" height="17.5"/>
			<rect x="210.1" y="36" class="st2" width="17.5" height="17.5"/>
			<rect x="210.1" y="53.5" class="st2" width="17.5" height="17.5"/>
			<rect x="210.1" y="71" class="st2" width="17.5" height="17.5"/>
			<rect x="210.1" y="88.5" class="st2" width="17.5" height="17.5"/>
			<rect x="227.6" y="1" class="st2" width="17.5" height="17.5"/>
			<rect x="227.6" y="18.5" class="st2" width="17.5" height="17.5"/>
			<rect x="227.6" y="36" class="st2" width="17.5" height="17.5"/>
			<rect x="227.6" y="53.5" class="st2" width="17.5" height="17.5"/>
			<rect x="227.6" y="71" class="st2" width="17.5" height="17.5"/>
			<rect x="227.6" y="88.5" class="st2" width="17.5" height="17.5"/>
			<rect x="245.1" y="1" class="st2" width="17.5" height="17.5"/>
			<rect x="245.1" y="18.5" class="st2" width="17.5" height="17.5"/>
			<rect x="245.1" y="36" class="st2" width="17.5" height="17.5"/>
			<rect x="245.1" y="53.5" class="st2" width="17.5" height="17.5"/>
			<rect x="245.1" y="71" class="st2" width="17.5" height="17.5"/>
			<rect x="245.1" y="88.5" class="st2" width="17.5" height="17.5"/>
			<g>
				<rect x="262.6" y="1" class="st2" width="17.5" height="17.5"/>
				<rect x="262.6" y="18.5" class="st2" width="17.5" height="17.5"/>
				<rect x="262.6" y="36" class="st2" width="17.5" height="17.5"/>
				<rect x="262.6" y="53.5" class="st2" width="17.5" height="17.5"/>
				<rect x="262.6" y="71" class="st2" width="17.5" height="17.5"/>
				<rect x="262.6" y="88.5" class="st2" width="17.5" height="17.5"/>
			</g>
			<g>
				<rect x="280.1" y="1" class="st2" width="17.5" height="17.5"/>
				<rect x="280.1" y="18.5" class="st2" width="17.5" height="17.5"/>
				<rect x="280.1" y="36" class="st2" width="17.5" height="17.5"/>
				<rect x="280.1" y="53.5" class="st2" width="17.5" height="17.5"/>
				<rect x="280.1" y="71" class="st2" width="17.5" height="17.5"/>
				<rect x="280.1" y="88.5" class="st2" width="17.5" height="17.5"/>
			</g>
			<g>
				<rect x="297.6" y="1" class="st2" width="17.5" height="17.5"/>
				<rect x="297.6" y="18.5" class="st2" width="17.5" height="17.5"/>
				<rect x="297.6" y="36" class="st2" width="17.5" height="17.5"/>
				<rect x="297.6" y="53.5" class="st2" width="17.5" height="17.5"/>
				<rect x="297.6" y="71" class="st2" width="17.5" height="17.5"/>
				<rect x="297.6" y="88.5" class="st2" width="17.5" height="17.5"/>
			</g>
			<g>
				<rect x="315.1" y="1" class="st2" width="17.5" height="17.5"/>
				<rect x="315.1" y="18.5" class="st2" width="17.5" height="17.5"/>
				<rect x="315.1" y="36" class="st2" width="17.5" height="17.5"/>
				<rect x="315.1" y="53.5" class="st2" width="17.5" height="17.5"/>
				<rect x="315.1" y="71" class="st2" width="17.5" height="17.5"/>
				<rect x="315.1" y="88.5" class="st2" width="17.5" height="17.5"/>
			</g>
			<g>
				<rect x="332.6" y="1" class="st2" width="17.5" height="17.5"/>
				<rect x="332.6" y="18.5" class="st2" width="17.5" height="17.5"/>
				<rect x="332.6" y="36" class="st2" width="17.5" height="17.5"/>
				<rect x="332.6" y="53.5" class="st2" width="17.5" height="17.5"/>
				<rect x="332.6" y="71" class="st2" width="17.5" height="17.5"/>
				<rect x="332.6" y="88.5" class="st2" width="17.5" height="17.5"/>
			</g>
		</g>
		<g>
			<circle class="st3" cx="8.85" cy="9.75" r="7.62"/>
			<g>
				<path class="st1" d="M8.85,3.25c3.58,0,6.5,2.92,6.5,6.5s-2.92,6.5-6.5,6.5c-3.58,0-6.5-2.92-6.5-6.5S5.26,3.25,8.85,3.25
					 M8.85,1L8.85,1C4.01,1,0.1,4.92,0.1,9.75c0,4.83,3.92,8.75,8.75,8.75h0c4.83,0,8.75-3.92,8.75-8.75C17.6,4.92,13.68,1,8.85,1
					L8.85,1z"/>
			</g>
		</g>
		<g>
			<circle class="st3" cx="26.35" cy="9.75" r="7.62"/>
			<g>
				<path class="st4" d="M26.35,3.25c3.58,0,6.5,2.92,6.5,6.5s-2.92,6.5-6.5,6.5s-6.5-2.92-6.5-6.5S22.76,3.25,26.35,3.25 M26.35,1
					c-4.83,0-8.75,3.92-8.75,8.75c0,4.83,3.92,8.75,8.75,8.75c4.83,0,8.75-3.92,8.75-8.75C35.1,4.92,31.18,1,26.35,1L26.35,1z"/>
			</g>
		</g>
		<g>
			<circle class="st3" cx="43.85" cy="9.75" r="7.62"/>
			<g>
				<path class="st1" d="M43.85,3.25c3.58,0,6.5,2.92,6.5,6.5s-2.92,6.5-6.5,6.5c-3.58,0-6.5-2.92-6.5-6.5S40.26,3.25,43.85,3.25
					 M43.85,1c-4.83,0-8.75,3.92-8.75,8.75c0,4.83,3.92,8.75,8.75,8.75c4.83,0,8.75-3.92,8.75-8.75C52.6,4.92,48.68,1,43.85,1
					L43.85,1z"/>
			</g>
		</g>
		<g>
			<circle class="st3" cx="61.35" cy="9.75" r="7.62"/>
			<g>
				<path class="st4" d="M61.35,3.25c3.58,0,6.5,2.92,6.5,6.5s-2.92,6.5-6.5,6.5c-3.58,0-6.5-2.92-6.5-6.5S57.76,3.25,61.35,3.25
					 M61.35,1c-4.83,0-8.75,3.92-8.75,8.75c0,4.83,3.92,8.75,8.75,8.75s8.75-3.92,8.75-8.75C70.1,4.92,66.18,1,61.35,1L61.35,1z"/>
			</g>
		</g>
		<g>
			<circle class="st3" cx="78.85" cy="9.75" r="7.62"/>
			<g>
				<path class="st1" d="M78.85,3.25c3.58,0,6.5,2.92,6.5,6.5s-2.92,6.5-6.5,6.5c-3.58,0-6.5-2.92-6.5-6.5S75.26,3.25,78.85,3.25
					 M78.85,1L78.85,1c-4.83,0-8.75,3.92-8.75,8.75c0,4.83,3.92,8.75,8.75,8.75h0c4.83,0,8.75-3.92,8.75-8.75
					C87.6,4.92,83.68,1,78.85,1L78.85,1z"/>
			</g>
		</g>
		<g>
			<circle class="st3" cx="96.35" cy="9.75" r="7.62"/>
			<g>
				<path class="st4" d="M96.35,3.25c3.58,0,6.5,2.92,6.5,6.5s-2.92,6.5-6.5,6.5s-6.5-2.92-6.5-6.5S92.76,3.25,96.35,3.25 M96.35,1
					c-4.83,0-8.75,3.92-8.75,8.75c0,4.83,3.92,8.75,8.75,8.75s8.75-3.92,8.75-8.75C105.1,4.92,101.18,1,96.35,1L96.35,1z"/>
			</g>
		</g>
		<g>
			<path class="st3" d="M113.85,17.37c-4.2,0-7.63-3.42-7.63-7.62s3.42-7.62,7.63-7.62s7.62,3.42,7.62,7.62
				S118.05,17.37,113.85,17.37z"/>
			<g>
				<path class="st1" d="M113.85,3.25c3.58,0,6.5,2.92,6.5,6.5s-2.92,6.5-6.5,6.5c-3.58,0-6.5-2.92-6.5-6.5S110.26,3.25,113.85,3.25
					 M113.85,1c-4.83,0-8.75,3.92-8.75,8.75c0,4.83,3.92,8.75,8.75,8.75c4.83,0,8.75-3.92,8.75-8.75C122.6,4.92,118.68,1,113.85,1
					L113.85,1z"/>
			</g>
		</g>
		<g>
			<circle class="st3" cx="61.35" cy="27.25" r="7.62"/>
			<g>
				<path class="st4" d="M61.35,20.75c3.58,0,6.5,2.92,6.5,6.5s-2.92,6.5-6.5,6.5c-3.58,0-6.5-2.92-6.5-6.5S57.76,20.75,61.35,20.75
					 M61.35,18.5c-4.83,0-8.75,3.92-8.75,8.75c0,4.83,3.92,8.75,8.75,8.75s8.75-3.92,8.75-8.75C70.1,22.42,66.18,18.5,61.35,18.5
					L61.35,18.5z"/>
			</g>
		</g>
		<g>
			<circle class="st3" cx="96.35" cy="27.25" r="7.62"/>
			<path class="st4" d="M96.35,20.75c3.58,0,6.5,2.92,6.5,6.5s-2.92,6.5-6.5,6.5s-6.5-2.92-6.5-6.5S92.76,20.75,96.35,20.75
				 M96.35,18.5c-4.83,0-8.75,3.92-8.75,8.75c0,4.83,3.92,8.75,8.75,8.75s8.75-3.92,8.75-8.75C105.1,22.42,101.18,18.5,96.35,18.5
				L96.35,18.5z"/>
		</g>
		<g>
			<g>
				<circle class="st3" cx="179.47" cy="5.37" r="3.81"/>
				<g>
					<path class="st5" d="M179.47,2.12c1.79,0,3.25,1.46,3.25,3.25s-1.46,3.25-3.25,3.25s-3.25-1.46-3.25-3.25
						S177.68,2.12,179.47,2.12 M179.47,1c-2.42,0-4.38,1.96-4.38,4.38c0,2.42,1.96,4.38,4.38,4.38c2.42,0,4.38-1.96,4.38-4.38
						C183.85,2.96,181.89,1,179.47,1L179.47,1z"/>
				</g>
			</g>
			<g>
				<circle class="st3" cx="188.22" cy="5.37" r="3.81"/>
				<g>
					<path class="st4" d="M188.22,2.12c1.79,0,3.25,1.46,3.25,3.25s-1.46,3.25-3.25,3.25c-1.79,0-3.25-1.46-3.25-3.25
						S186.43,2.12,188.22,2.12 M188.22,1c-2.42,0-4.38,1.96-4.38,4.38c0,2.42,1.96,4.38,4.38,4.38s4.38-1.96,4.38-4.38
						C192.6,2.96,190.64,1,188.22,1L188.22,1z"/>
				</g>
			</g>
			<g>
				<circle class="st3" cx="179.47" cy="14.12" r="3.81"/>
				<g>
					<path class="st5" d="M179.47,10.87c1.79,0,3.25,1.46,3.25,3.25c0,1.79-1.46,3.25-3.25,3.25s-3.25-1.46-3.25-3.25
						C176.22,12.33,177.68,10.87,179.47,10.87 M179.47,9.75c-2.42,0-4.38,1.96-4.38,4.38s1.96,4.38,4.38,4.38
						c2.42,0,4.38-1.96,4.38-4.38S181.89,9.75,179.47,9.75L179.47,9.75z"/>
				</g>
			</g>
			<g>
				<circle class="st3" cx="188.22" cy="14.12" r="3.81"/>
				<g>
					<path class="st4" d="M188.22,10.87c1.79,0,3.25,1.46,3.25,3.25c0,1.79-1.46,3.25-3.25,3.25c-1.79,0-3.25-1.46-3.25-3.25
						C184.97,12.33,186.43,10.87,188.22,10.87 M188.22,9.75c-2.42,0-4.38,1.96-4.38,4.38s1.96,4.38,4.38,4.38s4.38-1.96,4.38-4.38
						S190.64,9.75,188.22,9.75L188.22,9.75z"/>
				</g>
			</g>
			<g>
				<circle class="st3" cx="188.22" cy="22.87" r="3.81"/>
				<g>
					<path class="st4" d="M188.22,19.62c1.79,0,3.25,1.46,3.25,3.25s-1.46,3.25-3.25,3.25c-1.79,0-3.25-1.46-3.25-3.25
						S186.43,19.62,188.22,19.62 M188.22,18.5c-2.42,0-4.38,1.96-4.38,4.38s1.96,4.38,4.38,4.38s4.38-1.96,4.38-4.38
						S190.64,18.5,188.22,18.5L188.22,18.5z"/>
				</g>
			</g>
			<g>
				<circle class="st3" cx="188.22" cy="31.62" r="3.81"/>
				<g>
					<path class="st4" d="M188.22,28.37c1.79,0,3.25,1.46,3.25,3.25c0,1.79-1.46,3.25-3.25,3.25c-1.79,0-3.25-1.46-3.25-3.25
						C184.97,29.83,186.43,28.37,188.22,28.37 M188.22,27.25c-2.42,0-4.38,1.96-4.38,4.38c0,2.42,1.96,4.38,4.38,4.38
						s4.38-1.96,4.38-4.38C192.6,29.21,190.64,27.25,188.22,27.25L188.22,27.25z"/>
				</g>
			</g>
			<g>
				<circle class="st3" cx="214.47" cy="22.87" r="3.81"/>
				<g>
					<path class="st5" d="M214.47,19.62c1.79,0,3.25,1.46,3.25,3.25s-1.46,3.25-3.25,3.25c-1.79,0-3.25-1.46-3.25-3.25
						S212.68,19.62,214.47,19.62 M214.47,18.5c-2.42,0-4.38,1.96-4.38,4.38s1.96,4.38,4.38,4.38s4.38-1.96,4.38-4.38
						S216.89,18.5,214.47,18.5L214.47,18.5z"/>
				</g>
			</g>
			<g>
				<circle class="st3" cx="214.47" cy="31.62" r="3.81"/>
				<g>
					<path class="st5" d="M214.47,28.37c1.79,0,3.25,1.46,3.25,3.25c0,1.79-1.46,3.25-3.25,3.25c-1.79,0-3.25-1.46-3.25-3.25
						C211.22,29.83,212.68,28.37,214.47,28.37 M214.47,27.25c-2.42,0-4.38,1.96-4.38,4.38c0,2.42,1.96,4.38,4.38,4.38
						s4.38-1.96,4.38-4.38C218.85,29.21,216.89,27.25,214.47,27.25L214.47,27.25z"/>
				</g>
			</g>
			<g>
				<circle class="st3" cx="188.22" cy="40.37" r="3.81"/>
				<g>
					<path class="st4" d="M188.22,37.13c1.79,0,3.25,1.46,3.25,3.25c0,1.79-1.46,3.25-3.25,3.25c-1.79,0-3.25-1.46-3.25-3.25
						C184.97,38.58,186.43,37.13,188.22,37.13 M188.22,36c-2.42,0-4.38,1.96-4.38,4.38c0,2.42,1.96,4.38,4.38,4.38
						s4.38-1.96,4.38-4.38C192.6,37.96,190.64,36,188.22,36L188.22,36z"/>
				</g>
			</g>
		</g>
		<g>
			<g>
				<circle class="st3" cx="196.97" cy="5.37" r="3.81"/>
				<g>
					<path class="st5" d="M196.97,2.12c1.79,0,3.25,1.46,3.25,3.25s-1.46,3.25-3.25,3.25c-1.79,0-3.25-1.46-3.25-3.25
						S195.18,2.12,196.97,2.12 M196.97,1c-2.42,0-4.38,1.96-4.38,4.38c0,2.42,1.96,4.38,4.38,4.38c2.42,0,4.38-1.96,4.38-4.38
						C201.35,2.96,199.39,1,196.97,1L196.97,1z"/>
				</g>
			</g>
			<g>
				<path class="st3" d="M205.72,9.19c-2.1,0-3.81-1.71-3.81-3.81s1.71-3.81,3.81-3.81c2.1,0,3.81,1.71,3.81,3.81
					S207.82,9.19,205.72,9.19z"/>
				<g>
					<path class="st4" d="M205.72,2.12c1.79,0,3.25,1.46,3.25,3.25s-1.46,3.25-3.25,3.25s-3.25-1.46-3.25-3.25
						S203.93,2.12,205.72,2.12 M205.72,1c-2.42,0-4.38,1.96-4.38,4.38c0,2.42,1.96,4.38,4.38,4.38c2.42,0,4.38-1.96,4.38-4.38
						C210.1,2.96,208.14,1,205.72,1L205.72,1z"/>
				</g>
			</g>
		</g>
		<g>
			<g>
				<circle class="st3" cx="214.47" cy="5.37" r="3.81"/>
				<g>
					<path class="st5" d="M214.47,2.12c1.79,0,3.25,1.46,3.25,3.25s-1.46,3.25-3.25,3.25c-1.79,0-3.25-1.46-3.25-3.25
						S212.68,2.12,214.47,2.12 M214.47,1c-2.42,0-4.38,1.96-4.38,4.38c0,2.42,1.96,4.38,4.38,4.38s4.38-1.96,4.38-4.38
						C218.85,2.96,216.89,1,214.47,1L214.47,1z"/>
				</g>
			</g>
			<g>
				<circle class="st3" cx="214.47" cy="14.12" r="3.81"/>
				<g>
					<path class="st5" d="M214.47,10.87c1.79,0,3.25,1.46,3.25,3.25c0,1.79-1.46,3.25-3.25,3.25c-1.79,0-3.25-1.46-3.25-3.25
						C211.22,12.33,212.68,10.87,214.47,10.87 M214.47,9.75c-2.42,0-4.38,1.96-4.38,4.38s1.96,4.38,4.38,4.38s4.38-1.96,4.38-4.38
						S216.89,9.75,214.47,9.75L214.47,9.75z"/>
				</g>
			</g>
		</g>
		<g>
			<g>
				<g>
					<path class="st5" d="M179.47,62.25L179.47,62.25c-2.42,0-4.38-1.96-4.38-4.38l0,0c0-2.42,1.96-4.38,4.38-4.38l0,0
						c2.42,0,4.38,1.96,4.38,4.38l0,0C183.85,60.29,181.89,62.25,179.47,62.25z"/>
				</g>
				<g>
					<path class="st4" d="M188.22,62.25L188.22,62.25c-2.42,0-4.38-1.96-4.38-4.38l0,0c0-2.42,1.96-4.38,4.38-4.38l0,0
						c2.42,0,4.38,1.96,4.38,4.38l0,0C192.6,60.29,190.64,62.25,188.22,62.25z"/>
				</g>
			</g>
			<g>
				<g>
					<path class="st5" d="M196.97,62.25L196.97,62.25c-2.42,0-4.38-1.96-4.38-4.38l0,0c0-2.42,1.96-4.38,4.38-4.38l0,0
						c2.42,0,4.38,1.96,4.38,4.38l0,0C201.35,60.29,199.39,62.25,196.97,62.25z"/>
				</g>
				<g>
					<path class="st4" d="M205.72,62.25L205.72,62.25c-2.42,0-4.38-1.96-4.38-4.38l0,0c0-2.42,1.96-4.38,4.38-4.38l0,0
						c2.42,0,4.38,1.96,4.38,4.38l0,0C210.1,60.29,208.14,62.25,205.72,62.25z"/>
				</g>
				<g>
					<path class="st4" d="M188.22,71L188.22,71c-2.42,0-4.38-1.96-4.38-4.38l0,0c0-2.42,1.96-4.38,4.38-4.38l0,0
						c2.42,0,4.38,1.96,4.38,4.38l0,0C192.6,69.04,190.64,71,188.22,71z"/>
				</g>
			</g>
			<g>
				<g>
					<path class="st5" d="M214.47,62.25L214.47,62.25c-2.42,0-4.38-1.96-4.38-4.38l0,0c0-2.42,1.96-4.38,4.38-4.38l0,0
						c2.42,0,4.38,1.96,4.38,4.38l0,0C218.85,60.29,216.89,62.25,214.47,62.25z"/>
				</g>
				<g>
					<path class="st5" d="M214.47,71L214.47,71c-2.42,0-4.38-1.96-4.38-4.38l0,0c0-2.42,1.96-4.38,4.38-4.38l0,0
						c2.42,0,4.38,1.96,4.38,4.38l0,0C218.85,69.04,216.89,71,214.47,71z"/>
				</g>
			</g>
			<g>
				<g>
					<path class="st5" d="M214.47,79.75L214.47,79.75c-2.42,0-4.38-1.96-4.38-4.37l0,0c0-2.42,1.96-4.38,4.38-4.38l0,0
						c2.42,0,4.38,1.96,4.38,4.38l0,0C218.85,77.79,216.89,79.75,214.47,79.75z"/>
				</g>
			</g>
			<g>
				<path class="st5" d="M214.47,88.5L214.47,88.5c-2.42,0-4.38-1.96-4.38-4.38l0,0c0-2.42,1.96-4.38,4.38-4.38l0,0
					c2.42,0,4.38,1.96,4.38,4.38l0,0C218.85,86.54,216.89,88.5,214.47,88.5z"/>
			</g>
			<g>
				<g>
					<path class="st5" d="M214.47,97.25L214.47,97.25c-2.42,0-4.38-1.96-4.38-4.38l0,0c0-2.42,1.96-4.38,4.38-4.38l0,0
						c2.42,0,4.38,1.96,4.38,4.38l0,0C218.85,95.29,216.89,97.25,214.47,97.25z"/>
				</g>
			</g>
			<g>
				<path class="st5" d="M196.97,71L196.97,71c-2.42,0-4.38-1.96-4.38-4.38l0,0c0-2.42,1.96-4.38,4.38-4.38l0,0
					c2.42,0,4.38,1.96,4.38,4.38l0,0C201.35,69.04,199.39,71,196.97,71z"/>
			</g>
			<g>
				<g>
					<path class="st5" d="M196.97,79.75L196.97,79.75c-2.42,0-4.38-1.96-4.38-4.37l0,0c0-2.42,1.96-4.38,4.38-4.38l0,0
						c2.42,0,4.38,1.96,4.38,4.38l0,0C201.35,77.79,199.39,79.75,196.97,79.75z"/>
				</g>
			</g>
		</g>
		<rect x="105.1" y="1" class="st7" width="35" height="105"/>
		<line class="st8" x1="15.91" y1="2.63" x2="1.78" y2="16.76"/>
		<line class="st8" x1="68.41" y1="2.63" x2="54.28" y2="16.76"/>
		<line class="st8" x1="85.91" y1="2.63" x2="71.78" y2="16.76"/>
		<line class="st8" x1="121.08" y1="20.18" x2="106.95" y2="34.32"/>
		<line class="st9" x1="175.1" y1="1" x2="175.1" y2="106"/>
		<line class="st9" x1="262.6" y1="53.5" x2="262.6" y2="106"/>
		<line class="st9" x1="350.1" y1="53.5" x2="175.1" y2="53.5"/>
		<line class="st10" x1="277.84" y1="55.75" x2="273.6" y2="60"/>
		<line class="st12" x1="269.09" y1="55.75" x2="264.85" y2="60"/>
		<line class="st10" x1="295.34" y1="55.75" x2="291.1" y2="60"/>
		<line class="st12" x1="269.09" y1="64.5" x2="264.85" y2="68.75"/>
		<line class="st10" x1="312.88" y1="55.75" x2="308.63" y2="60"/>
		<line class="st10" x1="312.88" y1="64.5" x2="308.63" y2="68.75"/>
		<line class="st10" x1="312.88" y1="73.25" x2="308.63" y2="77.5"/>
		<line class="st10" x1="312.88" y1="82" x2="308.63" y2="86.25"/>
		<line class="st12" x1="286.59" y1="55.75" x2="282.35" y2="60"/>
		<line class="st12" x1="286.59" y1="64.5" x2="282.35" y2="68.75"/>
		<line class="st12" x1="304.09" y1="55.75" x2="299.85" y2="60"/>
	</g>
	<linearGradient id="SVGID_1_" gradientUnits="userSpaceOnUse" x1="-24.2284" y1="0.9178" x2="325.7715" y2="0.9178">
		<stop  offset="0" style="stop-color:#B47C24;stop-opacity:0"/>
		<stop  offset="0.5" style="stop-color:#F2D77A"/>
		<stop  offset="1" style="stop-color:#B47C24;stop-opacity:0"/>
	</linearGradient>
	<line class="st13" x1="-24.23" y1="0.92" x2="325.77" y2="0.92"/>
</g>
<g id="圖層_2" class="st21">
</g>
</svg>
