<?xml version="1.0" encoding="utf-8"?>
<!-- Generator: Adobe Illustrator 25.2.3, SVG Export Plug-In . SVG Version: 6.00 Build 0)  -->
<svg version="1.1" xmlns="http://www.w3.org/2000/svg" xmlns:xlink="http://www.w3.org/1999/xlink" x="0px" y="0px"
	 viewBox="0 0 351 106.5" style="enable-background:new 0 0 351 106.5;" xml:space="preserve">
<style type="text/css">
	.st0{fill:#FFFFFF;stroke:#000000;stroke-miterlimit:10;}
	.st1{fill:#FF0000;}
	.st2{fill:#FFFFFF;stroke:#B2B2B2;stroke-miterlimit:10;}
	.st3{fill:#FFFFFF;}
	.st4{fill:#005DFF;}
	.st5{fill:#FF302A;}
	.st6{fill:#008ED6;}
	.st7{fill:none;stroke:#FF0000;stroke-width:2;stroke-miterlimit:10;}
	.st8{fill:none;stroke:#14B045;stroke-width:2.7;stroke-linecap:round;stroke-linejoin:round;stroke-miterlimit:10;}
	.st9{fill:none;stroke:#000000;stroke-miterlimit:10;}
	.st10{fill:none;stroke:#FF302A;stroke-width:1.6561;stroke-linecap:round;stroke-miterlimit:10;}
	.st11{fill:none;stroke:#005DFF;stroke-width:1.6561;stroke-linecap:round;stroke-linejoin:round;stroke-miterlimit:10;}
	.st12{fill:none;stroke:#005DFF;stroke-width:1.6561;stroke-linecap:round;stroke-miterlimit:10;}
	.st13{fill:none;stroke:url(#SVGID_1_);stroke-width:0.803;stroke-miterlimit:10;}
	.st14{fill:none;stroke:url(#SVGID_2_);stroke-width:0.803;stroke-miterlimit:10;}
	.st15{fill:none;stroke:url(#SVGID_3_);stroke-width:0.803;stroke-miterlimit:10;}
	.st16{fill:none;stroke:url(#SVGID_4_);stroke-width:0.803;stroke-miterlimit:10;}
	.st17{fill:none;stroke:url(#SVGID_5_);stroke-width:0.803;stroke-miterlimit:10;}
	.st18{fill:none;stroke:url(#SVGID_6_);stroke-width:0.803;stroke-miterlimit:10;}
	.st19{fill:none;stroke:url(#SVGID_7_);stroke-width:0.803;stroke-miterlimit:10;}
	.st20{fill:none;stroke:url(#SVGID_8_);stroke-width:0.803;stroke-miterlimit:10;}
	.st21{display:none;}
	.st22{display:inline;}
</style>
<g id="圖層_1">
	<g>
		<g>
			<rect x="0.5" y="1" class="st2" width="17.5" height="17.5"/>
			<rect x="0.5" y="18.5" class="st2" width="17.5" height="17.5"/>
			<rect x="0.5" y="36" class="st2" width="17.5" height="17.5"/>
			<rect x="0.5" y="53.5" class="st2" width="17.5" height="17.5"/>
			<rect x="0.5" y="71" class="st2" width="17.5" height="17.5"/>
			<rect x="0.5" y="88.5" class="st2" width="17.5" height="17.5"/>
			<rect x="18" y="1" class="st2" width="17.5" height="17.5"/>
			<rect x="18" y="18.5" class="st2" width="17.5" height="17.5"/>
			<rect x="18" y="36" class="st2" width="17.5" height="17.5"/>
			<rect x="18" y="53.5" class="st2" width="17.5" height="17.5"/>
			<rect x="18" y="71" class="st2" width="17.5" height="17.5"/>
			<rect x="18" y="88.5" class="st2" width="17.5" height="17.5"/>
			<rect x="35.5" y="1" class="st2" width="17.5" height="17.5"/>
			<rect x="35.5" y="18.5" class="st2" width="17.5" height="17.5"/>
			<rect x="35.5" y="36" class="st2" width="17.5" height="17.5"/>
			<rect x="35.5" y="53.5" class="st2" width="17.5" height="17.5"/>
			<rect x="35.5" y="71" class="st2" width="17.5" height="17.5"/>
			<rect x="35.5" y="88.5" class="st2" width="17.5" height="17.5"/>
			<rect x="53" y="1" class="st2" width="17.5" height="17.5"/>
			<rect x="53" y="18.5" class="st2" width="17.5" height="17.5"/>
			<rect x="53" y="36" class="st2" width="17.5" height="17.5"/>
			<rect x="53" y="53.5" class="st2" width="17.5" height="17.5"/>
			<rect x="53" y="71" class="st2" width="17.5" height="17.5"/>
			<rect x="53" y="88.5" class="st2" width="17.5" height="17.5"/>
			<rect x="70.5" y="1" class="st2" width="17.5" height="17.5"/>
			<rect x="70.5" y="18.5" class="st2" width="17.5" height="17.5"/>
			<rect x="70.5" y="36" class="st2" width="17.5" height="17.5"/>
			<rect x="70.5" y="53.5" class="st2" width="17.5" height="17.5"/>
			<rect x="70.5" y="71" class="st2" width="17.5" height="17.5"/>
			<rect x="70.5" y="88.5" class="st2" width="17.5" height="17.5"/>
			<g>
				<rect x="88" y="1" class="st3" width="17.5" height="17.5"/>
			</g>
			<rect x="88" y="18.5" class="st2" width="17.5" height="17.5"/>
			<rect x="88" y="36" class="st2" width="17.5" height="17.5"/>
			<rect x="88" y="53.5" class="st2" width="17.5" height="17.5"/>
			<rect x="88" y="71" class="st2" width="17.5" height="17.5"/>
			<rect x="88" y="88.5" class="st2" width="17.5" height="17.5"/>
			<rect x="105.5" y="1" class="st2" width="17.5" height="17.5"/>
			<rect x="105.5" y="18.5" class="st2" width="17.5" height="17.5"/>
			<rect x="105.5" y="36" class="st2" width="17.5" height="17.5"/>
			<rect x="105.5" y="53.5" class="st2" width="17.5" height="17.5"/>
			<rect x="105.5" y="71" class="st2" width="17.5" height="17.5"/>
			<rect x="105.5" y="88.5" class="st2" width="17.5" height="17.5"/>
			<rect x="123" y="1" class="st2" width="17.5" height="17.5"/>
			<rect x="123" y="18.5" class="st2" width="17.5" height="17.5"/>
			<rect x="123" y="36" class="st2" width="17.5" height="17.5"/>
			<rect x="123" y="53.5" class="st2" width="17.5" height="17.5"/>
			<rect x="123" y="71" class="st2" width="17.5" height="17.5"/>
			<rect x="123" y="88.5" class="st2" width="17.5" height="17.5"/>
			<rect x="140.5" y="1" class="st2" width="17.5" height="17.5"/>
			<rect x="140.5" y="18.5" class="st2" width="17.5" height="17.5"/>
			<rect x="140.5" y="36" class="st2" width="17.5" height="17.5"/>
			<rect x="140.5" y="53.5" class="st2" width="17.5" height="17.5"/>
			<rect x="140.5" y="71" class="st2" width="17.5" height="17.5"/>
			<rect x="140.5" y="88.5" class="st2" width="17.5" height="17.5"/>
			<rect x="158" y="1" class="st2" width="17.5" height="17.5"/>
			<rect x="158" y="18.5" class="st2" width="17.5" height="17.5"/>
			<rect x="158" y="36" class="st2" width="17.5" height="17.5"/>
			<rect x="158" y="53.5" class="st2" width="17.5" height="17.5"/>
			<rect x="158" y="71" class="st2" width="17.5" height="17.5"/>
			<rect x="158" y="88.5" class="st2" width="17.5" height="17.5"/>
			<rect x="175.5" y="1" class="st2" width="17.5" height="17.5"/>
			<rect x="175.5" y="18.5" class="st2" width="17.5" height="17.5"/>
			<rect x="175.5" y="36" class="st2" width="17.5" height="17.5"/>
			<rect x="175.5" y="53.5" class="st2" width="17.5" height="17.5"/>
			<rect x="175.5" y="71" class="st2" width="17.5" height="17.5"/>
			<rect x="175.5" y="88.5" class="st2" width="17.5" height="17.5"/>
			<rect x="193" y="1" class="st2" width="17.5" height="17.5"/>
			<rect x="193" y="18.5" class="st2" width="17.5" height="17.5"/>
			<rect x="193" y="36" class="st2" width="17.5" height="17.5"/>
			<rect x="193" y="53.5" class="st2" width="17.5" height="17.5"/>
			<rect x="193" y="71" class="st2" width="17.5" height="17.5"/>
			<rect x="193" y="88.5" class="st2" width="17.5" height="17.5"/>
			<rect x="210.5" y="1" class="st2" width="17.5" height="17.5"/>
			<rect x="210.5" y="18.5" class="st2" width="17.5" height="17.5"/>
			<rect x="210.5" y="36" class="st2" width="17.5" height="17.5"/>
			<rect x="210.5" y="53.5" class="st2" width="17.5" height="17.5"/>
			<rect x="210.5" y="71" class="st2" width="17.5" height="17.5"/>
			<rect x="210.5" y="88.5" class="st2" width="17.5" height="17.5"/>
			<rect x="228" y="1" class="st2" width="17.5" height="17.5"/>
			<rect x="228" y="18.5" class="st2" width="17.5" height="17.5"/>
			<rect x="228" y="36" class="st2" width="17.5" height="17.5"/>
			<rect x="228" y="53.5" class="st2" width="17.5" height="17.5"/>
			<rect x="228" y="71" class="st2" width="17.5" height="17.5"/>
			<rect x="228" y="88.5" class="st2" width="17.5" height="17.5"/>
			<rect x="245.5" y="1" class="st2" width="17.5" height="17.5"/>
			<rect x="245.5" y="18.5" class="st2" width="17.5" height="17.5"/>
			<rect x="245.5" y="36" class="st2" width="17.5" height="17.5"/>
			<rect x="245.5" y="53.5" class="st2" width="17.5" height="17.5"/>
			<rect x="245.5" y="71" class="st2" width="17.5" height="17.5"/>
			<rect x="245.5" y="88.5" class="st2" width="17.5" height="17.5"/>
			<g>
				<rect x="263" y="1" class="st2" width="17.5" height="17.5"/>
				<rect x="263" y="18.5" class="st2" width="17.5" height="17.5"/>
				<rect x="263" y="36" class="st2" width="17.5" height="17.5"/>
				<rect x="263" y="53.5" class="st2" width="17.5" height="17.5"/>
				<rect x="263" y="71" class="st2" width="17.5" height="17.5"/>
				<rect x="263" y="88.5" class="st2" width="17.5" height="17.5"/>
			</g>
			<g>
				<rect x="280.5" y="1" class="st2" width="17.5" height="17.5"/>
				<rect x="280.5" y="18.5" class="st2" width="17.5" height="17.5"/>
				<rect x="280.5" y="36" class="st2" width="17.5" height="17.5"/>
				<rect x="280.5" y="53.5" class="st2" width="17.5" height="17.5"/>
				<rect x="280.5" y="71" class="st2" width="17.5" height="17.5"/>
				<rect x="280.5" y="88.5" class="st2" width="17.5" height="17.5"/>
			</g>
			<g>
				<rect x="298" y="1" class="st2" width="17.5" height="17.5"/>
				<rect x="298" y="18.5" class="st2" width="17.5" height="17.5"/>
				<rect x="298" y="36" class="st2" width="17.5" height="17.5"/>
				<rect x="298" y="53.5" class="st2" width="17.5" height="17.5"/>
				<rect x="298" y="71" class="st2" width="17.5" height="17.5"/>
				<rect x="298" y="88.5" class="st2" width="17.5" height="17.5"/>
			</g>
			<g>
				<rect x="315.5" y="1" class="st2" width="17.5" height="17.5"/>
				<rect x="315.5" y="18.5" class="st2" width="17.5" height="17.5"/>
				<rect x="315.5" y="36" class="st2" width="17.5" height="17.5"/>
				<rect x="315.5" y="53.5" class="st2" width="17.5" height="17.5"/>
				<rect x="315.5" y="71" class="st2" width="17.5" height="17.5"/>
				<rect x="315.5" y="88.5" class="st2" width="17.5" height="17.5"/>
			</g>
			<g>
				<rect x="333" y="1" class="st2" width="17.5" height="17.5"/>
				<rect x="333" y="18.5" class="st2" width="17.5" height="17.5"/>
				<rect x="333" y="36" class="st2" width="17.5" height="17.5"/>
				<rect x="333" y="53.5" class="st2" width="17.5" height="17.5"/>
				<rect x="333" y="71" class="st2" width="17.5" height="17.5"/>
				<rect x="333" y="88.5" class="st2" width="17.5" height="17.5"/>
			</g>
		</g>
		<g>
			<circle class="st3" cx="9.25" cy="9.75" r="7.62"/>
			<g>
				<path class="st1" d="M9.25,3.25c3.58,0,6.5,2.92,6.5,6.5s-2.92,6.5-6.5,6.5s-6.5-2.92-6.5-6.5S5.67,3.25,9.25,3.25 M9.25,1
					L9.25,1C4.42,1,0.5,4.92,0.5,9.75s3.92,8.75,8.75,8.75h0c4.83,0,8.75-3.92,8.75-8.75S14.08,1,9.25,1L9.25,1z"/>
			</g>
		</g>
		<g>
			<circle class="st3" cx="26.75" cy="9.75" r="7.62"/>
			<path class="st4" d="M26.75,3.25c3.58,0,6.5,2.92,6.5,6.5s-2.92,6.5-6.5,6.5s-6.5-2.92-6.5-6.5S23.17,3.25,26.75,3.25 M26.75,1
				C21.92,1,18,4.92,18,9.75s3.92,8.75,8.75,8.75s8.75-3.92,8.75-8.75S31.58,1,26.75,1L26.75,1z"/>
		</g>
		<g>
			<circle class="st3" cx="44.25" cy="9.75" r="7.62"/>
			<g>
				<path class="st1" d="M44.25,3.25c3.58,0,6.5,2.92,6.5,6.5s-2.92,6.5-6.5,6.5c-3.58,0-6.5-2.92-6.5-6.5S40.67,3.25,44.25,3.25
					 M44.25,1c-4.83,0-8.75,3.92-8.75,8.75s3.92,8.75,8.75,8.75S53,14.58,53,9.75S49.08,1,44.25,1L44.25,1z"/>
			</g>
		</g>
		<g>
			<circle class="st3" cx="61.75" cy="9.75" r="7.62"/>
			<path class="st4" d="M61.75,3.25c3.58,0,6.5,2.92,6.5,6.5s-2.92,6.5-6.5,6.5c-3.58,0-6.5-2.92-6.5-6.5S58.17,3.25,61.75,3.25
				 M61.75,1C56.92,1,53,4.92,53,9.75s3.92,8.75,8.75,8.75c4.83,0,8.75-3.92,8.75-8.75S66.58,1,61.75,1L61.75,1z"/>
		</g>
		<g>
			<circle class="st3" cx="79.25" cy="9.75" r="7.62"/>
			<g>
				<path class="st1" d="M79.25,3.25c3.58,0,6.5,2.92,6.5,6.5s-2.92,6.5-6.5,6.5c-3.58,0-6.5-2.92-6.5-6.5S75.67,3.25,79.25,3.25
					 M79.25,1L79.25,1c-4.83,0-8.75,3.92-8.75,8.75s3.92,8.75,8.75,8.75h0c4.83,0,8.75-3.92,8.75-8.75S84.08,1,79.25,1L79.25,1z"/>
			</g>
		</g>
		<g>
			<circle class="st3" cx="96.75" cy="9.75" r="7.62"/>
			<path class="st4" d="M96.75,3.25c3.58,0,6.5,2.92,6.5,6.5s-2.92,6.5-6.5,6.5s-6.5-2.92-6.5-6.5S93.17,3.25,96.75,3.25 M96.75,1
				C91.92,1,88,4.92,88,9.75s3.92,8.75,8.75,8.75c4.83,0,8.75-3.92,8.75-8.75S101.58,1,96.75,1L96.75,1z"/>
		</g>
		<g>
			<circle class="st3" cx="114.25" cy="9.75" r="7.62"/>
			<g>
				<path class="st1" d="M114.25,3.25c3.58,0,6.5,2.92,6.5,6.5s-2.92,6.5-6.5,6.5s-6.5-2.92-6.5-6.5S110.67,3.25,114.25,3.25
					 M114.25,1c-4.83,0-8.75,3.92-8.75,8.75s3.92,8.75,8.75,8.75c4.83,0,8.75-3.92,8.75-8.75S119.08,1,114.25,1L114.25,1z"/>
			</g>
		</g>
		<g>
			<circle class="st3" cx="114.25" cy="27.25" r="7.62"/>
			<g>
				<path class="st1" d="M114.25,20.75c3.58,0,6.5,2.92,6.5,6.5s-2.92,6.5-6.5,6.5s-6.5-2.92-6.5-6.5S110.67,20.75,114.25,20.75
					 M114.25,18.5c-4.83,0-8.75,3.92-8.75,8.75s3.92,8.75,8.75,8.75c4.83,0,8.75-3.92,8.75-8.75S119.08,18.5,114.25,18.5
					L114.25,18.5z"/>
			</g>
		</g>
		<g>
			<circle class="st3" cx="131.75" cy="9.75" r="7.62"/>
			<path class="st4" d="M131.75,3.25c3.58,0,6.5,2.92,6.5,6.5s-2.92,6.5-6.5,6.5c-3.58,0-6.5-2.92-6.5-6.5S128.17,3.25,131.75,3.25
				 M131.75,1C126.92,1,123,4.92,123,9.75s3.92,8.75,8.75,8.75c4.83,0,8.75-3.92,8.75-8.75S136.58,1,131.75,1L131.75,1z"/>
		</g>
		<g>
			<circle class="st3" cx="149.25" cy="9.75" r="7.62"/>
			<g>
				<path class="st1" d="M149.25,3.25c3.58,0,6.5,2.92,6.5,6.5s-2.92,6.5-6.5,6.5c-3.58,0-6.5-2.92-6.5-6.5S145.67,3.25,149.25,3.25
					 M149.25,1c-4.83,0-8.75,3.92-8.75,8.75s3.92,8.75,8.75,8.75c4.83,0,8.75-3.92,8.75-8.75S154.08,1,149.25,1L149.25,1z"/>
			</g>
		</g>
		<g>
			<circle class="st3" cx="149.25" cy="27.25" r="7.62"/>
			<g>
				<path class="st1" d="M149.25,20.75c3.58,0,6.5,2.92,6.5,6.5s-2.92,6.5-6.5,6.5c-3.58,0-6.5-2.92-6.5-6.5
					S145.67,20.75,149.25,20.75 M149.25,18.5c-4.83,0-8.75,3.92-8.75,8.75s3.92,8.75,8.75,8.75c4.83,0,8.75-3.92,8.75-8.75
					S154.08,18.5,149.25,18.5L149.25,18.5z"/>
			</g>
		</g>
		<g>
			<circle class="st3" cx="61.75" cy="27.25" r="7.62"/>
			<g>
				<path class="st4" d="M61.75,20.75c3.58,0,6.5,2.92,6.5,6.5s-2.92,6.5-6.5,6.5c-3.58,0-6.5-2.92-6.5-6.5S58.17,20.75,61.75,20.75
					 M61.75,18.5c-4.83,0-8.75,3.92-8.75,8.75S56.92,36,61.75,36c4.83,0,8.75-3.92,8.75-8.75S66.58,18.5,61.75,18.5L61.75,18.5z"/>
			</g>
		</g>
		<g>
			<circle class="st3" cx="61.75" cy="44.75" r="7.62"/>
			<g>
				<path class="st4" d="M61.75,38.25c3.58,0,6.5,2.92,6.5,6.5c0,3.58-2.92,6.5-6.5,6.5c-3.58,0-6.5-2.92-6.5-6.5
					C55.25,41.17,58.17,38.25,61.75,38.25 M61.75,36C56.92,36,53,39.92,53,44.75v0c0,4.83,3.92,8.75,8.75,8.75
					c4.83,0,8.75-3.92,8.75-8.75v0C70.5,39.92,66.58,36,61.75,36L61.75,36z"/>
			</g>
		</g>
		<g>
			<circle class="st3" cx="61.75" cy="62.25" r="7.62"/>
			<g>
				<path class="st4" d="M61.75,55.75c3.58,0,6.5,2.92,6.5,6.5c0,3.58-2.92,6.5-6.5,6.5c-3.58,0-6.5-2.92-6.5-6.5
					C55.25,58.67,58.17,55.75,61.75,55.75 M61.75,53.5c-4.83,0-8.75,3.92-8.75,8.75S56.92,71,61.75,71c4.83,0,8.75-3.92,8.75-8.75
					S66.58,53.5,61.75,53.5L61.75,53.5z"/>
			</g>
		</g>
		<g>
			<g>
				<path class="st3" d="M179.88,9.19c-2.1,0-3.81-1.71-3.81-3.81c0-2.1,1.71-3.81,3.81-3.81c2.1,0,3.81,1.71,3.81,3.81
					C183.69,7.48,181.98,9.19,179.88,9.19z"/>
				<path class="st5" d="M179.88,2.12c1.79,0,3.25,1.46,3.25,3.25c0,1.79-1.46,3.25-3.25,3.25c-1.79,0-3.25-1.46-3.25-3.25
					C176.63,3.58,178.08,2.12,179.88,2.12 M179.88,1c-2.42,0-4.38,1.96-4.38,4.38s1.96,4.38,4.38,4.38c2.42,0,4.38-1.96,4.38-4.38
					S182.29,1,179.88,1L179.88,1z"/>
			</g>
			<g>
				<circle class="st3" cx="188.63" cy="5.38" r="3.81"/>
				<path class="st4" d="M188.63,2.12c1.79,0,3.25,1.46,3.25,3.25c0,1.79-1.46,3.25-3.25,3.25c-1.79,0-3.25-1.46-3.25-3.25
					C185.38,3.58,186.83,2.12,188.63,2.12 M188.63,1c-2.42,0-4.38,1.96-4.38,4.38s1.96,4.38,4.38,4.38c2.42,0,4.38-1.96,4.38-4.38
					S191.04,1,188.63,1L188.63,1z"/>
			</g>
			<g>
				<path class="st3" d="M179.88,17.94c-2.1,0-3.81-1.71-3.81-3.81c0-2.1,1.71-3.81,3.81-3.81c2.1,0,3.81,1.71,3.81,3.81
					C183.69,16.23,181.98,17.94,179.88,17.94z"/>
				<path class="st5" d="M179.88,10.88c1.79,0,3.25,1.46,3.25,3.25s-1.46,3.25-3.25,3.25c-1.79,0-3.25-1.46-3.25-3.25
					S178.08,10.88,179.88,10.88 M179.88,9.75c-2.42,0-4.38,1.96-4.38,4.38c0,2.42,1.96,4.37,4.38,4.37c2.42,0,4.38-1.96,4.38-4.37
					C184.25,11.71,182.29,9.75,179.88,9.75L179.88,9.75z"/>
			</g>
		</g>
		<g>
			<g>
				<circle class="st3" cx="197.38" cy="5.38" r="3.81"/>
				<path class="st5" d="M197.38,2.12c1.79,0,3.25,1.46,3.25,3.25c0,1.79-1.46,3.25-3.25,3.25c-1.79,0-3.25-1.46-3.25-3.25
					C194.13,3.58,195.58,2.12,197.38,2.12 M197.38,1C194.96,1,193,2.96,193,5.38s1.96,4.38,4.38,4.38c2.42,0,4.38-1.96,4.38-4.38
					S199.79,1,197.38,1L197.38,1z"/>
			</g>
			<g>
				<circle class="st3" cx="206.13" cy="5.38" r="3.81"/>
				<path class="st4" d="M206.13,2.12c1.79,0,3.25,1.46,3.25,3.25c0,1.79-1.46,3.25-3.25,3.25c-1.79,0-3.25-1.46-3.25-3.25
					C202.88,3.58,204.33,2.12,206.13,2.12 M206.13,1c-2.42,0-4.38,1.96-4.38,4.38s1.96,4.38,4.38,4.38c2.42,0,4.38-1.96,4.38-4.38
					S208.54,1,206.13,1L206.13,1z"/>
			</g>
		</g>
		<g>
			<g>
				<circle class="st3" cx="214.88" cy="5.38" r="3.81"/>
				<path class="st5" d="M214.88,2.12c1.79,0,3.25,1.46,3.25,3.25c0,1.79-1.46,3.25-3.25,3.25c-1.79,0-3.25-1.46-3.25-3.25
					C211.63,3.58,213.08,2.12,214.88,2.12 M214.88,1c-2.42,0-4.38,1.96-4.38,4.38s1.96,4.38,4.38,4.38c2.42,0,4.38-1.96,4.38-4.38
					S217.29,1,214.88,1L214.88,1z"/>
			</g>
			<g>
				<circle class="st3" cx="197.38" cy="14.13" r="3.81"/>
				<path class="st5" d="M197.38,10.88c1.79,0,3.25,1.46,3.25,3.25s-1.46,3.25-3.25,3.25c-1.79,0-3.25-1.46-3.25-3.25
					S195.58,10.88,197.38,10.88 M197.38,9.75c-2.42,0-4.38,1.96-4.38,4.38c0,2.42,1.96,4.37,4.38,4.37c2.42,0,4.38-1.96,4.38-4.37
					C201.75,11.71,199.79,9.75,197.38,9.75L197.38,9.75z"/>
			</g>
			<g>
				<circle class="st3" cx="206.13" cy="14.13" r="3.81"/>
				<g>
					<path class="st4" d="M206.13,10.88c1.79,0,3.25,1.46,3.25,3.25s-1.46,3.25-3.25,3.25c-1.79,0-3.25-1.46-3.25-3.25
						S204.33,10.88,206.13,10.88 M206.13,9.75c-2.42,0-4.38,1.96-4.38,4.38c0,2.42,1.96,4.37,4.38,4.37c2.42,0,4.38-1.96,4.38-4.37
						C210.5,11.71,208.54,9.75,206.13,9.75L206.13,9.75z"/>
				</g>
			</g>
		</g>
		<g>
			<path class="st3" d="M223.63,9.19c-2.1,0-3.81-1.71-3.81-3.81c0-2.1,1.71-3.81,3.81-3.81c2.1,0,3.81,1.71,3.81,3.81
				C227.44,7.48,225.73,9.19,223.63,9.19z"/>
			<g>
				<path class="st4" d="M223.63,2.12c1.79,0,3.25,1.46,3.25,3.25c0,1.79-1.46,3.25-3.25,3.25c-1.79,0-3.25-1.46-3.25-3.25
					C220.38,3.58,221.83,2.12,223.63,2.12 M223.63,1c-2.42,0-4.38,1.96-4.38,4.38s1.96,4.38,4.38,4.38c2.42,0,4.38-1.96,4.38-4.38
					S226.04,1,223.63,1L223.63,1z"/>
			</g>
		</g>
		<g>
			<path class="st3" d="M223.63,17.94c-2.1,0-3.81-1.71-3.81-3.81c0-2.1,1.71-3.81,3.81-3.81c2.1,0,3.81,1.71,3.81,3.81
				C227.44,16.23,225.73,17.94,223.63,17.94z"/>
			<g>
				<path class="st4" d="M223.63,10.88c1.79,0,3.25,1.46,3.25,3.25s-1.46,3.25-3.25,3.25c-1.79,0-3.25-1.46-3.25-3.25
					S221.83,10.88,223.63,10.88 M223.63,9.75c-2.42,0-4.38,1.96-4.38,4.38c0,2.42,1.96,4.37,4.38,4.37c2.42,0,4.38-1.96,4.38-4.37
					C228,11.71,226.04,9.75,223.63,9.75L223.63,9.75z"/>
			</g>
		</g>
		<g>
			<g>
				<path class="st3" d="M223.63,26.69c-2.1,0-3.81-1.71-3.81-3.81c0-2.1,1.71-3.81,3.81-3.81c2.1,0,3.81,1.71,3.81,3.81
					C227.44,24.98,225.73,26.69,223.63,26.69z"/>
				<path class="st4" d="M223.63,19.63c1.79,0,3.25,1.46,3.25,3.25c0,1.79-1.46,3.25-3.25,3.25c-1.79,0-3.25-1.46-3.25-3.25
					C220.38,21.08,221.83,19.63,223.63,19.63 M223.63,18.5c-2.42,0-4.38,1.96-4.38,4.38c0,2.42,1.96,4.38,4.38,4.38
					c2.42,0,4.38-1.96,4.38-4.38C228,20.46,226.04,18.5,223.63,18.5L223.63,18.5z"/>
			</g>
			<g>
				<path class="st3" d="M223.63,35.44c-2.1,0-3.81-1.71-3.81-3.81c0-2.1,1.71-3.81,3.81-3.81c2.1,0,3.81,1.71,3.81,3.81
					C227.44,33.73,225.73,35.44,223.63,35.44z"/>
				<path class="st4" d="M223.63,28.38c1.79,0,3.25,1.46,3.25,3.25c0,1.79-1.46,3.25-3.25,3.25c-1.79,0-3.25-1.46-3.25-3.25
					C220.38,29.83,221.83,28.38,223.63,28.38 M223.63,27.25c-2.42,0-4.38,1.96-4.38,4.38c0,2.42,1.96,4.38,4.38,4.38
					c2.42,0,4.38-1.96,4.38-4.38C228,29.21,226.04,27.25,223.63,27.25L223.63,27.25z"/>
			</g>
		</g>
		<g>
			<g>
				<g>
					<path class="st5" d="M179.88,62.25L179.88,62.25c-2.42,0-4.38-1.96-4.38-4.38l0,0c0-2.42,1.96-4.38,4.38-4.38l0,0
						c2.42,0,4.38,1.96,4.38,4.38l0,0C184.25,60.29,182.29,62.25,179.88,62.25z"/>
				</g>
				<g>
					<path class="st4" d="M188.63,62.25L188.63,62.25c-2.42,0-4.38-1.96-4.38-4.38l0,0c0-2.42,1.96-4.38,4.38-4.38l0,0
						c2.42,0,4.38,1.96,4.38,4.38l0,0C193,60.29,191.04,62.25,188.63,62.25z"/>
				</g>
			</g>
			<g>
				<g>
					<path class="st5" d="M197.38,62.25L197.38,62.25c-2.42,0-4.38-1.96-4.38-4.38l0,0c0-2.42,1.96-4.38,4.38-4.38l0,0
						c2.42,0,4.38,1.96,4.38,4.38l0,0C201.75,60.29,199.79,62.25,197.38,62.25z"/>
				</g>
				<g>
					<path class="st4" d="M206.13,62.25L206.13,62.25c-2.42,0-4.38-1.96-4.38-4.38l0,0c0-2.42,1.96-4.38,4.38-4.38l0,0
						c2.42,0,4.38,1.96,4.38,4.38l0,0C210.5,60.29,208.54,62.25,206.13,62.25z"/>
				</g>
				<g>
					<path class="st5" d="M197.38,71L197.38,71c-2.42,0-4.38-1.96-4.38-4.38l0,0c0-2.42,1.96-4.38,4.38-4.38l0,0
						c2.42,0,4.38,1.96,4.38,4.38l0,0C201.75,69.04,199.79,71,197.38,71z"/>
				</g>
			</g>
			<g>
				<g>
					<path class="st5" d="M214.88,62.25L214.88,62.25c-2.42,0-4.38-1.96-4.38-4.38l0,0c0-2.42,1.96-4.38,4.38-4.38l0,0
						c2.42,0,4.38,1.96,4.38,4.38l0,0C219.25,60.29,217.29,62.25,214.88,62.25z"/>
				</g>
			</g>
			<g>
				<g>
					<g>
						<path class="st4" d="M223.63,62.25L223.63,62.25c-2.42,0-4.38-1.96-4.38-4.38l0,0c0-2.42,1.96-4.38,4.38-4.38l0,0
							c2.42,0,4.38,1.96,4.38,4.38l0,0C228,60.29,226.04,62.25,223.63,62.25z"/>
					</g>
					<g>
						<path class="st4" d="M223.63,71L223.63,71c-2.42,0-4.38-1.96-4.38-4.38l0,0c0-2.42,1.96-4.38,4.38-4.38l0,0
							c2.42,0,4.38,1.96,4.38,4.38l0,0C228,69.04,226.04,71,223.63,71z"/>
					</g>
				</g>
				<g>
					<g>
						<path class="st5" d="M232.38,62.25L232.38,62.25c-2.42,0-4.38-1.96-4.38-4.38l0,0c0-2.42,1.96-4.38,4.38-4.38l0,0
							c2.42,0,4.38,1.96,4.38,4.38l0,0C236.75,60.29,234.79,62.25,232.38,62.25z"/>
					</g>
					<g>
						<path class="st5" d="M232.38,71L232.38,71c-2.42,0-4.38-1.96-4.38-4.38l0,0c0-2.42,1.96-4.38,4.38-4.38l0,0
							c2.42,0,4.38,1.96,4.38,4.38l0,0C236.75,69.04,234.79,71,232.38,71z"/>
					</g>
				</g>
				<g>
					<path class="st4" d="M223.63,79.75L223.63,79.75c-2.42,0-4.38-1.96-4.38-4.38l0,0c0-2.42,1.96-4.38,4.38-4.38l0,0
						c2.42,0,4.38,1.96,4.38,4.38l0,0C228,77.79,226.04,79.75,223.63,79.75z"/>
				</g>
			</g>
		</g>
		<rect x="88" y="1" class="st7" width="70" height="35"/>
		<line class="st8" x1="155.56" y1="20.75" x2="141.43" y2="34.88"/>
		<line class="st9" x1="175.5" y1="1" x2="175.5" y2="106"/>
		<line class="st9" x1="263" y1="53.5" x2="263" y2="106"/>
		<line class="st9" x1="350.5" y1="53.5" x2="175.5" y2="53.5"/>
		<line class="st10" x1="278.25" y1="55.75" x2="274" y2="60"/>
		<line class="st12" x1="269.5" y1="55.75" x2="265.25" y2="60"/>
		<line class="st10" x1="278.25" y1="64.5" x2="274" y2="68.75"/>
		<line class="st10" x1="295.75" y1="55.75" x2="291.5" y2="60"/>
		<line class="st12" x1="287" y1="55.75" x2="282.75" y2="60"/>
		<line class="st10" x1="313.25" y1="55.75" x2="309" y2="60"/>
		<line class="st10" x1="295.75" y1="64.5" x2="291.5" y2="68.75"/>
		<line class="st10" x1="295.75" y1="73.25" x2="291.5" y2="77.5"/>
		<line class="st12" x1="304.5" y1="55.75" x2="300.25" y2="60"/>
		<line class="st12" x1="322.11" y1="55.75" x2="317.87" y2="60"/>
		<linearGradient id="SVGID_1_" gradientUnits="userSpaceOnUse" x1="0.5" y1="0.9178" x2="350.5" y2="0.9178">
			<stop  offset="0" style="stop-color:#B47C24;stop-opacity:0"/>
			<stop  offset="0.5" style="stop-color:#F2D77A"/>
			<stop  offset="1" style="stop-color:#B47C24;stop-opacity:0"/>
		</linearGradient>
		<line class="st13" x1="0.5" y1="0.92" x2="350.5" y2="0.92"/>
	</g>
</g>
<g id="圖層_2" class="st21">
</g>
</svg>
