<?xml version="1.0" encoding="utf-8"?>
<!-- Generator: Adobe Illustrator 25.2.3, SVG Export Plug-In . SVG Version: 6.00 Build 0)  -->
<svg version="1.1" xmlns="http://www.w3.org/2000/svg" xmlns:xlink="http://www.w3.org/1999/xlink" x="0px" y="0px"
	 viewBox="0 0 351 106" style="enable-background:new 0 0 351 106;" xml:space="preserve">
<style type="text/css">
	.st0{fill:#FFFFFF;stroke:#000000;stroke-miterlimit:10;}
	.st1{fill:#FF0000;}
	.st2{fill:#FFFFFF;stroke:#B2B2B2;stroke-miterlimit:10;}
	.st3{fill:#FFFFFF;}
	.st4{fill:#005DFF;}
	.st5{fill:#FF302A;}
	.st6{fill:#008ED6;}
	.st7{fill:none;stroke:#FF0000;stroke-width:2;stroke-miterlimit:10;}
	.st8{fill:none;stroke:#14B045;stroke-width:2.7;stroke-linecap:round;stroke-linejoin:round;stroke-miterlimit:10;}
	.st9{fill:none;stroke:#000000;stroke-miterlimit:10;}
	.st10{fill:none;stroke:#FF302A;stroke-width:1.6561;stroke-linecap:round;stroke-miterlimit:10;}
	.st11{fill:none;stroke:#005DFF;stroke-width:1.6561;stroke-linecap:round;stroke-linejoin:round;stroke-miterlimit:10;}
	.st12{fill:none;stroke:#005DFF;stroke-width:1.6561;stroke-linecap:round;stroke-miterlimit:10;}
	.st13{fill:none;stroke:url(#SVGID_1_);stroke-width:0.803;stroke-miterlimit:10;}
	.st14{fill:none;stroke:url(#SVGID_2_);stroke-width:0.803;stroke-miterlimit:10;}
	.st15{fill:none;stroke:url(#SVGID_3_);stroke-width:0.803;stroke-miterlimit:10;}
	.st16{fill:none;stroke:url(#SVGID_4_);stroke-width:0.803;stroke-miterlimit:10;}
	.st17{fill:none;stroke:url(#SVGID_5_);stroke-width:0.803;stroke-miterlimit:10;}
	.st18{fill:none;stroke:url(#SVGID_6_);stroke-width:0.803;stroke-miterlimit:10;}
	.st19{fill:none;stroke:url(#SVGID_7_);stroke-width:0.803;stroke-miterlimit:10;}
	.st20{fill:none;stroke:url(#SVGID_8_);stroke-width:0.803;stroke-miterlimit:10;}
	.st21{display:none;}
	.st22{display:inline;}
</style>
<g id="圖層_1">
	<g>
		<g>
			<rect x="0.5" y="0.5" class="st2" width="17.5" height="17.5"/>
			<rect x="0.5" y="18" class="st2" width="17.5" height="17.5"/>
			<rect x="0.5" y="35.5" class="st2" width="17.5" height="17.5"/>
			<rect x="0.5" y="53" class="st2" width="17.5" height="17.5"/>
			<rect x="0.5" y="70.5" class="st2" width="17.5" height="17.5"/>
			<rect x="0.5" y="88" class="st2" width="17.5" height="17.5"/>
			<rect x="18" y="0.5" class="st2" width="17.5" height="17.5"/>
			<rect x="18" y="18" class="st2" width="17.5" height="17.5"/>
			<g>
				<path class="st3" d="M26.75,34.38c-4.2,0-7.63-3.42-7.63-7.63s3.42-7.63,7.62-7.63s7.62,3.42,7.62,7.62S30.95,34.38,26.75,34.38
					z"/>
				<path class="st4" d="M26.75,20.25c3.58,0,6.5,2.92,6.5,6.5s-2.92,6.5-6.5,6.5s-6.5-2.92-6.5-6.5
					C20.25,23.17,23.17,20.25,26.75,20.25 M26.75,18C21.92,18,18,21.92,18,26.75v0c0,4.83,3.92,8.75,8.75,8.75
					c4.83,0,8.75-3.92,8.75-8.75v0C35.5,21.92,31.58,18,26.75,18L26.75,18z"/>
			</g>
			<rect x="18" y="35.5" class="st2" width="17.5" height="17.5"/>
			<rect x="18" y="53" class="st2" width="17.5" height="17.5"/>
			<rect x="18" y="70.5" class="st2" width="17.5" height="17.5"/>
			<rect x="18" y="88" class="st2" width="17.5" height="17.5"/>
			<rect x="35.5" y="0.5" class="st2" width="17.5" height="17.5"/>
			<rect x="35.5" y="18" class="st2" width="17.5" height="17.5"/>
			<rect x="35.5" y="35.5" class="st2" width="17.5" height="17.5"/>
			<rect x="35.5" y="53" class="st2" width="17.5" height="17.5"/>
			<rect x="35.5" y="70.5" class="st2" width="17.5" height="17.5"/>
			<rect x="35.5" y="88" class="st2" width="17.5" height="17.5"/>
			<rect x="53" y="0.5" class="st2" width="17.5" height="17.5"/>
			<rect x="53" y="18" class="st2" width="17.5" height="17.5"/>
			<rect x="53" y="35.5" class="st2" width="17.5" height="17.5"/>
			<rect x="53" y="53" class="st2" width="17.5" height="17.5"/>
			<rect x="53" y="70.5" class="st2" width="17.5" height="17.5"/>
			<rect x="53" y="88" class="st2" width="17.5" height="17.5"/>
			<rect x="70.5" y="0.5" class="st2" width="17.5" height="17.5"/>
			<rect x="70.5" y="18" class="st2" width="17.5" height="17.5"/>
			<rect x="70.5" y="35.5" class="st2" width="17.5" height="17.5"/>
			<g>
				<path class="st3" d="M79.25,34.38c-4.2,0-7.62-3.42-7.62-7.63s3.42-7.63,7.62-7.63s7.62,3.42,7.62,7.62S83.45,34.38,79.25,34.38
					z"/>
				<path class="st1" d="M79.25,20.25c3.58,0,6.5,2.92,6.5,6.5s-2.92,6.5-6.5,6.5c-3.58,0-6.5-2.92-6.5-6.5
					C72.75,23.17,75.67,20.25,79.25,20.25 M79.25,18L79.25,18c-4.83,0-8.75,3.92-8.75,8.75v0c0,4.83,3.92,8.75,8.75,8.75h0
					c4.83,0,8.75-3.92,8.75-8.75v0C88,21.92,84.08,18,79.25,18L79.25,18z"/>
			</g>
			<g>
				<circle class="st3" cx="79.25" cy="44.25" r="7.62"/>
				<path class="st1" d="M79.25,37.75c3.58,0,6.5,2.92,6.5,6.5c0,3.58-2.92,6.5-6.5,6.5c-3.58,0-6.5-2.92-6.5-6.5
					C72.75,40.67,75.67,37.75,79.25,37.75 M79.25,35.5L79.25,35.5c-4.83,0-8.75,3.92-8.75,8.75l0,0c0,4.83,3.92,8.75,8.75,8.75h0
					c4.83,0,8.75-3.92,8.75-8.75l0,0C88,39.42,84.08,35.5,79.25,35.5L79.25,35.5z"/>
			</g>
			<rect x="70.5" y="53" class="st2" width="17.5" height="17.5"/>
			<rect x="70.5" y="70.5" class="st2" width="17.5" height="17.5"/>
			<rect x="70.5" y="88" class="st2" width="17.5" height="17.5"/>
			<g>
				<rect x="88" y="0.5" class="st3" width="17.5" height="17.5"/>
			</g>
			<rect x="88" y="18" class="st2" width="17.5" height="17.5"/>
			<rect x="88" y="35.5" class="st2" width="17.5" height="17.5"/>
			<rect x="88" y="53" class="st2" width="17.5" height="17.5"/>
			<rect x="88" y="70.5" class="st2" width="17.5" height="17.5"/>
			<rect x="88" y="88" class="st2" width="17.5" height="17.5"/>
			<rect x="105.5" y="0.5" class="st2" width="17.5" height="17.5"/>
			<rect x="105.5" y="18" class="st2" width="17.5" height="17.5"/>
			<rect x="105.5" y="35.5" class="st2" width="17.5" height="17.5"/>
			<rect x="105.5" y="53" class="st2" width="17.5" height="17.5"/>
			<rect x="105.5" y="70.5" class="st2" width="17.5" height="17.5"/>
			<rect x="105.5" y="88" class="st2" width="17.5" height="17.5"/>
			<rect x="123" y="0.5" class="st2" width="17.5" height="17.5"/>
			<rect x="123" y="18" class="st2" width="17.5" height="17.5"/>
			<rect x="123" y="35.5" class="st2" width="17.5" height="17.5"/>
			<rect x="123" y="53" class="st2" width="17.5" height="17.5"/>
			<rect x="123" y="70.5" class="st2" width="17.5" height="17.5"/>
			<g>
				<circle class="st3" cx="131.75" cy="9.25" r="7.62"/>
				<path class="st4" d="M131.75,2.75c3.58,0,6.5,2.92,6.5,6.5c0,3.58-2.92,6.5-6.5,6.5c-3.58,0-6.5-2.92-6.5-6.5
					S128.17,2.75,131.75,2.75 M131.75,0.5c-4.83,0-8.75,3.92-8.75,8.75l0,0c0,4.83,3.92,8.75,8.75,8.75c4.83,0,8.75-3.92,8.75-8.75
					l0,0C140.5,4.42,136.58,0.5,131.75,0.5L131.75,0.5z"/>
			</g>
			<g>
				<path class="st3" d="M131.75,34.38c-4.2,0-7.62-3.42-7.62-7.63s3.42-7.63,7.62-7.63c4.2,0,7.62,3.42,7.62,7.62
					S135.95,34.38,131.75,34.38z"/>
				<path class="st4" d="M131.75,20.25c3.58,0,6.5,2.92,6.5,6.5s-2.92,6.5-6.5,6.5c-3.58,0-6.5-2.92-6.5-6.5
					C125.25,23.17,128.17,20.25,131.75,20.25 M131.75,18c-4.83,0-8.75,3.92-8.75,8.75v0c0,4.83,3.92,8.75,8.75,8.75
					c4.83,0,8.75-3.92,8.75-8.75v0C140.5,21.92,136.58,18,131.75,18L131.75,18z"/>
			</g>
			<g>
				<circle class="st3" cx="131.75" cy="44.25" r="7.62"/>
				<path class="st4" d="M131.75,37.75c3.58,0,6.5,2.92,6.5,6.5c0,3.58-2.92,6.5-6.5,6.5c-3.58,0-6.5-2.92-6.5-6.5
					C125.25,40.67,128.17,37.75,131.75,37.75 M131.75,35.5c-4.83,0-8.75,3.92-8.75,8.75l0,0c0,4.83,3.92,8.75,8.75,8.75
					c4.83,0,8.75-3.92,8.75-8.75l0,0C140.5,39.42,136.58,35.5,131.75,35.5L131.75,35.5z"/>
			</g>
			<g>
				<circle class="st3" cx="131.75" cy="61.75" r="7.62"/>
				<path class="st4" d="M131.75,55.25c3.58,0,6.5,2.92,6.5,6.5s-2.92,6.5-6.5,6.5c-3.58,0-6.5-2.92-6.5-6.5
					C125.25,58.17,128.17,55.25,131.75,55.25 M131.75,53c-4.83,0-8.75,3.92-8.75,8.75v0c0,4.83,3.92,8.75,8.75,8.75
					c4.83,0,8.75-3.92,8.75-8.75v0C140.5,56.92,136.58,53,131.75,53L131.75,53z"/>
			</g>
			<g>
				<circle class="st3" cx="131.75" cy="79.25" r="7.62"/>
				<path class="st4" d="M131.75,72.75c3.58,0,6.5,2.92,6.5,6.5s-2.92,6.5-6.5,6.5c-3.58,0-6.5-2.92-6.5-6.5
					S128.17,72.75,131.75,72.75 M131.75,70.5c-4.83,0-8.75,3.92-8.75,8.75l0,0c0,4.83,3.92,8.75,8.75,8.75
					c4.83,0,8.75-3.92,8.75-8.75l0,0C140.5,74.42,136.58,70.5,131.75,70.5L131.75,70.5z"/>
			</g>
			<rect x="123" y="88" class="st2" width="17.5" height="17.5"/>
			<rect x="140.5" y="0.5" class="st2" width="17.5" height="17.5"/>
			<rect x="140.5" y="18" class="st2" width="17.5" height="17.5"/>
			<rect x="140.5" y="35.5" class="st2" width="17.5" height="17.5"/>
			<rect x="140.5" y="53" class="st2" width="17.5" height="17.5"/>
			<rect x="140.5" y="70.5" class="st2" width="17.5" height="17.5"/>
			<rect x="140.5" y="88" class="st2" width="17.5" height="17.5"/>
			<rect x="158" y="0.5" class="st2" width="17.5" height="17.5"/>
			<rect x="158" y="18" class="st2" width="17.5" height="17.5"/>
			<rect x="158" y="35.5" class="st2" width="17.5" height="17.5"/>
			<rect x="158" y="53" class="st2" width="17.5" height="17.5"/>
			<rect x="158" y="70.5" class="st2" width="17.5" height="17.5"/>
			<rect x="158" y="88" class="st2" width="17.5" height="17.5"/>
			<rect x="175.5" y="0.5" class="st2" width="17.5" height="17.5"/>
			<rect x="175.5" y="18" class="st2" width="17.5" height="17.5"/>
			<rect x="175.5" y="35.5" class="st2" width="17.5" height="17.5"/>
			<rect x="175.5" y="53" class="st2" width="17.5" height="17.5"/>
			<rect x="175.5" y="70.5" class="st2" width="17.5" height="17.5"/>
			<rect x="175.5" y="88" class="st2" width="17.5" height="17.5"/>
			<rect x="193" y="0.5" class="st2" width="17.5" height="17.5"/>
			<rect x="193" y="18" class="st2" width="17.5" height="17.5"/>
			<rect x="193" y="35.5" class="st2" width="17.5" height="17.5"/>
			<rect x="193" y="53" class="st2" width="17.5" height="17.5"/>
			<rect x="193" y="70.5" class="st2" width="17.5" height="17.5"/>
			<rect x="193" y="88" class="st2" width="17.5" height="17.5"/>
			<rect x="210.5" y="0.5" class="st2" width="17.5" height="17.5"/>
			<rect x="210.5" y="18" class="st2" width="17.5" height="17.5"/>
			<rect x="210.5" y="35.5" class="st2" width="17.5" height="17.5"/>
			<rect x="210.5" y="53" class="st2" width="17.5" height="17.5"/>
			<rect x="210.5" y="70.5" class="st2" width="17.5" height="17.5"/>
			<rect x="210.5" y="88" class="st2" width="17.5" height="17.5"/>
			<rect x="228" y="0.5" class="st2" width="17.5" height="17.5"/>
			<rect x="228" y="18" class="st2" width="17.5" height="17.5"/>
			<rect x="228" y="35.5" class="st2" width="17.5" height="17.5"/>
			<rect x="228" y="53" class="st2" width="17.5" height="17.5"/>
			<rect x="228" y="70.5" class="st2" width="17.5" height="17.5"/>
			<rect x="228" y="88" class="st2" width="17.5" height="17.5"/>
			<rect x="245.5" y="0.5" class="st2" width="17.5" height="17.5"/>
			<rect x="245.5" y="18" class="st2" width="17.5" height="17.5"/>
			<rect x="245.5" y="35.5" class="st2" width="17.5" height="17.5"/>
			<rect x="245.5" y="53" class="st2" width="17.5" height="17.5"/>
			<rect x="245.5" y="70.5" class="st2" width="17.5" height="17.5"/>
			<rect x="245.5" y="88" class="st2" width="17.5" height="17.5"/>
			<g>
				<rect x="263" y="0.5" class="st2" width="17.5" height="17.5"/>
				<rect x="263" y="18" class="st2" width="17.5" height="17.5"/>
				<rect x="263" y="35.5" class="st2" width="17.5" height="17.5"/>
				<rect x="263" y="53" class="st2" width="17.5" height="17.5"/>
				<rect x="263" y="70.5" class="st2" width="17.5" height="17.5"/>
				<rect x="263" y="88" class="st2" width="17.5" height="17.5"/>
			</g>
			<g>
				<rect x="280.5" y="0.5" class="st2" width="17.5" height="17.5"/>
				<rect x="280.5" y="18" class="st2" width="17.5" height="17.5"/>
				<rect x="280.5" y="35.5" class="st2" width="17.5" height="17.5"/>
				<rect x="280.5" y="53" class="st2" width="17.5" height="17.5"/>
				<rect x="280.5" y="70.5" class="st2" width="17.5" height="17.5"/>
				<rect x="280.5" y="88" class="st2" width="17.5" height="17.5"/>
			</g>
			<g>
				<rect x="298" y="0.5" class="st2" width="17.5" height="17.5"/>
				<rect x="298" y="18" class="st2" width="17.5" height="17.5"/>
				<rect x="298" y="35.5" class="st2" width="17.5" height="17.5"/>
				<rect x="298" y="53" class="st2" width="17.5" height="17.5"/>
				<rect x="298" y="70.5" class="st2" width="17.5" height="17.5"/>
				<rect x="298" y="88" class="st2" width="17.5" height="17.5"/>
			</g>
			<g>
				<rect x="315.5" y="0.5" class="st2" width="17.5" height="17.5"/>
				<rect x="315.5" y="18" class="st2" width="17.5" height="17.5"/>
				<rect x="315.5" y="35.5" class="st2" width="17.5" height="17.5"/>
				<rect x="315.5" y="53" class="st2" width="17.5" height="17.5"/>
				<rect x="315.5" y="70.5" class="st2" width="17.5" height="17.5"/>
				<rect x="315.5" y="88" class="st2" width="17.5" height="17.5"/>
			</g>
			<g>
				<rect x="333" y="0.5" class="st2" width="17.5" height="17.5"/>
				<rect x="333" y="18" class="st2" width="17.5" height="17.5"/>
				<rect x="333" y="35.5" class="st2" width="17.5" height="17.5"/>
				<rect x="333" y="53" class="st2" width="17.5" height="17.5"/>
				<rect x="333" y="70.5" class="st2" width="17.5" height="17.5"/>
				<rect x="333" y="88" class="st2" width="17.5" height="17.5"/>
			</g>
		</g>
		<g>
			<circle class="st3" cx="9.25" cy="9.25" r="7.62"/>
			<g>
				<path class="st1" d="M9.25,2.75c3.58,0,6.5,2.92,6.5,6.5s-2.92,6.5-6.5,6.5c-3.58,0-6.5-2.92-6.5-6.5S5.67,2.75,9.25,2.75
					 M9.25,0.5L9.25,0.5C4.42,0.5,0.5,4.42,0.5,9.25S4.42,18,9.25,18h0C14.08,18,18,14.08,18,9.25S14.08,0.5,9.25,0.5L9.25,0.5z"/>
			</g>
		</g>
		<g>
			<circle class="st3" cx="26.75" cy="9.25" r="7.62"/>
			<path class="st4" d="M26.75,2.75c3.58,0,6.5,2.92,6.5,6.5s-2.92,6.5-6.5,6.5s-6.5-2.92-6.5-6.5S23.17,2.75,26.75,2.75 M26.75,0.5
				C21.92,0.5,18,4.42,18,9.25S21.92,18,26.75,18c4.83,0,8.75-3.92,8.75-8.75S31.58,0.5,26.75,0.5L26.75,0.5z"/>
		</g>
		<g>
			<path class="st3" d="M44.25,16.87c-4.2,0-7.62-3.42-7.62-7.62s3.42-7.62,7.62-7.62s7.63,3.42,7.63,7.62S48.45,16.87,44.25,16.87z
				"/>
			<g>
				<path class="st1" d="M44.25,2.75c3.58,0,6.5,2.92,6.5,6.5s-2.92,6.5-6.5,6.5s-6.5-2.92-6.5-6.5S40.67,2.75,44.25,2.75
					 M44.25,0.5c-4.83,0-8.75,3.92-8.75,8.75S39.42,18,44.25,18C49.08,18,53,14.08,53,9.25S49.08,0.5,44.25,0.5L44.25,0.5z"/>
			</g>
		</g>
		<g>
			<circle class="st3" cx="61.75" cy="9.25" r="7.62"/>
			<path class="st4" d="M61.75,2.75c3.58,0,6.5,2.92,6.5,6.5s-2.92,6.5-6.5,6.5s-6.5-2.92-6.5-6.5S58.17,2.75,61.75,2.75 M61.75,0.5
				C56.92,0.5,53,4.42,53,9.25S56.92,18,61.75,18c4.83,0,8.75-3.92,8.75-8.75S66.58,0.5,61.75,0.5L61.75,0.5z"/>
		</g>
		<g>
			<circle class="st3" cx="79.25" cy="9.25" r="7.62"/>
			<g>
				<path class="st1" d="M79.25,2.75c3.58,0,6.5,2.92,6.5,6.5s-2.92,6.5-6.5,6.5c-3.58,0-6.5-2.92-6.5-6.5S75.67,2.75,79.25,2.75
					 M79.25,0.5L79.25,0.5c-4.83,0-8.75,3.92-8.75,8.75S74.42,18,79.25,18h0C84.08,18,88,14.08,88,9.25S84.08,0.5,79.25,0.5
					L79.25,0.5z"/>
			</g>
		</g>
		<g>
			<circle class="st3" cx="96.75" cy="9.25" r="7.62"/>
			<path class="st4" d="M96.75,2.75c3.58,0,6.5,2.92,6.5,6.5s-2.92,6.5-6.5,6.5c-3.58,0-6.5-2.92-6.5-6.5S93.17,2.75,96.75,2.75
				 M96.75,0.5C91.92,0.5,88,4.42,88,9.25S91.92,18,96.75,18s8.75-3.92,8.75-8.75S101.58,0.5,96.75,0.5L96.75,0.5z"/>
		</g>
		<g>
			<circle class="st3" cx="114.25" cy="9.25" r="7.62"/>
			<g>
				<path class="st1" d="M114.25,2.75c3.58,0,6.5,2.92,6.5,6.5s-2.92,6.5-6.5,6.5c-3.58,0-6.5-2.92-6.5-6.5S110.67,2.75,114.25,2.75
					 M114.25,0.5c-4.83,0-8.75,3.92-8.75,8.75s3.92,8.75,8.75,8.75S123,14.08,123,9.25S119.08,0.5,114.25,0.5L114.25,0.5z"/>
			</g>
		</g>
		<g>
			<path class="st3" d="M96.75,34.38c-4.2,0-7.62-3.42-7.62-7.63s3.42-7.62,7.62-7.62s7.62,3.42,7.62,7.62S100.95,34.38,96.75,34.38
				z"/>
			<path class="st4" d="M96.75,20.25c3.58,0,6.5,2.92,6.5,6.5c0,3.58-2.92,6.5-6.5,6.5c-3.58,0-6.5-2.92-6.5-6.5
				C90.25,23.17,93.17,20.25,96.75,20.25 M96.75,18C91.92,18,88,21.92,88,26.75s3.92,8.75,8.75,8.75s8.75-3.92,8.75-8.75
				S101.58,18,96.75,18L96.75,18z"/>
		</g>
		<g>
			<g>
				<path class="st3" d="M179.88,8.69c-2.1,0-3.81-1.71-3.81-3.81c0-2.1,1.71-3.81,3.81-3.81c2.1,0,3.81,1.71,3.81,3.81
					C183.69,6.98,181.98,8.69,179.88,8.69z"/>
				<g>
					<path class="st4" d="M179.88,1.62c1.79,0,3.25,1.46,3.25,3.25c0,1.79-1.46,3.25-3.25,3.25c-1.79,0-3.25-1.46-3.25-3.25
						C176.63,3.08,178.08,1.62,179.88,1.62 M179.88,0.5c-2.42,0-4.38,1.96-4.38,4.38s1.96,4.38,4.38,4.38s4.38-1.96,4.38-4.38
						S182.29,0.5,179.88,0.5L179.88,0.5z"/>
				</g>
			</g>
			<g>
				<path class="st3" d="M188.63,8.69c-2.1,0-3.81-1.71-3.81-3.81c0-2.1,1.71-3.81,3.81-3.81c2.1,0,3.81,1.71,3.81,3.81
					C192.44,6.98,190.73,8.69,188.63,8.69z"/>
				<g>
					<path class="st5" d="M188.63,1.62c1.79,0,3.25,1.46,3.25,3.25c0,1.79-1.46,3.25-3.25,3.25c-1.79,0-3.25-1.46-3.25-3.25
						C185.38,3.08,186.83,1.62,188.63,1.62 M188.63,0.5c-2.42,0-4.38,1.96-4.38,4.38s1.96,4.38,4.38,4.38
						c2.42,0,4.38-1.96,4.38-4.38S191.04,0.5,188.63,0.5L188.63,0.5z"/>
				</g>
			</g>
			<g>
				<path class="st3" d="M179.88,17.44c-2.1,0-3.81-1.71-3.81-3.81c0-2.1,1.71-3.81,3.81-3.81c2.1,0,3.81,1.71,3.81,3.81
					C183.69,15.73,181.98,17.44,179.88,17.44z"/>
				<g>
					<path class="st4" d="M179.88,10.38c1.79,0,3.25,1.46,3.25,3.25c0,1.79-1.46,3.25-3.25,3.25c-1.79,0-3.25-1.46-3.25-3.25
						C176.63,11.83,178.08,10.38,179.88,10.38 M179.88,9.25c-2.42,0-4.38,1.96-4.38,4.38s1.96,4.37,4.38,4.37s4.38-1.96,4.38-4.37
						S182.29,9.25,179.88,9.25L179.88,9.25z"/>
				</g>
			</g>
		</g>
		<g>
			<g>
				<path class="st3" d="M179.88,26.19c-2.1,0-3.81-1.71-3.81-3.81c0-2.1,1.71-3.81,3.81-3.81c2.1,0,3.81,1.71,3.81,3.81
					C183.69,24.48,181.98,26.19,179.88,26.19z"/>
				<path class="st4" d="M179.88,19.13c1.79,0,3.25,1.46,3.25,3.25c0,1.79-1.46,3.25-3.25,3.25c-1.79,0-3.25-1.46-3.25-3.25
					C176.63,20.58,178.08,19.13,179.88,19.13 M179.88,18c-2.42,0-4.38,1.96-4.38,4.38c0,2.42,1.96,4.38,4.38,4.38
					s4.38-1.96,4.38-4.38C184.25,19.96,182.29,18,179.88,18L179.88,18z"/>
			</g>
		</g>
		<g>
			<g>
				<path class="st3" d="M197.38,8.69c-2.1,0-3.81-1.71-3.81-3.81c0-2.1,1.71-3.81,3.81-3.81c2.1,0,3.81,1.71,3.81,3.81
					C201.19,6.98,199.48,8.69,197.38,8.69z"/>
				<g>
					<path class="st4" d="M197.38,1.62c1.79,0,3.25,1.46,3.25,3.25c0,1.79-1.46,3.25-3.25,3.25c-1.79,0-3.25-1.46-3.25-3.25
						C194.13,3.08,195.58,1.62,197.38,1.62 M197.38,0.5c-2.42,0-4.38,1.96-4.38,4.38s1.96,4.38,4.38,4.38
						c2.42,0,4.38-1.96,4.38-4.38S199.79,0.5,197.38,0.5L197.38,0.5z"/>
				</g>
			</g>
			<g>
				<path class="st3" d="M206.13,8.69c-2.1,0-3.81-1.71-3.81-3.81c0-2.1,1.71-3.81,3.81-3.81c2.1,0,3.81,1.71,3.81,3.81
					C209.94,6.98,208.23,8.69,206.13,8.69z"/>
				<g>
					<path class="st5" d="M206.13,1.62c1.79,0,3.25,1.46,3.25,3.25c0,1.79-1.46,3.25-3.25,3.25c-1.79,0-3.25-1.46-3.25-3.25
						C202.88,3.08,204.33,1.62,206.13,1.62 M206.13,0.5c-2.42,0-4.38,1.96-4.38,4.38s1.96,4.38,4.38,4.38
						c2.42,0,4.38-1.96,4.38-4.38S208.54,0.5,206.13,0.5L206.13,0.5z"/>
				</g>
			</g>
		</g>
		<g>
			<g>
				<path class="st3" d="M232.38,8.69c-2.1,0-3.81-1.71-3.81-3.81c0-2.1,1.71-3.81,3.81-3.81c2.1,0,3.81,1.71,3.81,3.81
					C236.19,6.98,234.48,8.69,232.38,8.69z"/>
				<g>
					<path class="st4" d="M232.38,1.62c1.79,0,3.25,1.46,3.25,3.25c0,1.79-1.46,3.25-3.25,3.25c-1.79,0-3.25-1.46-3.25-3.25
						C229.13,3.08,230.58,1.62,232.38,1.62 M232.38,0.5c-2.42,0-4.38,1.96-4.38,4.38s1.96,4.38,4.38,4.38
						c2.42,0,4.38-1.96,4.38-4.38S234.79,0.5,232.38,0.5L232.38,0.5z"/>
				</g>
			</g>
			<g>
				<path class="st3" d="M241.13,8.69c-2.1,0-3.81-1.71-3.81-3.81c0-2.1,1.71-3.81,3.81-3.81c2.1,0,3.81,1.71,3.81,3.81
					C244.94,6.98,243.23,8.69,241.13,8.69z"/>
				<g>
					<path class="st5" d="M241.13,1.62c1.79,0,3.25,1.46,3.25,3.25c0,1.79-1.46,3.25-3.25,3.25c-1.79,0-3.25-1.46-3.25-3.25
						C237.88,3.08,239.33,1.62,241.13,1.62 M241.13,0.5c-2.42,0-4.38,1.96-4.38,4.38s1.96,4.38,4.38,4.38s4.38-1.96,4.38-4.38
						S243.54,0.5,241.13,0.5L241.13,0.5z"/>
				</g>
			</g>
		</g>
		<g>
			<g>
				<path class="st3" d="M214.88,8.69c-2.1,0-3.81-1.71-3.81-3.81c0-2.1,1.71-3.81,3.81-3.81c2.1,0,3.81,1.71,3.81,3.81
					C218.69,6.98,216.98,8.69,214.88,8.69z"/>
				<g>
					<path class="st4" d="M214.88,1.62c1.79,0,3.25,1.46,3.25,3.25c0,1.79-1.46,3.25-3.25,3.25c-1.79,0-3.25-1.46-3.25-3.25
						C211.63,3.08,213.08,1.62,214.88,1.62 M214.88,0.5c-2.42,0-4.38,1.96-4.38,4.38s1.96,4.38,4.38,4.38
						c2.42,0,4.38-1.96,4.38-4.38S217.29,0.5,214.88,0.5L214.88,0.5z"/>
				</g>
			</g>
			<g>
				<path class="st3" d="M223.63,8.69c-2.1,0-3.81-1.71-3.81-3.81c0-2.1,1.71-3.81,3.81-3.81c2.1,0,3.81,1.71,3.81,3.81
					C227.44,6.98,225.73,8.69,223.63,8.69z"/>
				<path class="st5" d="M223.63,1.62c1.79,0,3.25,1.46,3.25,3.25c0,1.79-1.46,3.25-3.25,3.25c-1.79,0-3.25-1.46-3.25-3.25
					C220.38,3.08,221.83,1.62,223.63,1.62 M223.63,0.5c-2.42,0-4.38,1.96-4.38,4.38s1.96,4.38,4.38,4.38c2.42,0,4.38-1.96,4.38-4.38
					S226.04,0.5,223.63,0.5L223.63,0.5z"/>
			</g>
			<g>
				<circle class="st3" cx="241.13" cy="13.63" r="3.81"/>
				<path class="st5" d="M241.13,10.38c1.79,0,3.25,1.46,3.25,3.25c0,1.79-1.46,3.25-3.25,3.25c-1.79,0-3.25-1.46-3.25-3.25
					C237.88,11.83,239.33,10.38,241.13,10.38 M241.13,9.25c-2.42,0-4.38,1.96-4.38,4.38s1.96,4.37,4.38,4.37s4.38-1.96,4.38-4.37
					S243.54,9.25,241.13,9.25L241.13,9.25z"/>
			</g>
		</g>
		<g>
			<g>
				<circle class="st3" cx="241.13" cy="22.38" r="3.81"/>
				<path class="st5" d="M241.13,19.13c1.79,0,3.25,1.46,3.25,3.25c0,1.79-1.46,3.25-3.25,3.25c-1.79,0-3.25-1.46-3.25-3.25
					C237.88,20.58,239.33,19.13,241.13,19.13 M241.13,18c-2.42,0-4.38,1.96-4.38,4.38c0,2.42,1.96,4.38,4.38,4.38
					s4.38-1.96,4.38-4.38C245.5,19.96,243.54,18,241.13,18L241.13,18z"/>
			</g>
		</g>
		<g>
			<circle class="st3" cx="232.38" cy="13.63" r="3.81"/>
			<g>
				<path class="st4" d="M232.38,10.38c1.79,0,3.25,1.46,3.25,3.25c0,1.79-1.46,3.25-3.25,3.25c-1.79,0-3.25-1.46-3.25-3.25
					C229.13,11.83,230.58,10.38,232.38,10.38 M232.38,9.25c-2.42,0-4.38,1.96-4.38,4.38s1.96,4.37,4.38,4.37
					c2.42,0,4.38-1.96,4.38-4.37S234.79,9.25,232.38,9.25L232.38,9.25z"/>
			</g>
		</g>
		<g>
			<g>
				<circle class="st3" cx="232.38" cy="22.38" r="3.81"/>
				<path class="st4" d="M232.38,19.13c1.79,0,3.25,1.46,3.25,3.25c0,1.79-1.46,3.25-3.25,3.25c-1.79,0-3.25-1.46-3.25-3.25
					C229.13,20.58,230.58,19.13,232.38,19.13 M232.38,18c-2.42,0-4.38,1.96-4.38,4.38c0,2.42,1.96,4.38,4.38,4.38
					c2.42,0,4.38-1.96,4.38-4.38C236.75,19.96,234.79,18,232.38,18L232.38,18z"/>
			</g>
		</g>
		<g>
			<g>
				<g>
					<path class="st5" d="M179.88,61.75L179.88,61.75c-2.42,0-4.38-1.96-4.38-4.38l0,0c0-2.42,1.96-4.38,4.38-4.38l0,0
						c2.42,0,4.38,1.96,4.38,4.38l0,0C184.25,59.79,182.29,61.75,179.88,61.75z"/>
				</g>
				<g>
					<path class="st4" d="M188.63,61.75L188.63,61.75c-2.42,0-4.38-1.96-4.38-4.38l0,0c0-2.42,1.96-4.38,4.38-4.38l0,0
						c2.42,0,4.38,1.96,4.38,4.38l0,0C193,59.79,191.04,61.75,188.63,61.75z"/>
				</g>
				<g>
					<path class="st4" d="M188.63,70.5L188.63,70.5c-2.42,0-4.38-1.96-4.38-4.38l0,0c0-2.42,1.96-4.38,4.38-4.38l0,0
						c2.42,0,4.38,1.96,4.38,4.38l0,0C193,68.54,191.04,70.5,188.63,70.5z"/>
				</g>
			</g>
			<g>
				<g>
					<path class="st5" d="M197.38,61.75L197.38,61.75c-2.42,0-4.38-1.96-4.38-4.38l0,0c0-2.42,1.96-4.38,4.38-4.38l0,0
						c2.42,0,4.38,1.96,4.38,4.38l0,0C201.75,59.79,199.79,61.75,197.38,61.75z"/>
				</g>
				<g>
					<path class="st4" d="M206.13,61.75L206.13,61.75c-2.42,0-4.38-1.96-4.38-4.38l0,0c0-2.42,1.96-4.38,4.38-4.38l0,0
						c2.42,0,4.38,1.96,4.38,4.38l0,0C210.5,59.79,208.54,61.75,206.13,61.75z"/>
				</g>
			</g>
			<g>
				<g>
					<path class="st5" d="M214.88,61.75L214.88,61.75c-2.42,0-4.38-1.96-4.38-4.38l0,0c0-2.42,1.96-4.38,4.38-4.38l0,0
						c2.42,0,4.38,1.96,4.38,4.38l0,0C219.25,59.79,217.29,61.75,214.88,61.75z"/>
				</g>
				<g>
					<path class="st4" d="M223.63,61.75L223.63,61.75c-2.42,0-4.38-1.96-4.38-4.38l0,0c0-2.42,1.96-4.38,4.38-4.38l0,0
						c2.42,0,4.38,1.96,4.38,4.38l0,0C228,59.79,226.04,61.75,223.63,61.75z"/>
				</g>
				<g>
					<path class="st5" d="M232.38,61.75L232.38,61.75c-2.42,0-4.38-1.96-4.38-4.38l0,0c0-2.42,1.96-4.38,4.38-4.38l0,0
						c2.42,0,4.38,1.96,4.38,4.38l0,0C236.75,59.79,234.79,61.75,232.38,61.75z"/>
				</g>
				<g>
					<path class="st5" d="M232.38,70.5L232.38,70.5c-2.42,0-4.38-1.96-4.38-4.38l0,0c0-2.42,1.96-4.38,4.38-4.38l0,0
						c2.42,0,4.38,1.96,4.38,4.38l0,0C236.75,68.54,234.79,70.5,232.38,70.5z"/>
				</g>
				<g>
					<path class="st4" d="M206.13,70.5L206.13,70.5c-2.42,0-4.38-1.96-4.38-4.38l0,0c0-2.42,1.96-4.38,4.38-4.38l0,0
						c2.42,0,4.38,1.96,4.38,4.38l0,0C210.5,68.54,208.54,70.5,206.13,70.5z"/>
				</g>
			</g>
			<g>
				<g>
					<path class="st4" d="M206.13,79.25L206.13,79.25c-2.42,0-4.38-1.96-4.38-4.38l0,0c0-2.42,1.96-4.38,4.38-4.38l0,0
						c2.42,0,4.38,1.96,4.38,4.38l0,0C210.5,77.29,208.54,79.25,206.13,79.25z"/>
				</g>
				<g>
					<path class="st4" d="M206.13,88L206.13,88c-2.42,0-4.38-1.96-4.38-4.38l0,0c0-2.42,1.96-4.38,4.38-4.38l0,0
						c2.42,0,4.38,1.96,4.38,4.38l0,0C210.5,86.04,208.54,88,206.13,88z"/>
				</g>
			</g>
		</g>
		<line class="st8" x1="33.82" y1="2.13" x2="19.68" y2="16.26"/>
		<line class="st8" x1="68.82" y1="2.13" x2="54.68" y2="16.26"/>
		<line class="st8" x1="86.32" y1="2.13" x2="72.18" y2="16.26"/>
		<line class="st8" x1="86.32" y1="37.19" x2="72.18" y2="51.32"/>
		<line class="st8" x1="138.82" y1="37.19" x2="124.68" y2="51.32"/>
		<line class="st9" x1="175.5" y1="0.5" x2="175.5" y2="105.5"/>
		<line class="st9" x1="263" y1="53" x2="263" y2="105.5"/>
		<line class="st9" x1="350.5" y1="53" x2="175.5" y2="53"/>
		<line class="st12" x1="278.25" y1="55.25" x2="274" y2="59.5"/>
		<line class="st10" x1="269.5" y1="55.25" x2="265.25" y2="59.5"/>
		<line class="st10" x1="269.5" y1="64" x2="265.25" y2="68.25"/>
		<line class="st12" x1="295.75" y1="55.25" x2="291.5" y2="59.5"/>
		<line class="st10" x1="287" y1="55.25" x2="282.75" y2="59.5"/>
		<line class="st10" x1="287" y1="64" x2="282.75" y2="68.25"/>
		<line class="st12" x1="278.25" y1="64" x2="274" y2="68.25"/>
		<line class="st12" x1="278.25" y1="72.75" x2="274" y2="77"/>
		<line class="st10" x1="287" y1="72.75" x2="282.75" y2="77"/>
		<line class="st12" x1="278.25" y1="81.5" x2="274" y2="85.75"/>
		<line class="st10" x1="304.5" y1="55.25" x2="300.25" y2="59.5"/>
		<linearGradient id="SVGID_1_" gradientUnits="userSpaceOnUse" x1="0.5" y1="0.4178" x2="350.5" y2="0.4178">
			<stop  offset="0" style="stop-color:#B47C24;stop-opacity:0"/>
			<stop  offset="0.5" style="stop-color:#F2D77A"/>
			<stop  offset="1" style="stop-color:#B47C24;stop-opacity:0"/>
		</linearGradient>
		<line class="st13" x1="0.5" y1="0.42" x2="350.5" y2="0.42"/>
	</g>
</g>
<g id="圖層_2" class="st21">
</g>
</svg>
